<svg width="125" height="50" xmlns="http://www.w3.org/2000/svg"><g fill-rule="nonzero" fill="none"><path d="M94.864 12.515c.094.425.14.859.136 1.293v10.348c0 2.765-1.418 4.147-4.254 4.147h-6.261c-1.268 0-2.23-.386-2.885-1.157-.655-.771-.982-1.822-.982-3.15V13.808c-.002-.32.02-.641.066-.96h-.067c-.755.558-1.83 1.357-1.844 1.389-.03.066-.29-.822-1.348-.822h-1.751c-.335 0-1.247.21-1.89.819-.643.609-.963 1.635-.963 2.385V28.26l-1.375.043h-1.379l-1.419-.007V13.418H62.49v12.986c0 .407.134.888.403 1.155.268.267.587.633.973.633h2.176L64.223 32h-2.068c-1.817 0-3.798-2.018-3.798-5.02V13.419h-3.962l-.017-1.744-2.39 1.744h-5.255c-.386 0-.62.064-.982.402s-.403.595-.403.98v.969a1.375 1.375 0 001.354 1.351h4.271c2.966 0 4.449 1.414 4.449 4.243v2.697c0 2.829-1.457 4.2-4.36 4.2H36.407v-1.672c0 .44-1.32 1.715-2.983 1.715h-4.037c-2.9 0-4.386-1.41-4.386-4.243v-2.697c0-2.807 1.518-4.222 4.483-4.243l5.534-.036-.022-2.19c0-.985-.494-1.478-1.483-1.479H30.88c-.894 0-1.783.277-1.783 1.388v.89h-1.249l-2.817-2.061v-.214c0-1.222.525-2.15 1.492-2.857.792-.553 1.619-.836 2.543-.836h5.357c1.934 0 3.244.461 3.932 1.383.494.664.741 1.768.741 3.31v.994l-.01 9.218h7.55l3.162.013c.38.011.747-.134 1.015-.402.265-.257.41-.612.404-.98l-.011-2.404h-4.883l-.466-.012c-1.655 0-2.7-.333-3.419-.997-.72-.664-1.079-1.746-1.079-3.247V14.13c0-1.242.204-2.185.613-2.828.687-1.05 1.811-1.611 3.66-1.611h1.393l11.315-.009.018-7.587L61.227 0h1.284v9.681h10.307v1.815h.036c.255-.826 1.385-1.815 2.92-1.815h1.284c.752 0 1.157.067 1.926.285 1.07.337 1.657 1.24 1.783 1.424.035.05.094.142.159.249h.104c.569-1.345 1.807-1.95 3.78-1.95h6.26c.886 0 1.643.22 2.273.62l-4.864 3.11h-2.31a1.376 1.376 0 00-1.386 1.382v8.463a1.37 1.37 0 001.386 1.383h3.28c.38.011.747-.134 1.015-.402.26-.247.406-.59.404-.95v-6.96l3.996-3.82zm-59.869 8.33h-4.376c-.408 0-.89.134-1.158.401a1.33 1.33 0 00-.403.98v1.032a1.33 1.33 0 00.403.981c.268.27.76.36 1.166.36h2.924c.957-.085 1.442-.708 1.442-2.01l.002-1.744zM31.471 38.095l-.182 1.196c-.663-.26-1.027-.377-1.703-.377-.728 0-1.586.26-1.586 1.209 0 1.742 3.9 1.339 3.9 4.329 0 1.937-1.495 2.704-3.315 2.704-.637 0-1.261-.182-1.859-.377l.13-1.209c.442.182 1.222.442 1.885.442.741 0 1.781-.416 1.781-1.482 0-2.028-3.9-1.469-3.9-4.29 0-1.612 1.274-2.47 2.912-2.47.598 0 1.313.104 1.937.325zm1.755 11.635v-9.36h1.17v.936h.026c.325-.494 1.079-1.092 2.249-1.092 1.924 0 2.86 1.573 2.86 3.354 0 1.82-.845 3.588-2.847 3.588-1.17 0-1.833-.455-2.21-1.066h-.026v3.64h-1.222zm5.005-6.071c.026-1.196-.494-2.457-1.82-2.457s-1.963 1.261-1.963 2.496c0 1.105.572 2.47 1.95 2.47 1.313 0 1.859-1.469 1.833-2.509zm2.99-1.781l-.065-1.04c.611-.364 1.339-.624 2.184-.624 1.898 0 2.665.936 2.665 2.743V45.7c0 .754.026 1.105.052 1.3h-1.144v-.858h-.026c-.286.403-.936 1.014-2.054 1.014-1.43 0-2.431-.624-2.431-2.067 0-1.664 1.82-2.184 3.081-2.184.481 0 .819 0 1.3.026 0-1.144-.416-1.729-1.638-1.729-.689 0-1.43.26-1.924.676zm3.562 2.548v-.585c-.26 0-.52-.026-.78-.026-.663 0-2.301.104-2.301 1.274 0 .702.676 1.079 1.235 1.079 1.209 0 1.846-.754 1.846-1.742zm7.28-3.952l-.104 1.014a3.54 3.54 0 00-1.326-.286c-1.365 0-2.132 1.222-2.132 2.483 0 1.183.637 2.483 2.21 2.483.416 0 .936-.13 1.313-.377l.091 1.092c-.507.234-1.092.273-1.534.273-2.002 0-3.38-1.573-3.38-3.471 0-2.015 1.352-3.471 3.38-3.471.494 0 1.131.117 1.482.26zm6.214 5.031v1.222c-.468.169-1.001.429-2.093.429-2.353 0-3.432-1.43-3.432-3.588 0-1.963 1.235-3.354 3.107-3.354 2.21 0 2.925 1.612 2.925 3.744h-4.732a2.17 2.17 0 002.184 2.21c.806 0 1.742-.416 2.041-.663zm-4.225-2.457h3.432c0-1.014-.598-1.846-1.651-1.846-1.196 0-1.69.988-1.781 1.846zm16.51-5.122v5.317c0 2.548-1.287 3.913-3.523 3.913s-3.523-1.365-3.523-3.913v-5.317h1.3v5.148c0 1.742.546 2.938 2.223 2.938 1.677 0 2.223-1.196 2.223-2.938v-5.148h1.3zM71.511 47l3.341-4.719-3.042-4.355h1.56l2.418 3.484 2.405-3.484h1.482l-3.055 4.329L79.974 47h-1.638l-2.678-3.848L73.071 47h-1.56zm9.321 0v-9.074h2.678c2.691 0 4.836 1.664 4.836 4.459C88.346 45.427 86.5 47 83.51 47h-2.678zm1.3-7.93v6.786h1.365c2.236 0 3.471-1.079 3.471-3.419 0-2.119-1.443-3.367-3.315-3.367h-1.521zm12.142-.975l-.182 1.196c-.663-.26-1.027-.377-1.703-.377-.728 0-1.586.26-1.586 1.209 0 1.742 3.9 1.339 3.9 4.329 0 1.937-1.495 2.704-3.315 2.704-.637 0-1.261-.182-1.859-.377l.13-1.209c.442.182 1.222.442 1.885.442.741 0 1.781-.416 1.781-1.482 0-2.028-3.9-1.469-3.9-4.29 0-1.612 1.274-2.47 2.912-2.47.598 0 1.313.104 1.937.325z" fill="#FFF"/><path d="M95 8.5a2.5 2.5 0 115 0 2.5 2.5 0 01-5 0z" fill="#FFA301"/></g></svg>
