<svg width="318" height="240" viewBox="0 0 318 240" fill="none" xmlns="http://www.w3.org/2000/svg">
<g clip-path="url(#clip0_1156_11094)">
<path d="M0 3C0 1.34314 1.34315 0 3 0H315C316.657 0 318 1.34315 318 3V240H0V3Z" fill="#48417F"/>
<path opacity="0.3" d="M259.781 171.032H259.757C235.28 171.034 193.502 160.293 148.935 141.267C118.709 128.364 92.4962 113.915 73.8473 100.594C64.5224 93.9335 57.0892 87.5547 51.9921 81.798C46.8924 76.0413 44.1394 70.9052 44.1421 66.7573C44.1421 65.4331 44.4209 64.2092 44.99 63.0905C47.4277 58.2796 55.0096 55.9297 66.3865 55.9297H66.4096C77.5461 55.9297 92.2833 58.1639 109.293 62.4178C108.681 63.0407 108.085 63.6784 107.497 64.3241C95.0586 61.4368 84.4075 59.9202 76.3037 59.9202C71.9708 59.9202 68.3646 60.3532 65.5983 61.2485C62.8329 62.1422 60.8984 63.5055 59.949 65.3687C59.5153 66.2208 59.3033 67.1552 59.3033 68.1581C59.3078 71.6423 61.83 75.9541 66.4283 80.8481C80.2278 95.5202 112.828 115.419 153.3 132.697C194.273 150.185 232.307 160.289 253.302 160.293C261.944 160.288 267.739 158.589 269.642 154.881C270.076 154.029 270.287 153.095 270.287 152.092C270.282 148.311 267.312 143.553 261.937 138.137C256.574 132.736 248.805 126.688 239.142 120.355C239.302 119.532 239.453 118.708 239.58 117.883C252.657 126.137 263.252 134.184 270.584 141.435C277.958 148.721 282.017 155.208 282.012 160.241C282.012 161.565 281.734 162.789 281.165 163.907C278.737 168.699 271.144 171.032 259.781 171.032Z" fill="white"/>
<path opacity="0.3" d="M139.934 117.35C127.144 111.286 115.647 105.119 106.041 99.2579C107.2 94.5547 108.904 89.8907 111.22 85.3416C123.878 60.4868 150.841 45.959 178.971 45.959C186.851 45.959 194.822 47.0989 202.596 49.4717C180.984 56.8355 159.832 75.0995 146.866 100.558C144.029 106.128 141.724 111.753 139.934 117.35Z" fill="white"/>
<path opacity="0.3" d="M139.28 171.941C118.673 160.342 105.935 139.731 104.468 120.334C113.76 125.485 124.343 130.796 135.802 136.091C135.304 140.155 135.046 144.075 135.046 147.865C135.046 156.528 136.391 164.507 139.28 171.941Z" fill="white"/>
<path opacity="0.7" d="M105.482 98.9846C100.916 96.1927 96.7821 93.471 93.1448 90.8642C94.2607 87.0367 95.7338 83.2427 97.6264 79.5278C110.306 54.6298 137.267 40 165.416 40C175.991 40 186.735 42.0646 196.952 46.4269C198.463 47.0711 200.055 47.8767 201.556 48.6611C194.061 46.4636 186.394 45.4069 178.809 45.4069C150.523 45.4069 123.39 60.101 110.662 85.092C108.349 89.6337 106.644 94.2896 105.482 98.9846Z" fill="white"/>
<path opacity="0.7" d="M139.242 172.541C137.408 171.916 135.586 171.232 133.783 170.462C107.884 159.407 92.1406 136.733 90.6978 112.317C94.8142 114.837 99.1988 117.357 103.859 119.953C105.801 141.173 118.516 160.86 139.242 172.541Z" fill="white"/>
<path opacity="0.7" d="M253.47 159.689H253.443C232.137 159.691 192.864 149.229 153.473 132.357C126.644 120.866 103.225 108.227 86.5176 96.763C78.1644 91.0317 71.489 85.5938 66.9067 80.7455C62.3227 75.8972 59.8414 71.6359 59.845 68.2896C59.845 67.3323 60.0462 66.4492 60.4568 65.6428C62.2318 62.1374 67.63 60.4438 76.0251 60.4438H76.0411C84.0176 60.4438 94.6695 61.9613 107.402 64.8152C106.734 65.5539 106.083 66.3106 105.446 67.0795C97.3236 65.43 90.406 64.5689 84.9901 64.5689C78.2142 64.5714 73.7584 65.9078 72.2657 68.8163C71.929 69.4776 71.7651 70.2025 71.7651 70.982C71.7696 73.897 74.038 77.5671 78.1688 81.781C90.5646 94.4139 119.829 111.918 156.013 127.366C193.378 143.313 227.833 152.679 245.96 152.681C252.799 152.679 257.349 151.357 258.837 148.46C259.182 147.782 259.351 147.043 259.351 146.253C259.347 143.554 257.405 140.249 253.812 136.449C250.23 132.663 244.995 128.389 238.36 123.769C238.59 122.833 238.801 121.896 238.986 120.957C248.273 127.024 255.94 132.961 261.29 138.301C266.674 143.673 269.702 148.445 269.697 152.096C269.696 153.026 269.503 153.882 269.106 154.663C267.389 158.059 261.833 159.689 253.47 159.689Z" fill="white"/>
<path d="M239.778 114.633L239.654 115.873C273.174 136.015 293.618 157.944 288.366 168.257C279.979 184.723 216.657 174 147.211 144.355C77.7636 114.71 28.086 77.1961 36.4713 60.7301C41.6993 50.4651 71.7616 50.5426 111.415 60.8736L112.382 59.9816C71.1934 49.1646 40.9859 49.2689 35.3847 60.2661C31.1293 68.6231 40.4613 82.0958 61.661 98.2022C82.6701 114.164 112.872 130.908 146.704 145.35C180.535 159.791 213.961 170.208 240.82 174.68C267.925 179.193 285.196 177.077 289.452 168.721C295.076 157.678 274.668 135.488 239.778 114.633Z" fill="white"/>
<path d="M210.565 6.95936C211.209 3.77348 210.028 2.16202 206.614 1.56461C210.028 2.16202 211.757 1.05949 212.4 -2.12713C211.757 1.05949 212.938 2.67108 216.352 3.2685C212.938 2.67108 211.209 3.77348 210.565 6.95936Z" fill="white"/>
<path d="M232.655 9.16487C233.071 7.10333 232.308 6.06098 230.098 5.6744C232.308 6.06098 233.426 5.34709 233.842 3.28555C233.426 5.34709 234.19 6.39031 236.399 6.77689C234.19 6.39031 233.071 7.10333 232.655 9.16487Z" fill="white"/>
<path d="M247.199 14.961C247.53 13.3214 246.923 12.4918 245.165 12.1842C246.923 12.4918 247.812 11.9241 248.144 10.2838C247.812 11.9241 248.42 12.7538 250.177 13.0612C248.42 12.7538 247.53 13.3214 247.199 14.961Z" fill="white"/>
<path d="M280.418 39.8656C280.75 38.2254 280.142 37.3964 278.385 37.089C280.142 37.3964 281.032 36.8287 281.363 35.1885C281.032 36.8287 281.639 37.6584 283.396 37.9659C281.639 37.6584 280.75 38.2254 280.418 39.8656Z" fill="white"/>
<path d="M199.503 36.7748C199.834 35.1345 199.227 34.3049 197.47 33.9974C199.227 34.3049 200.117 33.7372 200.448 32.0976C200.117 33.7372 200.724 34.5669 202.481 34.8743C200.724 34.5669 199.834 35.1345 199.503 36.7748Z" fill="white"/>
<path d="M108.595 20.0362C108.926 18.3966 108.318 17.5677 106.56 17.2601C108.318 17.5677 109.208 17 109.539 15.359C109.208 17 109.815 17.8297 111.572 18.1372C109.815 17.8297 108.926 18.3966 108.595 20.0362Z" fill="white"/>
<path d="M180.617 31.1864C181.034 29.1248 180.27 28.0825 178.061 27.6959C180.27 28.0825 181.388 27.3686 181.805 25.307C181.388 27.3686 182.152 28.4118 184.361 28.7984C182.152 28.4118 181.034 29.1248 180.617 31.1864Z" fill="white"/>
<path d="M147.111 25.3232C147.527 23.2617 146.763 22.2192 144.554 21.8326C146.763 22.2192 147.882 21.5054 148.298 19.4439C147.882 21.5054 148.645 22.5485 150.854 22.9351C148.645 22.5485 147.527 23.2617 147.111 25.3232Z" fill="white"/>
<path d="M172.38 6.64135C172.261 7.23214 171.651 7.62092 171.019 7.51027C170.386 7.39949 169.97 6.83125 170.089 6.24045C170.208 5.65039 170.818 5.26161 171.451 5.37239C172.083 5.48304 172.499 6.05128 172.38 6.64135Z" fill="white"/>
<path d="M222.012 17.8169C221.893 18.4069 221.283 18.7957 220.65 18.6849C220.018 18.5743 219.602 18.006 219.721 17.416C219.84 16.8252 220.45 16.4364 221.082 16.5471C221.715 16.6578 222.131 17.2261 222.012 17.8169Z" fill="white"/>
<path d="M234.593 23.0619C234.473 23.6527 233.863 24.0413 233.231 23.9307C232.598 23.8199 232.181 23.2516 232.301 22.6608C232.42 22.0708 233.029 21.682 233.662 21.7928C234.295 21.9034 234.712 22.4718 234.593 23.0619Z" fill="white"/>
<path d="M234.593 23.0619C234.473 23.6527 233.863 24.0413 233.231 23.9307C232.598 23.8199 232.181 23.2516 232.301 22.6608C232.42 22.0708 233.029 21.682 233.662 21.7928C234.295 21.9034 234.712 22.4718 234.593 23.0619Z" fill="white"/>
<path d="M265.37 1.33177C265.251 1.92257 264.641 2.31134 264.009 2.20069C263.376 2.08991 262.96 1.52167 263.079 0.93088C263.198 0.340819 263.807 -0.0479707 264.441 0.062814C265.073 0.173461 265.489 0.741711 265.37 1.33177Z" fill="white"/>
<path d="M222.696 32.0478C222.577 32.6379 221.967 33.0274 221.334 32.9166C220.702 32.806 220.286 32.237 220.405 31.6469C220.524 31.0569 221.134 30.6674 221.766 30.778C222.399 30.8888 222.815 31.4578 222.696 32.0478Z" fill="white"/>
<path d="M166.581 23.6123C166.462 24.2023 165.852 24.5911 165.219 24.4803C164.587 24.3697 164.171 23.8015 164.29 23.2114C164.409 22.6206 165.019 22.2318 165.651 22.3425C166.284 22.4532 166.7 23.0215 166.581 23.6123Z" fill="white"/>
<path d="M235.711 49.8199C235.592 50.41 234.982 50.7994 234.349 50.6887C233.717 50.5781 233.3 50.009 233.42 49.4189C233.539 48.8281 234.149 48.4395 234.781 48.5501C235.414 48.6608 235.831 49.2291 235.711 49.8199Z" fill="white"/>
<path d="M264.385 19.4214C264.266 20.0114 263.656 20.4002 263.024 20.2896C262.391 20.1788 261.975 19.6105 262.094 19.0205C262.213 18.4297 262.823 18.0409 263.456 18.1517C264.088 18.2623 264.504 18.8306 264.385 19.4214Z" fill="white"/>
<path d="M260.511 44.4756C260.392 45.0664 259.782 45.4551 259.149 45.3444C258.517 45.2337 258.101 44.6655 258.22 44.0747C258.339 43.4846 258.949 43.0951 259.581 43.2057C260.214 43.3165 260.63 43.8855 260.511 44.4756Z" fill="white"/>
<path d="M188.666 11.1516C188.547 11.7424 187.938 12.1312 187.305 12.0205C186.672 11.9097 186.256 11.3415 186.375 10.7507C186.495 10.1606 187.104 9.77185 187.737 9.88264C188.369 9.99329 188.786 10.5615 188.666 11.1516Z" fill="white"/>
<path d="M237.982 34.7225C237.911 35.0733 237.55 35.3041 237.174 35.2383C236.798 35.1725 236.551 34.8353 236.622 34.4844C236.692 34.1336 237.054 33.9029 237.43 33.9686C237.806 34.0344 238.053 34.3717 237.982 34.7225Z" fill="white"/>
<path d="M279.682 56.5455C279.611 56.8963 279.249 57.1271 278.873 57.0613C278.497 56.9955 278.25 56.6583 278.321 56.3074C278.392 55.9574 278.753 55.7266 279.129 55.7924C279.505 55.8582 279.752 56.1955 279.682 56.5455Z" fill="white"/>
<path d="M158.689 11.8546C158.618 12.2054 158.256 12.436 157.881 12.3704C157.505 12.3046 157.258 11.9673 157.329 11.6165C157.399 11.2664 157.761 11.0357 158.137 11.1015C158.512 11.1671 158.76 11.5045 158.689 11.8546Z" fill="white"/>
<path d="M251.036 22.2037C250.966 22.5545 250.604 22.7853 250.228 22.7195C249.852 22.6537 249.605 22.3164 249.676 21.9656C249.747 21.6156 250.108 21.3848 250.484 21.4506C250.86 21.5164 251.107 21.8536 251.036 22.2037Z" fill="white"/>
<path d="M309.979 88.2715C310.395 86.2099 309.631 85.1667 307.422 84.7801C309.631 85.1667 310.75 84.4537 311.166 82.3921C310.75 84.4537 311.513 85.496 313.723 85.8826C311.513 85.496 310.395 86.2099 309.979 88.2715Z" fill="white"/>
<path d="M317.105 40.2675C317.521 38.206 316.757 37.1628 314.548 36.7762C316.757 37.1628 317.876 36.4498 318.292 34.3882C317.876 36.4498 318.639 37.4921 320.848 37.8787C318.639 37.4921 317.521 38.206 317.105 40.2675Z" fill="white"/>
<path d="M104.501 35.8983C104.918 33.8367 104.154 32.7944 101.945 32.4078C104.154 32.7944 105.272 32.0805 105.689 30.0189C105.272 32.0805 106.036 33.1237 108.245 33.5103C106.036 33.1237 104.918 33.8367 104.501 35.8983Z" fill="white"/>
<path d="M288.712 105.486C288.592 106.076 287.983 106.465 287.35 106.354C286.717 106.244 286.301 105.675 286.421 105.085C286.54 104.495 287.149 104.106 287.782 104.216C288.415 104.327 288.831 104.896 288.712 105.486Z" fill="white"/>
<path d="M20.8131 2.97019C20.6939 3.56025 20.0843 3.94976 19.452 3.83911C18.8189 3.72833 18.4029 3.15936 18.5221 2.5693C18.6414 1.97851 19.2508 1.58973 19.8839 1.70051C20.5162 1.81116 20.9324 2.3794 20.8131 2.97019Z" fill="white"/>
<path d="M17.7889 35.5747C17.6697 36.1647 17.0603 36.5535 16.428 36.4429C15.7949 36.3321 15.3787 35.7639 15.4979 35.1738C15.6172 34.583 16.2266 34.1942 16.8598 34.305C17.4921 34.4157 17.9082 34.9839 17.7889 35.5747Z" fill="white"/>
<path d="M80.1097 14.7524C79.9905 15.3425 79.3811 15.7312 78.7488 15.6206C78.1156 15.5098 77.6995 14.9416 77.8187 14.3515C77.9379 13.7614 78.5474 13.372 79.1805 13.4827C79.8128 13.5934 80.2289 14.1623 80.1097 14.7524Z" fill="white"/>
<path d="M272.953 82.2092C272.833 82.8 272.224 83.1888 271.592 83.0781C270.958 82.9673 270.542 82.3991 270.662 81.8083C270.781 81.2182 271.39 80.8295 272.023 80.9403C272.656 81.0509 273.072 81.6191 272.953 82.2092Z" fill="white"/>
<path d="M120.592 223.174C122.038 218.819 124.651 217.539 129.339 218.888C124.651 217.539 123.27 215.11 124.716 210.755C123.27 215.11 120.657 216.39 115.969 215.041C120.657 216.39 122.038 218.819 120.592 223.174Z" fill="white"/>
<path d="M117.732 207.895C118.757 204.81 120.607 203.903 123.928 204.859C120.607 203.903 119.629 202.182 120.654 199.097C119.629 202.182 117.778 203.089 114.457 202.134C117.778 203.089 118.757 204.81 117.732 207.895Z" fill="white"/>
<path d="M97.0782 200.25C97.7411 198.254 98.9382 197.668 101.087 198.286C98.9382 197.668 98.3058 196.554 98.9686 194.558C98.3058 196.554 97.1077 197.141 94.9589 196.523C97.1077 197.141 97.7411 198.254 97.0782 200.25Z" fill="white"/>
<path d="M81.3051 199.043C81.8323 197.456 82.7851 196.989 84.4948 197.481C82.7851 196.989 82.2816 196.103 82.809 194.515C82.2816 196.103 81.3287 196.57 79.6198 196.078C81.3287 196.57 81.8323 197.456 81.3051 199.043Z" fill="white"/>
<path d="M39.4436 206.558C39.971 204.97 40.9236 204.503 42.6325 204.995C40.9236 204.503 40.42 203.617 40.9474 202.029C40.42 203.617 39.4671 204.084 37.7583 203.593C39.4671 204.084 39.971 204.97 39.4436 206.558Z" fill="white"/>
<path d="M56.4162 153.613C56.9436 152.025 57.8955 151.559 59.6051 152.051C57.8955 151.559 57.3927 150.673 57.9201 149.085C57.3927 150.673 56.4398 151.14 54.7302 150.648C56.4398 151.14 56.9436 152.025 56.4162 153.613Z" fill="white"/>
<path d="M190.356 190.451C190.883 188.864 191.835 188.397 193.545 188.889C191.835 188.397 191.332 187.511 191.86 185.923C191.332 187.511 190.379 187.978 188.67 187.486C190.379 187.978 190.883 188.864 190.356 190.451Z" fill="white"/>
<path d="M112.607 238.948C113.134 237.36 114.087 236.893 115.796 237.385C114.087 236.893 113.584 236.007 114.111 234.42C113.584 236.007 112.631 236.474 110.922 235.982C112.631 236.474 113.134 237.36 112.607 238.948Z" fill="white"/>
<path d="M231.678 213.964C232.206 212.376 233.158 211.909 234.868 212.401C233.158 211.909 232.655 211.023 233.182 209.435C232.655 211.023 231.703 211.491 229.993 210.999C231.703 211.491 232.206 212.376 231.678 213.964Z" fill="white"/>
<path d="M200.515 217.753C201.042 216.165 201.994 215.698 203.704 216.19C201.994 215.698 201.491 214.812 202.018 213.225C201.491 214.812 200.538 215.279 198.828 214.787C200.538 215.279 201.042 216.165 200.515 217.753Z" fill="white"/>
<path d="M132.118 242.223C132.781 240.227 133.978 239.641 136.127 240.259C133.978 239.641 133.346 238.527 134.009 236.531C133.346 238.527 132.148 239.114 129.999 238.496C132.148 239.114 132.781 240.227 132.118 242.223Z" fill="white"/>
<path d="M151.688 224.184C151.498 224.756 151.843 225.363 152.458 225.54C153.074 225.717 153.727 225.398 153.917 224.826C154.106 224.254 153.761 223.648 153.146 223.47C152.531 223.293 151.878 223.613 151.688 224.184Z" fill="white"/>
<path d="M102.169 212.488C101.979 213.059 102.324 213.666 102.94 213.843C103.555 214.02 104.207 213.7 104.397 213.129C104.587 212.557 104.242 211.95 103.627 211.773C103.011 211.596 102.359 211.916 102.169 212.488Z" fill="white"/>
<path d="M88.4103 211.647C88.2203 212.219 88.566 212.826 89.181 213.003C89.7968 213.18 90.4494 212.86 90.6393 212.288C90.8291 211.717 90.4842 211.11 89.8684 210.933C89.2534 210.756 88.6 211.075 88.4103 211.647Z" fill="white"/>
<path d="M88.4103 211.647C88.2203 212.219 88.566 212.826 89.181 213.003C89.7968 213.18 90.4494 212.86 90.6393 212.288C90.8291 211.717 90.4842 211.11 89.8684 210.933C89.2534 210.756 88.6 211.075 88.4103 211.647Z" fill="white"/>
<path d="M77.1169 156.522C76.9269 157.094 77.2718 157.701 77.8868 157.878C78.5026 158.055 79.1552 157.735 79.3451 157.163C79.5349 156.592 79.19 155.985 78.5742 155.808C77.9592 155.631 77.3066 155.951 77.1169 156.522Z" fill="white"/>
<path d="M72.0412 179.156C71.8512 179.728 72.1961 180.335 72.8111 180.512C73.4269 180.689 74.0795 180.369 74.2695 179.797C74.4592 179.226 74.1143 178.619 73.4985 178.442C72.8835 178.265 72.2309 178.585 72.0412 179.156Z" fill="white"/>
<path d="M94.4438 224.722C94.254 225.293 94.5987 225.901 95.2145 226.078C95.8295 226.255 96.4823 225.934 96.6721 225.363C96.8618 224.792 96.5171 224.184 95.9021 224.007C95.2863 223.83 94.6335 224.15 94.4438 224.722Z" fill="white"/>
<path d="M212.239 188.881C212.049 189.453 212.394 190.06 213.009 190.237C213.624 190.414 214.277 190.094 214.467 189.523C214.657 188.951 214.312 188.344 213.696 188.167C213.081 187.99 212.428 188.31 212.239 188.881Z" fill="white"/>
<path d="M199.512 238.229C199.322 238.8 199.667 239.407 200.283 239.584C200.898 239.761 201.55 239.442 201.74 238.87C201.93 238.298 201.585 237.691 200.97 237.514C200.354 237.337 199.702 237.657 199.512 238.229Z" fill="white"/>
<path d="M74.0331 234.724C73.8434 235.295 74.1888 235.903 74.8038 236.079C75.4188 236.256 76.0724 235.936 76.2621 235.365C76.4521 234.793 76.1064 234.186 75.4914 234.009C74.8764 233.832 74.223 234.152 74.0331 234.724Z" fill="white"/>
<path d="M63.863 195.513C63.6732 196.084 64.0181 196.691 64.6331 196.868C65.2489 197.045 65.9015 196.725 66.0912 196.154C66.2812 195.582 65.9363 194.975 65.3205 194.798C64.7055 194.621 64.0529 194.941 63.863 195.513Z" fill="white"/>
<path d="M54.7573 219.255C54.5673 219.827 54.9122 220.434 55.528 220.611C56.143 220.788 56.7956 220.469 56.9855 219.897C57.1753 219.325 56.8306 218.718 56.2156 218.541C55.5998 218.364 54.947 218.684 54.7573 219.255Z" fill="white"/>
<path d="M135.017 221.088C134.827 221.66 135.172 222.267 135.787 222.444C136.403 222.621 137.056 222.301 137.246 221.729C137.435 221.158 137.09 220.551 136.475 220.374C135.86 220.197 135.207 220.517 135.017 221.088Z" fill="white"/>
<path d="M186.677 207.039C186.488 207.61 186.833 208.217 187.448 208.394C188.064 208.571 188.717 208.252 188.906 207.68C189.096 207.108 188.752 206.502 188.136 206.324C187.521 206.147 186.867 206.467 186.677 207.039Z" fill="white"/>
<path d="M178.701 186.035C178.511 186.607 178.856 187.213 179.471 187.39C180.087 187.567 180.739 187.248 180.929 186.676C181.119 186.104 180.774 185.498 180.158 185.32C179.543 185.143 178.891 185.463 178.701 186.035Z" fill="white"/>
<path d="M96.1977 175.336C96.008 175.907 96.3526 176.514 96.9676 176.691C97.5834 176.868 98.2362 176.548 98.426 175.977C98.6157 175.405 98.271 174.798 97.6552 174.621C97.0402 174.444 96.3874 174.764 96.1977 175.336Z" fill="white"/>
<path d="M311.63 197.732C311.441 198.303 311.786 198.91 312.401 199.087C313.017 199.264 313.67 198.944 313.859 198.373C314.049 197.801 313.704 197.194 313.089 197.017C312.474 196.84 311.82 197.16 311.63 197.732Z" fill="white"/>
<path d="M160.61 189.05C160.42 189.622 160.765 190.228 161.38 190.405C161.996 190.583 162.649 190.263 162.838 189.692C163.028 189.12 162.683 188.513 162.068 188.336C161.453 188.159 160.8 188.478 160.61 189.05Z" fill="white"/>
<path d="M79.5766 220.444C79.4638 220.783 79.6685 221.144 80.0341 221.249C80.3997 221.354 80.7871 221.164 80.8999 220.825C81.0127 220.485 80.808 220.125 80.4423 220.02C80.0767 219.914 79.6894 220.104 79.5766 220.444Z" fill="white"/>
<path d="M31.7513 221.565C31.6385 221.904 31.8433 222.265 32.2089 222.37C32.5745 222.475 32.9619 222.285 33.0747 221.945C33.1872 221.607 32.9825 221.246 32.6169 221.141C32.2513 221.036 31.8639 221.226 31.7513 221.565Z" fill="white"/>
<path d="M35.8112 155.126C35.6986 155.465 35.9033 155.825 36.269 155.93C36.6338 156.035 37.0212 155.845 37.1338 155.506C37.2466 155.167 37.0418 154.806 36.677 154.701C36.3113 154.596 35.924 154.786 35.8112 155.126Z" fill="white"/>
<path d="M187.421 232.482C187.308 232.821 187.513 233.182 187.879 233.287C188.244 233.392 188.632 233.202 188.745 232.862C188.857 232.524 188.652 232.163 188.287 232.058C187.921 231.953 187.534 232.143 187.421 232.482Z" fill="white"/>
<path d="M161.198 234.716C161.085 235.056 161.291 235.416 161.655 235.521C162.021 235.626 162.408 235.436 162.521 235.097C162.634 234.758 162.429 234.398 162.063 234.293C161.699 234.188 161.31 234.377 161.198 234.716Z" fill="white"/>
<path d="M148.367 213.165C148.254 213.505 148.459 213.865 148.824 213.97C149.19 214.075 149.577 213.886 149.69 213.546C149.803 213.207 149.598 212.847 149.232 212.742C148.867 212.637 148.479 212.826 148.367 213.165Z" fill="white"/>
<path d="M90.2257 182.405C90.1129 182.744 90.3184 183.105 90.6833 183.21C91.0489 183.315 91.4362 183.125 91.549 182.785C91.6616 182.446 91.4569 182.086 91.0913 181.981C90.7264 181.876 90.3383 182.066 90.2257 182.405Z" fill="white"/>
<path d="M74.2853 203.756C74.1725 204.095 74.3772 204.455 74.7428 204.561C75.1085 204.666 75.4958 204.476 75.6086 204.136C75.7212 203.797 75.5165 203.437 75.1508 203.332C74.7852 203.227 74.3979 203.417 74.2853 203.756Z" fill="white"/>
<path d="M72.5955 137.362C73.2584 135.366 74.4555 134.779 76.605 135.398C74.4555 134.779 73.8231 133.666 74.4859 131.67C73.8231 133.666 72.6257 134.253 70.4762 133.634C72.6257 134.253 73.2584 135.366 72.5955 137.362Z" fill="white"/>
<path d="M19.2352 132.025C19.8981 130.029 21.0954 129.441 23.2441 130.06C21.0954 129.441 20.4628 128.328 21.1256 126.332C20.4628 128.328 19.2649 128.915 17.1162 128.296C19.2649 128.915 19.8981 130.029 19.2352 132.025Z" fill="white"/>
<path d="M6.77252 190.992C7.43538 188.996 8.6335 188.409 10.7822 189.027C8.6335 188.409 8.00006 187.295 8.66292 185.299C8.00006 187.295 6.80297 187.882 4.65426 187.264C6.80297 187.882 7.43538 188.996 6.77252 190.992Z" fill="white"/>
<path d="M272.843 202.73C273.506 200.734 274.704 200.146 276.852 200.764C274.704 200.146 274.071 199.033 274.734 197.036C274.071 199.033 272.873 199.62 270.724 199.001C272.873 199.62 273.506 200.734 272.843 202.73Z" fill="white"/>
<path d="M32.5344 116.481C32.3447 117.052 32.6895 117.659 33.3053 117.836C33.9203 118.013 34.5729 117.693 34.7626 117.122C34.9526 116.55 34.6077 115.943 33.9927 115.766C33.3769 115.589 32.7244 115.909 32.5344 116.481Z" fill="white"/>
<path d="M31.153 83.986C30.963 84.558 31.3086 85.165 31.9236 85.342C32.5394 85.5191 33.192 85.1994 33.382 84.6274C33.5717 84.0561 33.2268 83.4493 32.611 83.2721C31.996 83.0951 31.3427 83.4147 31.153 83.986Z" fill="white"/>
<path d="M140.575 120.733C140.385 121.304 140.73 121.911 141.345 122.088C141.961 122.265 142.613 121.945 142.803 121.374C142.993 120.802 142.648 120.195 142.032 120.018C141.417 119.841 140.765 120.161 140.575 120.733Z" fill="white"/>
<path d="M234.128 232.315C233.939 232.886 234.284 233.493 234.899 233.67C235.514 233.847 236.168 233.527 236.357 232.956C236.547 232.384 236.202 231.777 235.587 231.6C234.972 231.423 234.318 231.743 234.128 232.315Z" fill="white"/>
</g>
<defs>
<clipPath id="clip0_1156_11094">
<path d="M0 3C0 1.34314 1.34315 0 3 0H315C316.657 0 318 1.34315 318 3V240H0V3Z" fill="white"/>
</clipPath>
</defs>
</svg>
