<svg width="318" height="240" viewBox="0 0 318 240" fill="none" xmlns="http://www.w3.org/2000/svg">
<g clip-path="url(#clip0_1156_11086)">
<path d="M0 3C0 1.34314 1.34315 0 3 0H315C316.657 0 318 1.34315 318 3V240H0V3Z" fill="#4A9CBC"/>
<path fill-rule="evenodd" clip-rule="evenodd" d="M242.481 173.227L206.825 120.023C207.457 119.316 207.963 118.33 207.963 117.218C207.963 115.057 206.193 113.313 204.045 113.313C203.539 113.313 202.909 113.439 202.53 113.654L197.095 105.705C197.853 104.997 198.233 104.037 198.233 102.975C198.233 100.814 196.465 99.0573 194.317 99.0573C193.811 99.0573 193.305 99.171 192.926 99.3605L165.634 58.7681C165.255 59.0082 164.875 59.2484 164.496 59.4759L191.789 100.043C191.031 100.763 190.399 101.8 190.399 102.975C190.399 105.136 192.168 106.88 194.317 106.88C194.948 106.88 195.579 106.716 196.085 106.451L201.392 114.362C200.634 115.069 200.128 116.08 200.128 117.218C200.128 119.379 201.897 121.123 204.045 121.123C204.677 121.123 205.183 120.984 205.688 120.757L241.445 173.878C238.344 175.982 235.909 179.112 234.717 182.963C234.197 184.643 233.949 186.342 233.949 188.014C233.949 191.163 234.826 194.214 236.41 196.849L122.041 267.443L107.004 219.47C108.394 218.826 109.279 217.511 109.279 215.969C109.279 213.808 107.51 212.065 105.362 212.065C105.177 212.065 105.06 212.078 104.912 212.095L104.91 212.096C104.856 212.102 104.797 212.108 104.73 212.115L89.8122 164.26C101.906 159.753 110.52 148.098 110.52 134.431C110.52 123.499 105.009 113.854 96.6139 108.125L128.99 59.136C129.527 59.4894 130.073 59.8267 130.628 60.1464L131.27 59.0324C129.914 58.2514 128.607 57.3606 127.384 56.3853L126.583 57.3888C127.032 57.7475 127.492 58.095 127.961 58.4303L95.5336 107.419C90.6516 104.37 84.8831 102.608 78.703 102.608C61.1307 102.608 46.8847 116.855 46.8847 134.431C46.8847 140.384 48.5191 145.955 51.3635 150.72L-10 188.47L-10 189.974L52.0318 151.791C57.7094 160.498 67.5343 166.254 78.703 166.254C82.1404 166.254 85.4504 165.709 88.5513 164.7L103.467 212.519C102.329 213.177 101.445 214.466 101.445 215.969C101.445 218.131 103.214 219.874 105.362 219.874C105.441 219.874 105.52 219.865 105.63 219.851C105.696 219.843 105.773 219.834 105.868 219.824L120.903 268.139L113.322 272.802H115.723L121.282 269.402L128.485 292.693L129.748 292.315L122.42 268.707L237.122 197.938C239.222 200.9 242.275 203.22 246.003 204.374C248.478 205.141 250.997 205.315 253.408 204.978L261.536 276.416L262.8 276.264L254.677 204.751C259.899 203.613 264.46 200.056 266.714 194.947L317.892 218.333V216.917L267.182 193.771C267.262 193.545 267.338 193.317 267.409 193.086C268.854 188.42 268.196 183.598 265.974 179.643L328 142.986V141.495L265.318 178.568C263.213 175.388 260.042 172.888 256.124 171.675C251.38 170.206 246.472 170.913 242.481 173.227ZM242.993 173.991L247.259 180.356C249.154 179.421 251.429 179.168 253.703 179.851C255.472 180.407 256.862 181.494 257.999 182.896L264.527 179.035C262.535 176.045 259.544 173.695 255.853 172.552C251.383 171.168 246.761 171.825 242.993 173.991ZM265.184 180.11L258.631 183.983C259.262 185.196 259.641 186.574 259.641 188.002C259.641 188.729 259.518 189.455 259.393 190.193L259.389 190.214L266.344 193.388C266.411 193.199 266.474 193.008 266.533 192.815C267.025 191.226 267.259 189.617 267.259 188.034C267.259 185.227 266.523 182.501 265.184 180.11ZM265.879 194.566L259.009 191.427C257.872 193.765 255.978 195.458 253.703 196.178L254.573 203.834C259.481 202.735 263.76 199.377 265.879 194.566ZM253.304 204.066L252.44 196.469C251.176 196.659 249.912 196.583 248.522 196.191C246.88 195.673 245.489 194.675 244.479 193.399L237.904 197.455C239.89 200.235 242.766 202.412 246.274 203.498C248.624 204.226 251.016 204.389 253.304 204.066ZM237.191 196.368L243.721 192.337C242.963 191.048 242.583 189.544 242.583 188.002C242.583 187.168 242.711 186.321 242.963 185.487C243.469 183.604 244.732 182.062 246.248 181.013L241.957 174.639C239.024 176.63 236.721 179.591 235.593 183.234C234.177 187.813 234.899 192.551 237.191 196.368Z" fill="white"/>
<path fill-rule="evenodd" clip-rule="evenodd" d="M24.8435 -84.0117H24.8756L137.204 23.6476C136.193 24.8861 135.435 26.3521 134.93 27.9949C134.551 29.2461 134.298 30.5099 134.298 31.761C134.298 35.6029 136.067 39.2553 139.099 41.6565L128.738 57.3399C128.99 57.58 129.369 57.8328 129.748 58.0603L140.11 42.4022C141.12 43.0341 142.131 43.5522 143.269 43.9187C146.806 44.9929 150.344 44.4872 153.377 42.8191L163.834 58.3696C163.47 58.6001 163.101 58.823 162.728 59.0376L163.369 60.1516C164.78 59.3387 166.141 58.4131 167.416 57.3992L166.617 56.3942C166.049 56.8451 165.464 57.2779 164.864 57.6904L154.388 42.1239C156.662 40.5695 158.304 38.3073 159.189 35.527C159.568 34.2759 159.821 32.9995 159.821 31.761C159.821 26.3267 156.283 21.2971 150.85 19.6036C146.175 18.1755 141.374 19.5151 138.088 22.6998L124.568 9.72076C124.442 9.82819 124.347 9.93562 124.252 10.0431C124.158 10.1505 124.063 10.2579 123.936 10.3653L123.93 10.3592C124.988 9.22063 126.142 8.14987 127.363 7.17537L126.561 6.17186C125.542 6.98584 124.566 7.86428 123.651 8.79276L26.7689 -84.0137H26.6998L3.75047 -106L2.86137 -105.072L24.8435 -84.0117ZM150.597 31.761C150.597 31.2302 150.471 30.7121 150.218 30.2192C149.498 28.8922 148.025 28.2352 146.616 28.5001C148.002 28.2506 149.449 28.9086 150.14 30.2209C150.4 30.7142 150.524 31.2437 150.524 31.7659C150.524 32.9585 149.879 34.1111 148.751 34.706C148.434 34.8734 148.102 34.9842 147.766 35.0419C148.128 34.9869 148.486 34.872 148.829 34.693C149.966 34.0991 150.597 32.949 150.597 31.761Z" fill="white"/>
<path d="M178.144 36.3914C178.373 34.8621 178.49 33.303 178.49 31.7581L179.774 31.7017V31.7581C179.774 33.3668 179.653 34.9896 179.415 36.5828L178.144 36.3914Z" fill="white"/>
<path d="M177.068 22.4335L178.295 22.0515C178.779 23.6083 179.151 25.2141 179.397 26.8214L178.127 27.0149C177.89 25.4715 177.534 23.9302 177.068 22.4335Z" fill="white"/>
<path d="M175.355 45.4542C176.029 44.0524 176.608 42.5801 177.073 41.0775L177.103 40.9803L178.332 41.3541L178.299 41.4609C177.817 43.0207 177.214 44.553 176.512 46.0112L175.355 45.4542Z" fill="white"/>
<path d="M172.982 13.9901L174.043 13.2654C174.962 14.6101 175.787 16.0349 176.496 17.4997L175.339 18.059C174.658 16.652 173.866 15.2828 172.982 13.9901Z" fill="white"/>
<path d="M170.069 53.2005C171.136 52.0538 172.124 50.8181 173.005 49.5269L174.066 50.2507C173.148 51.5954 172.12 52.8823 171.009 54.0757L170.069 53.2005Z" fill="white"/>
<path d="M166.597 7.12048L167.397 6.11474C168.67 7.1279 169.879 8.24712 170.988 9.44051L170.047 10.3157C168.982 9.1683 167.82 8.09284 166.597 7.12048Z" fill="white"/>
<path d="M158.466 2.45003L158.933 1.25219C160.453 1.8448 161.938 2.55535 163.347 3.36454L162.707 4.47857C161.354 3.70201 159.927 3.01891 158.466 2.45003Z" fill="white"/>
<path d="M153.999 62.4642C155.521 62.1164 157.032 61.6491 158.491 61.0765L158.96 62.2729C157.442 62.8692 155.869 63.355 154.285 63.7169L153.999 62.4642Z" fill="white"/>
<path d="M149.319 0.369576L149.415 -0.912071C151.034 -0.791176 152.661 -0.546417 154.255 -0.184464L153.97 1.06899C152.439 0.720406 150.874 0.485283 149.319 0.369576Z" fill="white"/>
<path d="M144.552 64.4438L144.65 63.1629C145.435 63.2222 146.233 63.2534 147.02 63.2534C147.797 63.2527 148.581 63.2222 149.35 63.1651L149.446 64.4475C148.645 64.5069 147.829 64.5373 147.021 64.538C146.2 64.538 145.37 64.5061 144.552 64.4438Z" fill="white"/>
<path d="M139.683 -0.168152C141.269 -0.533798 142.897 -0.783012 144.52 -0.906876L144.618 0.373291C143.06 0.493439 141.496 0.732269 139.972 1.08309L139.683 -0.168152Z" fill="white"/>
<path d="M135.039 62.2655L135.507 61.0684C136.224 61.3487 136.963 61.6076 137.703 61.8367C138.456 62.0704 139.229 62.2788 140.001 62.4553L139.714 63.7088C138.91 63.5241 138.105 63.3075 137.322 63.0643C136.552 62.8254 135.784 62.5569 135.039 62.2655Z" fill="white"/>
<path d="M130.604 3.41275C132.015 2.59615 133.497 1.88115 135.01 1.28408L135.481 2.47896C134.027 3.05303 132.603 3.74059 131.247 4.5253L130.604 3.41275Z" fill="white"/>
<path d="M119.948 50.2285L121.009 49.5038C121.892 50.8003 122.879 52.0375 123.939 53.1841L122.997 54.0571C121.893 52.8652 120.867 51.5761 119.948 50.2285Z" fill="white"/>
<path d="M117.485 17.5732C118.19 16.1017 119.011 14.6746 119.925 13.3292L120.987 14.0524C120.109 15.3437 119.321 16.715 118.644 18.128L117.485 17.5732Z" fill="white"/>
<path d="M115.711 41.4364L116.937 41.056C117.4 42.5482 117.979 44.0213 118.659 45.4319L117.502 45.9897C116.795 44.5219 116.191 42.9895 115.711 41.4364Z" fill="white"/>
<path d="M114.613 26.903C114.857 25.2957 115.224 23.6907 115.703 22.1316L116.932 22.5099C116.47 24.0081 116.117 25.5508 115.883 27.0958L114.613 26.903Z" fill="white"/>
<path d="M114.246 31.784H115.531C115.531 33.3483 115.651 34.9251 115.885 36.4723L114.614 36.6651C114.37 35.0549 114.246 33.4128 114.246 31.784Z" fill="white"/>
</g>
<defs>
<clipPath id="clip0_1156_11086">
<path d="M0 3C0 1.34314 1.34315 0 3 0H315C316.657 0 318 1.34315 318 3V240H0V3Z" fill="white"/>
</clipPath>
</defs>
</svg>
