<svg width="318" height="240" viewBox="0 0 318 240" fill="none" xmlns="http://www.w3.org/2000/svg">
<path d="M0 3C0 1.34314 1.34315 0 3 0H315C316.657 0 318 1.34315 318 3V240H0V3Z" fill="#8E8D8D"/>
<path d="M129.568 222.373H122.564C121.439 222.373 120.527 221.463 120.527 220.34V185.355L119.696 183.697V162.271C119.696 160.335 120.46 158.478 121.824 157.1C125.078 153.813 131.021 147.812 132.018 146.818C132.285 146.552 132.551 146.445 132.807 146.445C133.884 146.445 134.787 148.337 134.787 148.337C134.787 148.337 144.988 174.508 146.686 178.702L146.935 183.837L144.202 194.057L132.052 220.776C131.61 221.749 130.638 222.373 129.568 222.373Z" fill="white"/>
<path d="M130.804 220.211L130.298 219.982L142.395 193.378L145.772 181.316L133.021 149.106C132.966 149 132.89 148.874 132.807 148.75C130.886 150.681 125.592 156.027 123.194 158.451C122.18 159.474 121.622 160.831 121.622 162.271V183.243L122.333 184.663L129.91 183.537C131.269 183.335 132.294 182.148 132.294 180.777V153.749C132.294 153.493 132.471 153.28 132.724 153.233C132.759 153.227 132.793 153.223 132.827 153.223C133.039 153.223 133.232 153.352 133.312 153.56L144.184 181.526L143.666 181.726L132.794 153.76L132.849 180.777C132.849 182.42 131.621 183.842 129.991 184.085L122.017 185.27L121.067 183.375V162.271C121.067 160.684 121.682 159.189 122.799 158.061C125.301 155.532 130.955 149.824 132.643 148.129L132.863 147.908L133.057 148.152C133.229 148.367 133.405 148.639 133.526 148.879L146.357 181.286L146.332 181.376L142.915 193.567L130.804 220.211Z" fill="white"/>
<path d="M196.436 221.679H189.432C188.637 221.679 187.91 221.212 187.582 220.489L175.457 193.826L172.71 183.148L172.895 178.96L184.851 148.615C185.135 148.036 185.735 147.213 186.15 147.142C186.161 147.141 186.175 147.139 186.191 147.139C186.249 147.139 186.344 147.162 186.491 147.308C187.415 148.23 192.542 153.407 196.682 157.588C197.924 158.843 198.608 160.506 198.608 162.271V183.534L197.778 185.191V220.341C197.778 221.078 197.176 221.679 196.436 221.679Z" fill="white"/>
<path d="M120.392 183.534L121.222 185.191V220.341C121.222 221.078 121.824 221.679 122.564 221.679H129.568C130.363 221.679 131.09 221.212 131.418 220.489L143.543 193.826L146.234 183.421L145.896 178.766L134.149 148.614C133.865 148.034 133.265 147.213 132.85 147.142C132.805 147.136 132.701 147.117 132.51 147.308C131.476 148.34 125.059 154.821 122.318 157.588C121.076 158.843 120.392 160.506 120.392 162.271V183.534ZM129.568 223.067H122.564C121.057 223.067 119.831 221.844 119.831 220.341V185.519L119 183.861V162.271C119 160.139 119.827 158.129 121.329 156.612C124.069 153.844 130.489 147.361 131.526 146.327C132.105 145.748 132.694 145.707 133.086 145.774C134.38 145.996 135.253 147.699 135.415 148.038L135.435 148.085L147.268 178.458L147.638 183.547L144.835 194.344L132.686 221.063C132.132 222.28 130.908 223.067 129.568 223.067Z" fill="white"/>
<path d="M175.457 193.826L187.582 220.489C187.91 221.212 188.637 221.679 189.432 221.679H196.436C197.176 221.679 197.778 221.078 197.778 220.341V185.191L198.608 183.534V162.271C198.608 160.506 197.924 158.843 196.682 157.588C192.542 153.407 187.415 148.23 186.491 147.308C186.3 147.118 186.196 147.136 186.15 147.142C185.735 147.213 185.135 148.036 184.851 148.615L172.895 178.96L172.71 183.148L175.457 193.826ZM196.436 223.067H189.432C188.093 223.067 186.868 222.28 186.314 221.063L174.125 194.23L171.31 183.294L171.514 178.667L183.585 148.038C183.747 147.699 184.62 145.997 185.914 145.774C186.307 145.709 186.895 145.748 187.474 146.327C188.401 147.251 193.531 152.43 197.671 156.612C199.173 158.129 200 160.138 200 162.271V183.862L199.169 185.519V220.341C199.169 221.844 197.943 223.067 196.436 223.067Z" fill="white"/>
<path d="M188.196 220.211L176.099 193.607L172.772 181.745L172.811 180.863L185.463 148.902C185.596 148.639 185.771 148.368 185.943 148.152L186.136 147.908L186.357 148.129C188.045 149.824 193.699 155.532 196.202 158.061C197.319 159.19 197.933 160.685 197.933 162.271V183.375L196.984 185.27L189.009 184.085C187.379 183.842 186.151 182.42 186.151 180.777V153.749L175.335 181.726L174.817 181.526L185.689 153.56C185.768 153.354 185.954 153.222 186.168 153.222C186.204 153.222 186.24 153.226 186.277 153.233C186.529 153.28 186.706 153.493 186.706 153.749V180.777C186.706 182.148 187.732 183.335 189.09 183.537L196.667 184.663L197.379 183.243V162.271C197.379 160.831 196.82 159.475 195.807 158.451C193.408 156.027 188.115 150.682 186.193 148.751C186.109 148.878 186.03 149.011 185.969 149.13L173.229 181.316L176.619 193.418L188.703 219.982L188.196 220.211Z" fill="white"/>
<path d="M172.772 181.745L172.643 181.286L172.678 181.199L172.811 180.863L172.772 181.745Z" fill="white"/>
<path d="M127.23 113.911C126.083 98.3105 126.786 82.6816 129.245 68.0799L128.194 67.9422C125.726 82.6168 125.021 98.3186 126.173 113.988C126.443 117.656 126.78 121.159 127.17 124.509L128.253 124.645C127.852 121.232 127.505 117.659 127.23 113.911Z" fill="white"/>
<path d="M191.643 113.911C191.368 117.653 191.022 121.222 190.621 124.63L191.705 124.494C192.094 121.149 192.431 117.651 192.7 113.989C193.852 98.3134 193.146 82.6064 190.677 67.9278L189.626 68.0654C192.087 82.6718 192.79 98.3064 191.643 113.911Z" fill="white"/>
<path d="M132.19 68.4651C131.45 68.3812 130.412 68.2326 130.412 68.2326C127.963 82.7539 127.263 98.3024 128.404 113.825C128.686 117.662 129.043 121.313 129.457 124.796L131.429 125.045C131.429 125.045 126.759 100.05 132.19 68.4651Z" fill="white"/>
<path d="M183.282 53.5637L185.227 53.3093C181.503 39.479 176.302 28.2993 170.417 21.5657C167.948 18.7423 165.438 16.8147 162.957 15.8356C162 15.4996 160.756 15.1971 159.538 15.1971C157.602 15.1971 156.313 15.6789 155.868 15.8553C153.402 16.8396 150.908 18.7608 148.457 21.5657C142.568 28.3016 137.365 39.4871 133.642 53.3231L135.37 53.5082C135.37 53.5082 145.522 17.0958 159.466 17.0958C173.409 17.0958 183.282 53.5637 183.282 53.5637Z" fill="white"/>
<path d="M187.47 125.027L189.418 124.782C189.831 121.303 190.187 117.656 190.469 113.825C191.61 98.2977 190.909 82.744 188.458 68.2181C188.458 68.2181 187.023 68.4026 186.642 68.4558C191.786 100.69 187.47 125.027 187.47 125.027Z" fill="white"/>
<path d="M147.569 20.7937C150.153 17.8378 152.806 15.8061 155.456 14.7541C155.456 14.7541 159.14 13.284 163.369 14.7356C166.048 15.7916 168.711 17.8274 171.304 20.7937C177.325 27.6828 182.63 39.084 186.404 53.1548L187.463 53.016C183.646 38.7289 178.246 27.1281 172.102 20.0991C169.378 16.983 166.619 14.7593 163.751 13.749C158.97 12.0649 155.122 13.749 155.122 13.749C152.291 14.8588 149.494 16.983 146.771 20.0991C140.624 27.1304 135.224 38.7364 131.406 53.0305L132.465 53.1693C136.239 39.0921 141.545 27.6851 147.569 20.7937Z" fill="white"/>
<path d="M159.477 176.217C152.328 176.217 147.346 177.701 147.346 179.034C147.346 179.094 147.359 179.16 147.385 179.231L147.412 179.303L147.394 179.378L147.375 179.512C147.375 179.574 147.388 179.64 147.414 179.713L147.44 179.784L147.423 179.857L147.405 179.99C147.405 180.054 147.418 180.121 147.443 180.197L147.466 180.263L147.451 180.332L147.435 180.469C147.435 180.533 147.447 180.601 147.473 180.68L147.494 180.744L147.48 180.81L147.465 180.947C147.465 181.012 147.477 181.083 147.502 181.164L147.52 181.224L147.508 181.286L147.494 181.426C147.494 181.492 147.506 181.564 147.53 181.644L147.548 181.703L147.537 181.764L147.523 181.905C147.523 181.97 147.535 182.043 147.56 182.128L147.575 182.183L147.566 182.24L147.553 182.383C147.553 182.451 147.566 182.526 147.589 182.611L147.604 182.665L147.595 182.72L147.583 182.862C147.583 182.931 147.595 183.008 147.618 183.095L147.633 183.148L147.625 183.202L147.613 183.34C147.613 183.412 147.625 183.491 147.648 183.58L147.662 183.63L147.654 183.682L147.642 183.819C147.642 183.892 147.654 183.972 147.677 184.064L147.69 184.111L147.684 184.16L147.672 184.297C147.672 184.373 147.684 184.455 147.708 184.547L147.719 184.595L147.713 184.643L147.702 184.776C147.702 184.852 147.713 184.936 147.737 185.031L147.748 185.075L147.742 185.121L147.731 185.254C147.731 185.332 147.742 185.416 147.766 185.517L147.776 185.559L147.771 185.602L147.761 185.733C147.761 185.813 147.773 185.901 147.796 186L147.806 186.042L147.801 186.085L147.791 186.211C147.791 186.292 147.802 186.378 147.825 186.485L147.834 186.523L147.83 186.562C147.825 186.622 147.821 186.656 147.821 186.69C147.821 186.772 147.832 186.863 147.855 186.968L147.863 187.006L147.859 187.045C147.854 187.104 147.85 187.136 147.85 187.168C147.85 187.252 147.861 187.344 147.884 187.451L147.893 187.49L147.888 187.529C147.883 187.585 147.88 187.616 147.88 187.647C147.88 187.732 147.89 187.824 147.913 187.936L147.921 187.97L147.918 188.006C147.912 188.075 147.909 188.1 147.909 188.126C147.909 188.224 147.923 188.322 147.943 188.419L147.951 188.453L147.948 188.489C147.942 188.556 147.939 188.58 147.939 188.604C147.939 188.704 147.953 188.803 147.973 188.902L147.98 188.937L147.977 188.972C147.972 189.032 147.969 189.057 147.969 189.083C147.969 191.438 153.239 193.429 159.477 193.429C165.715 193.429 170.986 191.438 170.986 189.083L170.978 188.981L170.982 188.903C171.001 188.804 171.015 188.705 171.015 188.604L171.01 188.532L171.007 188.494L171.011 188.419C171.031 188.322 171.045 188.224 171.045 188.126L171.039 188.035L171.036 187.998L171.041 187.936C171.064 187.824 171.075 187.732 171.075 187.647L171.069 187.561L171.066 187.524L171.07 187.453C171.094 187.342 171.104 187.252 171.104 187.168L171.097 187.071L171.094 187.031L171.099 186.967C171.123 186.863 171.134 186.773 171.134 186.69L171.126 186.58L171.121 186.539L171.13 186.484C171.152 186.382 171.164 186.293 171.164 186.211L171.154 186.086L171.149 186.044L171.159 186C171.182 185.899 171.193 185.812 171.193 185.733L171.185 185.616L171.179 185.572L171.189 185.517C171.212 185.416 171.223 185.332 171.223 185.254L171.212 185.123L171.207 185.077L171.217 185.031C171.241 184.936 171.253 184.852 171.253 184.776L171.241 184.641L171.236 184.594L171.247 184.549C171.27 184.453 171.283 184.37 171.283 184.297L171.271 184.163L171.264 184.113L171.277 184.064C171.3 183.972 171.312 183.892 171.312 183.819L171.3 183.682L171.292 183.63L171.306 183.58C171.33 183.489 171.342 183.41 171.342 183.34L171.33 183.202L171.321 183.148L171.336 183.097C171.36 183.008 171.371 182.93 171.371 182.862L171.359 182.72L171.35 182.665L171.365 182.611C171.389 182.526 171.401 182.451 171.401 182.383L171.388 182.242L171.379 182.184L171.395 182.128C171.419 182.043 171.431 181.97 171.431 181.905L171.417 181.764L171.407 181.703L171.424 181.644C171.448 181.564 171.46 181.492 171.46 181.426L171.446 181.286L171.433 181.224L171.453 181.163C171.478 181.083 171.49 181.013 171.49 180.947L171.475 180.81L171.461 180.744L171.481 180.68C171.507 180.601 171.52 180.533 171.52 180.469L171.504 180.332L171.488 180.263L171.511 180.197C171.537 180.121 171.549 180.054 171.549 179.99L171.531 179.854L171.516 179.783L171.54 179.714C171.566 179.64 171.579 179.574 171.579 179.512L171.56 179.378L171.542 179.303L171.57 179.23C171.596 179.161 171.608 179.095 171.608 179.034C171.608 177.701 166.626 176.217 159.477 176.217ZM159.477 193.938C152.737 193.938 147.458 191.806 147.458 189.083L147.465 188.962C147.443 188.857 147.428 188.727 147.428 188.604L147.435 188.486C147.413 188.377 147.399 188.248 147.399 188.126L147.406 188.005C147.383 187.892 147.369 187.768 147.369 187.647L147.378 187.503C147.355 187.415 147.34 187.288 147.34 187.168L147.348 187.023C147.325 186.935 147.31 186.809 147.31 186.69L147.319 186.542C147.295 186.45 147.28 186.329 147.28 186.211L147.288 186.071C147.263 185.951 147.251 185.839 147.251 185.733L147.258 185.59C147.233 185.469 147.221 185.359 147.221 185.254L147.23 185.107C147.204 184.989 147.191 184.88 147.191 184.776L147.2 184.624C147.174 184.509 147.162 184.401 147.162 184.297L147.171 184.143C147.144 184.027 147.132 183.921 147.132 183.819C147.132 183.766 147.135 183.712 147.141 183.66C147.115 183.547 147.102 183.442 147.102 183.34C147.102 183.285 147.106 183.232 147.112 183.177C147.086 183.066 147.072 182.962 147.072 182.862C147.072 182.805 147.076 182.751 147.083 182.694C147.056 182.584 147.043 182.482 147.043 182.383C147.043 182.326 147.046 182.27 147.054 182.213C147.026 182.104 147.013 182.003 147.013 181.905C147.013 181.847 147.017 181.79 147.025 181.733C146.997 181.626 146.984 181.524 146.984 181.426C146.984 181.368 146.988 181.31 146.996 181.253C146.967 181.146 146.954 181.045 146.954 180.947C146.954 180.89 146.959 180.832 146.967 180.773C146.938 180.667 146.924 180.567 146.924 180.469C146.924 180.413 146.929 180.355 146.939 180.294C146.909 180.189 146.894 180.09 146.894 179.99C146.894 179.933 146.9 179.875 146.91 179.814C146.879 179.711 146.865 179.611 146.865 179.512C146.865 179.455 146.869 179.397 146.881 179.334C146.85 179.232 146.835 179.131 146.835 179.034C146.835 176.873 153.348 175.708 159.477 175.708C165.606 175.708 172.119 176.873 172.119 179.034C172.119 179.132 172.104 179.233 172.073 179.334C172.085 179.397 172.09 179.455 172.09 179.512C172.09 179.611 172.075 179.71 172.044 179.814C172.055 179.876 172.059 179.934 172.059 179.99C172.059 180.09 172.046 180.189 172.015 180.294C172.026 180.355 172.03 180.413 172.03 180.469C172.03 180.567 172.016 180.667 171.987 180.773C171.996 180.833 172.001 180.891 172.001 180.947C172.001 181.046 171.987 181.147 171.959 181.254C171.967 181.31 171.971 181.368 171.971 181.426C171.971 181.524 171.957 181.626 171.93 181.733C171.938 181.79 171.941 181.847 171.941 181.905C171.941 182.003 171.928 182.103 171.901 182.213C171.908 182.269 171.912 182.326 171.912 182.383C171.912 182.482 171.898 182.584 171.872 182.694C171.879 182.751 171.882 182.805 171.882 182.862C171.882 182.961 171.869 183.065 171.843 183.177C171.849 183.231 171.852 183.285 171.852 183.34C171.852 183.44 171.84 183.546 171.813 183.66C171.819 183.712 171.822 183.766 171.822 183.819C171.822 183.921 171.81 184.027 171.783 184.141L171.793 184.297C171.793 184.399 171.781 184.507 171.754 184.624L171.763 184.776C171.763 184.88 171.75 184.989 171.724 185.106L171.734 185.254C171.734 185.358 171.721 185.469 171.696 185.59L171.704 185.733C171.704 185.839 171.692 185.95 171.666 186.072L171.674 186.211C171.674 186.319 171.662 186.431 171.637 186.554L171.645 186.69C171.645 186.799 171.633 186.912 171.607 187.037C171.612 187.09 171.615 187.129 171.615 187.168C171.615 187.278 171.603 187.389 171.578 187.519C171.583 187.573 171.585 187.61 171.585 187.647C171.585 187.757 171.574 187.87 171.549 188.001L171.555 188.126C171.555 188.237 171.543 188.354 171.519 188.484C171.524 188.537 171.526 188.57 171.526 188.604C171.526 188.726 171.512 188.846 171.49 188.966C171.495 189.02 171.497 189.051 171.497 189.083C171.497 191.806 166.217 193.938 159.477 193.938Z" fill="white"/>
<path d="M148.921 179.577L149.267 191.358C150.195 191.88 151.386 192.314 152.753 192.634L152.551 180.149L148.921 179.577Z" fill="white"/>
<path d="M147.37 178.772C151.055 179.581 155.247 180.009 159.501 180.009C163.695 180.009 167.835 179.592 171.484 178.804C175.659 171.735 185.504 151.434 188.281 113.665C191.323 72.2849 180.764 36.7354 168.763 23.0046C165.647 19.4409 162.472 17.4607 159.579 17.278L159.38 17.2658L159.293 17.278C156.401 17.4607 153.225 19.4409 150.11 23.0046C138.108 36.7354 127.55 72.2849 130.592 113.665C133.366 151.403 143.199 171.702 147.37 178.772ZM159.501 180.563C155.161 180.563 150.884 180.121 147.131 179.286L147.014 179.26L146.953 179.157C142.799 172.15 132.835 151.744 130.038 113.706C126.985 72.1739 137.614 36.4572 149.692 22.6409C152.815 19.0679 156.026 17.0351 158.998 16.7465V16.7187L159.281 16.7037L159.387 16.7101L159.448 16.7141L159.485 16.7101L159.592 16.7037L159.874 16.6973V16.7465C162.846 17.0351 166.057 19.0679 169.181 22.6409C181.259 36.4572 191.888 72.1739 188.834 113.706C186.035 151.78 176.06 172.184 171.9 179.19L171.839 179.293L171.721 179.319C168.005 180.132 163.779 180.563 159.501 180.563Z" fill="white"/>
<path d="M143.275 30.8491L142.969 30.6993C144.481 27.6365 151.455 25.4134 159.55 25.4134C167.209 25.4134 173.918 27.4022 175.867 30.2505L175.586 30.4425C173.697 27.6816 167.102 25.7534 159.55 25.7534C151.577 25.7534 144.733 27.8967 143.275 30.8491Z" fill="white"/>
<path d="M159.424 69.5077C148.325 69.5077 138.604 67.8589 133.206 65.3883C133.187 65.3565 133.168 65.3241 133.15 65.2923C134.619 57.4998 136.542 50.3915 138.769 44.1629C141.635 44.8147 152.828 45.474 159.439 45.474C165.704 45.474 177.668 44.7846 180.068 44.0646C182.307 50.3088 184.241 57.4379 185.717 65.2599C185.693 65.3027 185.668 65.3455 185.642 65.3883C180.245 67.8589 170.523 69.5077 159.424 69.5077ZM132.777 64.3184C132.745 64.1501 132.728 63.9806 132.728 63.81C132.728 63.2756 132.887 62.7528 133.191 62.2462L133.205 62.1942C133.059 62.8957 132.916 63.6053 132.777 64.3184ZM186.082 64.2536C185.95 63.5712 185.813 62.8934 185.674 62.2219L186.121 63.81C186.121 63.9586 186.107 64.1067 186.082 64.2536Z" fill="white"/>
<path d="M133.15 65.2923C132.969 64.9736 132.842 64.6486 132.777 64.3184C132.916 63.6053 133.059 62.8957 133.205 62.1942L138.288 44.0235C138.403 44.0698 138.565 44.116 138.769 44.1629C136.542 50.3915 134.619 57.4998 133.15 65.2923ZM185.717 65.2599C184.241 57.4379 182.307 50.3088 180.068 44.0646C180.344 43.9819 180.493 43.8986 180.493 43.8165L185.674 62.2219C185.813 62.8934 185.95 63.5712 186.082 64.2536C186.024 64.5948 185.9 64.9302 185.717 65.2599Z" fill="white"/>
<path d="M159.424 95.8208C147.55 95.8208 136.393 94.6792 128.813 92.688L128.919 92.2872C136.466 94.2697 147.585 95.4061 159.424 95.4061C171.109 95.4061 182.134 94.2934 189.67 92.3542L189.774 92.755C182.205 94.7034 171.143 95.8208 159.424 95.8208Z" fill="white"/>
<path d="M159.404 143.044C149.394 143.044 139.988 141.901 133.599 139.908L133.712 139.546C140.067 141.526 149.431 142.663 159.404 142.663C169.246 142.663 178.531 141.551 184.877 139.613L184.989 139.976C178.607 141.925 169.282 143.044 159.404 143.044Z" fill="white"/>
<path d="M161.837 227V226.586H157.164C156.16 226.584 155.348 225.774 155.347 224.773V158.644C155.348 157.643 156.16 156.834 157.164 156.832H161.837C162.84 156.834 163.652 157.643 163.653 158.644V224.773C163.652 225.774 162.84 226.584 161.837 226.586V227C163.07 227 164.069 226.003 164.069 224.773V158.644C164.069 157.414 163.07 156.417 161.837 156.417H157.164C155.931 156.417 154.932 157.414 154.932 158.644V224.773C154.932 226.003 155.931 227 157.164 227H161.837Z" fill="white"/>
<path d="M155.347 224.773V158.644C155.348 157.643 156.16 156.834 157.164 156.832H161.837C162.84 156.834 163.652 157.643 163.653 158.644V224.773C163.652 225.766 162.853 226.571 161.86 226.586L161.837 226.586H157.164C156.16 226.584 155.348 225.774 155.347 224.773Z" fill="white"/>
<path d="M159.477 193.938C158.019 193.938 156.629 193.839 155.346 193.655V193.128C156.636 193.322 158.031 193.429 159.477 193.429C160.941 193.429 162.352 193.32 163.653 193.121V193.648C162.358 193.837 160.953 193.938 159.477 193.938ZM163.653 176.397C162.373 176.282 160.973 176.217 159.477 176.217C158 176.217 156.614 176.281 155.346 176.393V175.884C156.69 175.767 158.094 175.708 159.477 175.708C160.876 175.708 162.296 175.768 163.653 175.888V176.397Z" fill="white"/>
<path d="M159.501 180.563C158.105 180.563 156.715 180.517 155.346 180.427V179.872C156.714 179.963 158.104 180.009 159.501 180.009C160.896 180.009 162.286 179.963 163.653 179.872V180.427C162.286 180.516 160.896 180.563 159.501 180.563Z" fill="white"/>
<path d="M161.837 226.793L161.837 226.586C162.84 226.584 163.652 225.774 163.653 224.773V158.644C163.652 157.643 162.84 156.834 161.837 156.832H157.164C156.16 156.834 155.348 157.643 155.347 158.644V224.773C155.348 225.774 156.16 226.584 157.164 226.586H161.837L161.837 226.793H157.164C156.046 226.793 155.139 225.889 155.139 224.773V158.644C155.139 157.529 156.046 156.624 157.164 156.624H161.837C162.955 156.624 163.861 157.529 163.861 158.644V224.773C163.861 225.889 162.955 226.793 161.837 226.793Z" fill="white"/>
<path d="M163.681 190.811H155.277V191.225H163.681V190.811Z" fill="white"/>
<path d="M159.594 138.058C155.374 138.058 151.94 134.631 151.94 130.421C151.94 126.21 155.374 122.784 159.594 122.784C163.814 122.784 167.248 126.21 167.248 130.421C167.248 134.631 163.814 138.058 159.594 138.058ZM159.594 123.325C155.672 123.325 152.482 126.508 152.482 130.421C152.482 134.333 155.672 137.516 159.594 137.516C163.516 137.516 166.706 134.333 166.706 130.421C166.706 126.508 163.516 123.325 159.594 123.325Z" fill="white"/>
<path d="M159.594 127.305C157.872 127.305 156.471 128.703 156.471 130.421C156.471 132.139 157.872 133.537 159.594 133.537C161.316 133.537 162.717 132.139 162.717 130.421C162.717 128.703 161.316 127.305 159.594 127.305ZM159.594 134.925C157.105 134.925 155.079 132.904 155.079 130.421C155.079 127.937 157.105 125.917 159.594 125.917C162.084 125.917 164.109 127.937 164.109 130.421C164.109 132.904 162.084 134.925 159.594 134.925Z" fill="white"/>
<path d="M159.594 116.817C155.374 116.817 151.94 113.391 151.94 109.18C151.94 104.97 155.374 101.544 159.594 101.544C163.814 101.544 167.248 104.97 167.248 109.18C167.248 113.391 163.814 116.817 159.594 116.817ZM159.594 102.085C155.672 102.085 152.482 105.268 152.482 109.18C152.482 113.093 155.672 116.276 159.594 116.276C163.516 116.276 166.706 113.093 166.706 109.18C166.706 105.268 163.516 102.085 159.594 102.085Z" fill="white"/>
<path d="M159.594 106.064C157.872 106.064 156.471 107.462 156.471 109.181C156.471 110.898 157.872 112.296 159.594 112.296C161.316 112.296 162.717 110.898 162.717 109.181C162.717 107.462 161.316 106.064 159.594 106.064ZM159.594 113.685C157.105 113.685 155.079 111.664 155.079 109.181C155.079 106.697 157.105 104.676 159.594 104.676C162.084 104.676 164.109 106.697 164.109 109.181C164.109 111.664 162.084 113.685 159.594 113.685Z" fill="white"/>
<path d="M159.594 90.2578C155.374 90.2578 151.94 86.8318 151.94 82.6209C151.94 78.4101 155.374 74.984 159.594 74.984C163.814 74.984 167.248 78.4101 167.248 82.6209C167.248 86.8318 163.814 90.2578 159.594 90.2578ZM159.594 75.5253C155.672 75.5253 152.482 78.7085 152.482 82.6209C152.482 86.5333 155.672 89.7165 159.594 89.7165C163.516 89.7165 166.706 86.5333 166.706 82.6209C166.706 78.7085 163.516 75.5253 159.594 75.5253Z" fill="white"/>
<path d="M159.594 79.5048C157.872 79.5048 156.471 80.9027 156.471 82.6209C156.471 84.3391 157.872 85.7369 159.594 85.7369C161.316 85.7369 162.717 84.3391 162.717 82.6209C162.717 80.9027 161.316 79.5048 159.594 79.5048ZM159.594 87.1249C157.105 87.1249 155.079 85.1043 155.079 82.6209C155.079 80.1375 157.105 78.1168 159.594 78.1168C162.084 78.1168 164.109 80.1375 164.109 82.6209C164.109 85.1043 162.084 87.1249 159.594 87.1249Z" fill="white"/>
<path d="M176.157 66.4733C178.241 79.1712 178.552 92.2525 177.072 105.35C179.23 101.69 181.255 98.0317 183.147 94.3819C183.92 105.728 183.33 117.162 181.366 128.439C185.149 112.994 186.372 97.255 185.066 81.8482C183.613 85.1702 182.048 88.5066 180.371 91.8517C179.74 83.2958 178.333 74.8013 176.157 66.4733Z" fill="white"/>
</svg>
