<svg width="318" height="240" viewBox="0 0 318 240" fill="none" xmlns="http://www.w3.org/2000/svg">
<g clip-path="url(#clip0_1156_11070)">
<path d="M0 3C0 1.34314 1.34315 0 3 0H315C316.657 0 318 1.34315 318 3V240H0V3Z" fill="#005B87"/>
<path d="M173.17 -13.882C173.17 -19.2367 170.89 -21.5171 165.538 -21.5171C170.89 -21.5171 173.17 -23.7983 173.17 -29.1522C173.17 -23.7983 175.45 -21.5171 180.803 -21.5171C175.45 -21.5171 173.17 -19.2367 173.17 -13.882Z" fill="white"/>
<path d="M203.797 -23.4504C203.797 -28.3305 201.72 -30.4087 196.841 -30.4087C201.72 -30.4087 203.797 -32.4876 203.797 -37.3677C203.797 -32.4876 205.875 -30.4087 210.754 -30.4087C205.875 -30.4087 203.797 -28.3305 203.797 -23.4504Z" fill="white"/>
<path d="M188.146 13.9519C188.146 9.07259 186.068 6.99363 181.189 6.99363C186.068 6.99363 188.146 4.91547 188.146 0.0353546C188.146 4.91547 190.223 6.99363 195.102 6.99363C190.223 6.99363 188.146 9.07259 188.146 13.9519Z" fill="white"/>
<path d="M195.681 -0.834961C195.681 -4.29141 194.21 -5.76364 190.754 -5.76364C194.21 -5.76364 195.681 -7.23589 195.681 -10.6931C195.681 -7.23589 197.154 -5.76364 200.609 -5.76364C197.154 -5.76364 195.681 -4.29141 195.681 -0.834961Z" fill="white"/>
<path d="M217.71 -2.57472C217.71 -4.81134 216.758 -5.76364 214.522 -5.76364C216.758 -5.76364 217.71 -6.71673 217.71 -8.95335C217.71 -6.71673 218.663 -5.76364 220.899 -5.76364C218.663 -5.76364 217.71 -4.81134 217.71 -2.57472Z" fill="white"/>
<path d="M233.072 0.832367C233.072 -0.946419 232.315 -1.70444 230.536 -1.70444C232.315 -1.70444 233.072 -2.46245 233.072 -4.24203C233.072 -2.46245 233.83 -1.70444 235.608 -1.70444C233.83 -1.70444 233.072 -0.946419 233.072 0.832367Z" fill="white"/>
<path d="M270.462 20.8385C270.462 19.059 269.705 18.3017 267.927 18.3017C269.705 18.3017 270.462 17.5437 270.462 15.7641C270.462 17.5437 271.22 18.3017 272.999 18.3017C271.22 18.3017 270.462 19.059 270.462 20.8385Z" fill="white"/>
<path d="M271.042 -38.3097C271.042 -40.0893 270.285 -40.8465 268.506 -40.8465C270.285 -40.8465 271.042 -41.6045 271.042 -43.3841C271.042 -41.6045 271.8 -40.8465 273.579 -40.8465C271.8 -40.8465 271.042 -40.0893 271.042 -38.3097Z" fill="white"/>
<path d="M180.32 -64.9843C180.32 -66.7639 179.562 -67.5211 177.784 -67.5211C179.562 -67.5211 180.32 -68.2791 180.32 -70.0587C180.32 -68.2791 181.078 -67.5211 182.856 -67.5211C181.078 -67.5211 180.32 -66.7639 180.32 -64.9843Z" fill="white"/>
<path d="M202.059 -47.2976C202.059 -49.0771 201.301 -49.8352 199.522 -49.8352C201.301 -49.8352 202.059 -50.5932 202.059 -52.372C202.059 -50.5932 202.816 -49.8352 204.595 -49.8352C202.816 -49.8352 202.059 -49.0771 202.059 -47.2976Z" fill="white"/>
<path d="M226.115 -63.8242C226.115 -65.6038 225.358 -66.3618 223.579 -66.3618C225.358 -66.3618 226.115 -67.1198 226.115 -68.8986C226.115 -67.1198 226.873 -66.3618 228.652 -66.3618C226.873 -66.3618 226.115 -65.6038 226.115 -63.8242Z" fill="white"/>
<path d="M149.886 -71.0731C149.886 -72.8527 149.128 -73.6099 147.35 -73.6099C149.128 -73.6099 149.886 -74.3679 149.886 -76.1475C149.886 -74.3679 150.643 -73.6099 152.422 -73.6099C150.643 -73.6099 149.886 -72.8527 149.886 -71.0731Z" fill="white"/>
<path d="M132.205 -40.0494C132.205 -41.8282 131.448 -42.5863 129.669 -42.5863C131.448 -42.5863 132.205 -43.3443 132.205 -45.1238C132.205 -43.3443 132.962 -42.5863 134.741 -42.5863C132.962 -42.5863 132.205 -41.8282 132.205 -40.0494Z" fill="white"/>
<path d="M154.813 45.7733C154.813 43.9946 154.056 43.2366 152.277 43.2366C154.056 43.2366 154.813 42.4785 154.813 40.699C154.813 42.4785 155.57 43.2366 157.35 43.2366C155.57 43.2366 154.813 43.9946 154.813 45.7733Z" fill="white"/>
<path d="M190.754 32.4364C190.754 30.6569 189.997 29.8989 188.218 29.8989C189.997 29.8989 190.754 29.1408 190.754 27.3621C190.754 29.1408 191.512 29.8989 193.29 29.8989C191.512 29.8989 190.754 30.6569 190.754 32.4364Z" fill="white"/>
<path d="M215.971 52.7325C215.971 50.9529 215.214 50.1948 213.435 50.1948C215.214 50.1948 215.971 49.4368 215.971 47.6581C215.971 49.4368 216.729 50.1948 218.508 50.1948C216.729 50.1948 215.971 50.9529 215.971 52.7325Z" fill="white"/>
<path d="M98.5826 31.5662C98.5826 29.7874 97.8248 29.0302 96.0458 29.0302C97.8248 29.0302 98.5826 28.2722 98.5826 26.4918C98.5826 28.2722 99.3403 29.0302 101.119 29.0302C99.3403 29.0302 98.5826 29.7874 98.5826 31.5662Z" fill="white"/>
<path d="M85.5397 -28.1617C85.5397 -29.9413 84.7819 -30.6985 83.0029 -30.6985C84.7819 -30.6985 85.5397 -31.4565 85.5397 -33.2361C85.5397 -31.4565 86.2967 -30.6985 88.0757 -30.6985C86.2967 -30.6985 85.5397 -29.9413 85.5397 -28.1617Z" fill="white"/>
<path d="M113.944 -15.1146C113.944 -16.8934 113.187 -17.6514 111.408 -17.6514C113.187 -17.6514 113.944 -18.4094 113.944 -20.1882C113.944 -18.4094 114.702 -17.6514 116.481 -17.6514C114.702 -17.6514 113.944 -16.8934 113.944 -15.1146Z" fill="white"/>
<path d="M171.189 -49.1098C171.189 -51.3472 170.237 -52.2995 168.001 -52.2995C170.237 -52.2995 171.189 -53.2518 171.189 -55.4892C171.189 -53.2518 172.142 -52.2995 174.378 -52.2995C172.142 -52.2995 171.189 -51.3472 171.189 -49.1098Z" fill="white"/>
<path d="M171.189 30.0438C171.189 27.8072 170.237 26.8549 168.001 26.8549C170.237 26.8549 171.189 25.9018 171.189 23.6651C171.189 25.9018 172.142 26.8549 174.378 26.8549C172.142 26.8549 171.189 27.8072 171.189 30.0438Z" fill="white"/>
<path d="M137.277 30.0438C137.277 27.8072 136.325 26.8549 134.089 26.8549C136.325 26.8549 137.277 25.9018 137.277 23.6651C137.277 25.9018 138.229 26.8549 140.465 26.8549C138.229 26.8549 137.277 27.8072 137.277 30.0438Z" fill="white"/>
<path d="M158.291 5.83352C158.291 6.47449 157.772 6.99363 157.132 6.99363C156.491 6.99363 155.972 6.47449 155.972 5.83352C155.972 5.19334 156.491 4.67419 157.132 4.67419C157.772 4.67419 158.291 5.19334 158.291 5.83352Z" fill="white"/>
<path d="M209.015 8.44357C209.015 9.08375 208.496 9.60288 207.855 9.60288C207.215 9.60288 206.696 9.08375 206.696 8.44357C206.696 7.8026 207.215 7.28346 207.855 7.28346C208.496 7.28346 209.015 7.8026 209.015 8.44357Z" fill="white"/>
<path d="M222.348 11.6325C222.348 12.2734 221.828 12.7926 221.188 12.7926C220.548 12.7926 220.029 12.2734 220.029 11.6325C220.029 10.9923 220.548 10.4732 221.188 10.4732C221.828 10.4732 222.348 10.9923 222.348 11.6325Z" fill="white"/>
<path d="M222.348 11.6325C222.348 12.2734 221.828 12.7926 221.188 12.7926C220.548 12.7926 220.029 12.2734 220.029 11.6325C220.029 10.9923 220.548 10.4732 221.188 10.4732C221.828 10.4732 222.348 10.9923 222.348 11.6325Z" fill="white"/>
<path d="M207.855 69.6214C207.855 70.2616 207.336 70.7807 206.696 70.7807C206.055 70.7807 205.536 70.2616 205.536 69.6214C205.536 68.9804 206.055 68.4613 206.696 68.4613C207.336 68.4613 207.855 68.9804 207.855 69.6214Z" fill="white"/>
<path d="M133.654 88.4674C133.654 89.1076 133.135 89.6267 132.494 89.6267C131.854 89.6267 131.335 89.1076 131.335 88.4674C131.335 87.8264 131.854 87.3073 132.494 87.3073C133.135 87.3073 133.654 87.8264 133.654 88.4674Z" fill="white"/>
<path d="M119.741 54.5439C119.741 55.1848 119.222 55.704 118.582 55.704C117.941 55.704 117.422 55.1848 117.422 54.5439C117.422 53.9037 117.941 53.3846 118.582 53.3846C119.222 53.3846 119.741 53.9037 119.741 54.5439Z" fill="white"/>
<path d="M250.463 -41.4269C250.463 -40.786 249.944 -40.2668 249.304 -40.2668C248.663 -40.2668 248.144 -40.786 248.144 -41.4269C248.144 -42.0671 248.663 -42.5863 249.304 -42.5863C249.944 -42.5863 250.463 -42.0671 250.463 -41.4269Z" fill="white"/>
<path d="M248.144 -16.7819C248.144 -16.1409 247.625 -15.6218 246.985 -15.6218C246.344 -15.6218 245.825 -16.1409 245.825 -16.7819C245.825 -17.4221 246.344 -17.9412 246.985 -17.9412C247.625 -17.9412 248.144 -17.4221 248.144 -16.7819Z" fill="white"/>
<path d="M212.493 23.2304C212.493 23.8706 211.974 24.3905 211.333 24.3905C210.693 24.3905 210.174 23.8706 210.174 23.2304C210.174 22.5902 210.693 22.0703 211.333 22.0703C211.974 22.0703 212.493 22.5902 212.493 23.2304Z" fill="white"/>
<path d="M155.972 24.6803C155.972 25.3205 155.454 25.8397 154.813 25.8397C154.173 25.8397 153.654 25.3205 153.654 24.6803C153.654 24.0394 154.173 23.5202 154.813 23.5202C155.454 23.5202 155.972 24.0394 155.972 24.6803Z" fill="white"/>
<path d="M111.915 -48.0954C111.915 -47.4552 111.396 -46.9353 110.756 -46.9353C110.115 -46.9353 109.596 -47.4552 109.596 -48.0954C109.596 -48.7356 110.115 -49.2555 110.756 -49.2555C111.396 -49.2555 111.915 -48.7356 111.915 -48.0954Z" fill="white"/>
<path d="M108.438 6.12412C108.438 6.76429 107.919 7.28344 107.278 7.28344C106.638 7.28344 106.119 6.76429 106.119 6.12412C106.119 5.48315 106.638 4.96401 107.278 4.96401C107.919 4.96401 108.438 5.48315 108.438 6.12412Z" fill="white"/>
<path d="M171.625 60.6327C171.625 61.2736 171.106 61.7928 170.465 61.7928C169.825 61.7928 169.306 61.2736 169.306 60.6327C169.306 59.9925 169.825 59.4734 170.465 59.4734C171.106 59.4734 171.625 59.9925 171.625 60.6327Z" fill="white"/>
<path d="M189.305 -41.4269C189.305 -40.786 188.786 -40.2668 188.146 -40.2668C187.505 -40.2668 186.986 -40.786 186.986 -41.4269C186.986 -42.0671 187.505 -42.5863 188.146 -42.5863C188.786 -42.5863 189.305 -42.0671 189.305 -41.4269Z" fill="white"/>
<path d="M228.725 39.4672C228.725 40.1074 228.205 40.6273 227.565 40.6273C226.925 40.6273 226.405 40.1074 226.405 39.4672C226.405 38.8262 226.925 38.3071 227.565 38.3071C228.205 38.3071 228.725 38.8262 228.725 39.4672Z" fill="white"/>
<path d="M250.753 2.35475C250.753 2.99493 250.234 3.51406 249.594 3.51406C248.953 3.51406 248.434 2.99493 248.434 2.35475C248.434 1.71378 248.953 1.19464 249.594 1.19464C250.234 1.19464 250.753 1.71378 250.753 2.35475Z" fill="white"/>
<path d="M251.912 29.3192C251.912 29.9602 251.393 30.4793 250.753 30.4793C250.113 30.4793 249.594 29.9602 249.594 29.3192C249.594 28.679 250.113 28.1591 250.753 28.1591C251.393 28.1591 251.912 28.679 251.912 29.3192Z" fill="white"/>
<path d="M202.928 40.3367C202.928 40.9777 202.409 41.4968 201.768 41.4968C201.128 41.4968 200.609 40.9777 200.609 40.3367C200.609 39.6965 201.128 39.1774 201.768 39.1774C202.409 39.1774 202.928 39.6965 202.928 40.3367Z" fill="white"/>
<path d="M175.102 7.57329C175.102 8.21426 174.583 8.7334 173.943 8.7334C173.302 8.7334 172.784 8.21426 172.784 7.57329C172.784 6.93312 173.302 6.41396 173.943 6.41396C174.583 6.41396 175.102 6.93312 175.102 7.57329Z" fill="white"/>
<path d="M130.466 -22.0004C130.466 -21.3603 129.946 -20.8411 129.306 -20.8411C128.666 -20.8411 128.147 -21.3603 128.147 -22.0004C128.147 -22.6414 128.666 -23.1605 129.306 -23.1605C129.946 -23.1605 130.466 -22.6414 130.466 -22.0004Z" fill="white"/>
<path d="M144.668 -41.1371C144.668 -40.4961 144.149 -39.977 143.509 -39.977C142.868 -39.977 142.349 -40.4961 142.349 -41.1371C142.349 -41.7773 142.868 -42.2964 143.509 -42.2964C144.149 -42.2964 144.668 -41.7773 144.668 -41.1371Z" fill="white"/>
<path d="M206.117 -66.6516C206.117 -66.0114 205.597 -65.4915 204.957 -65.4915C204.317 -65.4915 203.797 -66.0114 203.797 -66.6516C203.797 -67.2918 204.317 -67.8117 204.957 -67.8117C205.597 -67.8117 206.117 -67.2918 206.117 -66.6516Z" fill="white"/>
<path d="M224.667 -48.3852C224.667 -47.7451 224.148 -47.2259 223.507 -47.2259C222.867 -47.2259 222.348 -47.7451 222.348 -48.3852C222.348 -49.0262 222.867 -49.5453 223.507 -49.5453C224.148 -49.5453 224.667 -49.0262 224.667 -48.3852Z" fill="white"/>
<path d="M226.405 -27.7994C226.405 -27.1592 225.886 -26.6393 225.246 -26.6393C224.605 -26.6393 224.087 -27.1592 224.087 -27.7994C224.087 -28.4396 224.605 -28.9595 225.246 -28.9595C225.886 -28.9595 226.405 -28.4396 226.405 -27.7994Z" fill="white"/>
<path d="M14.7201 -68.2942C14.7201 -67.6541 14.2003 -67.1349 13.5603 -67.1349C12.9196 -67.1349 12.4006 -67.6541 12.4006 -68.2942C12.4006 -68.9352 12.9196 -69.4544 13.5603 -69.4544C14.2003 -69.4544 14.7201 -68.9352 14.7201 -68.2942Z" fill="white"/>
<path d="M160.9 -32.7281C160.9 -32.0879 160.381 -31.5688 159.741 -31.5688C159.1 -31.5688 158.581 -32.0879 158.581 -32.7281C158.581 -33.369 159.1 -33.8882 159.741 -33.8882C160.381 -33.8882 160.9 -33.369 160.9 -32.7281Z" fill="white"/>
<path d="M199.269 49.905C199.269 50.2856 198.961 50.5938 198.58 50.5938C198.2 50.5938 197.892 50.2856 197.892 49.905C197.892 49.5244 198.2 49.2163 198.58 49.2163C198.961 49.2163 199.269 49.5244 199.269 49.905Z" fill="white"/>
<path d="M227.964 23.2304C227.964 23.611 227.656 23.9191 227.275 23.9191C226.895 23.9191 226.587 23.611 226.587 23.2304C226.587 22.8498 226.895 22.5417 227.275 22.5417C227.656 22.5417 227.964 22.8498 227.964 23.2304Z" fill="white"/>
<path d="M231.296 63.3876C231.296 63.7674 230.988 64.0756 230.609 64.0756C230.228 64.0756 229.92 63.7674 229.92 63.3876C229.92 63.007 230.228 62.6989 230.609 62.6989C230.988 62.6989 231.296 63.007 231.296 63.3876Z" fill="white"/>
<path d="M273.035 38.452C273.035 38.8326 272.727 39.1407 272.347 39.1407C271.966 39.1407 271.658 38.8326 271.658 38.452C271.658 38.0722 271.966 37.7641 272.347 37.7641C272.727 37.7641 273.035 38.0722 273.035 38.452Z" fill="white"/>
<path d="M290.136 -30.6985C290.136 -30.3187 289.828 -30.0105 289.447 -30.0105C289.068 -30.0105 288.76 -30.3187 288.76 -30.6985C288.76 -31.0791 289.068 -31.3872 289.447 -31.3872C289.828 -31.3872 290.136 -31.0791 290.136 -30.6985Z" fill="white"/>
<path d="M121.734 3.80391C121.734 4.18451 121.426 4.49265 121.046 4.49265C120.665 4.49265 120.357 4.18451 120.357 3.80391C120.357 3.4241 120.665 3.11596 121.046 3.11596C121.426 3.11596 121.734 3.4241 121.734 3.80391Z" fill="white"/>
<path d="M145.937 13.807C145.937 14.1876 145.628 14.4957 145.248 14.4957C144.868 14.4957 144.56 14.1876 144.56 13.807C144.56 13.4272 144.868 13.119 145.248 13.119C145.628 13.119 145.937 13.4272 145.937 13.807Z" fill="white"/>
<path d="M164.922 -4.4594C164.922 -4.0788 164.614 -3.77068 164.233 -3.77068C163.853 -3.77068 163.545 -4.0788 163.545 -4.4594C163.545 -4.8392 163.853 -5.14735 164.233 -5.14735C164.614 -5.14735 164.922 -4.8392 164.922 -4.4594Z" fill="white"/>
<path d="M229.848 -18.8115C229.848 -18.4309 229.539 -18.1228 229.159 -18.1228C228.779 -18.1228 228.471 -18.4309 228.471 -18.8115C228.471 -19.1913 228.779 -19.4995 229.159 -19.4995C229.539 -19.4995 229.848 -19.1913 229.848 -18.8115Z" fill="white"/>
<path d="M238.253 7.71816C238.253 8.09876 237.945 8.40691 237.565 8.40691C237.184 8.40691 236.876 8.09876 236.876 7.71816C236.876 7.33836 237.184 7.03022 237.565 7.03022C237.945 7.03022 238.253 7.33836 238.253 7.71816Z" fill="white"/>
<path d="M222.928 107.313C222.928 105.077 221.975 104.125 219.739 104.125C221.975 104.125 222.928 103.171 222.928 100.935C222.928 103.171 223.88 104.125 226.116 104.125C223.88 104.125 222.928 105.077 222.928 107.313Z" fill="white"/>
<path d="M105.636 -93.5197C105.636 -95.7563 104.683 -96.7086 102.447 -96.7086C104.683 -96.7086 105.636 -97.6609 105.636 -99.8983C105.636 -97.6609 106.588 -96.7086 108.824 -96.7086C106.588 -96.7086 105.636 -95.7563 105.636 -93.5197Z" fill="white"/>
<path d="M-5.81211 -18.1443C-5.81211 -20.3809 -6.7641 -21.334 -9 -21.334C-6.7641 -21.334 -5.81211 -22.2863 -5.81211 -24.5237C-5.81211 -22.2863 -4.85934 -21.334 -2.62344 -21.334C-4.85934 -21.334 -5.81211 -20.3809 -5.81211 -18.1443Z" fill="white"/>
<path d="M39.1637 12.7926C39.1637 10.556 38.211 9.60288 35.9751 9.60288C38.211 9.60288 39.1637 8.65058 39.1637 6.41396C39.1637 8.65058 40.1157 9.60288 42.3516 9.60288C40.1157 9.60288 39.1637 10.556 39.1637 12.7926Z" fill="white"/>
<path d="M260.801 -59.6933C260.801 -61.93 259.849 -62.8823 257.612 -62.8823C259.849 -62.8823 260.801 -63.8353 260.801 -66.072C260.801 -63.8353 261.753 -62.8823 263.99 -62.8823C261.753 -62.8823 260.801 -61.93 260.801 -59.6933Z" fill="white"/>
<path d="M313.167 -49.4482C313.167 -51.6848 312.215 -52.6379 309.979 -52.6379C312.215 -52.6379 313.167 -53.5902 313.167 -55.8268C313.167 -53.5902 314.119 -52.6379 316.355 -52.6379C314.119 -52.6379 313.167 -51.6848 313.167 -49.4482Z" fill="white"/>
<path d="M308.916 66.1418C308.916 63.9052 307.963 62.9521 305.727 62.9521C307.963 62.9521 308.916 61.9998 308.916 59.7632C308.916 61.9998 309.868 62.9521 312.104 62.9521C309.868 62.9521 308.916 63.9052 308.916 66.1418Z" fill="white"/>
<path d="M306.404 14.5323C306.404 12.2957 305.451 11.3426 303.215 11.3426C305.451 11.3426 306.404 10.3903 306.404 8.15372C306.404 10.3903 307.356 11.3426 309.592 11.3426C307.356 11.3426 306.404 12.2957 306.404 14.5323Z" fill="white"/>
<path d="M97.7125 48.9384C97.7125 46.7018 96.7606 45.7495 94.5247 45.7495C96.7606 45.7495 97.7125 44.7964 97.7125 42.5598C97.7125 44.7964 98.6654 45.7495 100.901 45.7495C98.6654 45.7495 97.7125 46.7018 97.7125 48.9384Z" fill="white"/>
<path d="M74.3316 87.0175C74.3316 84.7808 73.3796 83.8286 71.1437 83.8286C73.3796 83.8286 74.3316 82.8755 74.3316 80.6389C74.3316 82.8755 75.2844 83.8286 77.5203 83.8286C75.2844 83.8286 74.3316 84.7808 74.3316 87.0175Z" fill="white"/>
<path d="M49.9842 -51.7676C49.9842 -54.0042 49.0322 -54.9573 46.7963 -54.9573C49.0322 -54.9573 49.9842 -55.9096 49.9842 -58.147C49.9842 -55.9096 50.937 -54.9573 53.1729 -54.9573C50.937 -54.9573 49.9842 -54.0042 49.9842 -51.7676Z" fill="white"/>
<path d="M305.438 -69.2609C305.438 -68.6207 304.919 -68.1016 304.278 -68.1016C303.638 -68.1016 303.119 -68.6207 303.119 -69.2609C303.119 -69.9018 303.638 -70.421 304.278 -70.421C304.919 -70.421 305.438 -69.9018 305.438 -69.2609Z" fill="white"/>
<path d="M317 -102.091C317 -101.45 316.48 -100.931 315.84 -100.931C315.199 -100.931 314.681 -101.45 314.681 -102.091C314.681 -102.731 315.199 -103.25 315.84 -103.25C316.48 -103.25 317 -102.731 317 -102.091Z" fill="white"/>
<path d="M201.478 -96.7086C201.478 -96.0685 200.959 -95.5493 200.319 -95.5493C199.679 -95.5493 199.16 -96.0685 199.16 -96.7086C199.16 -97.3496 199.679 -97.8687 200.319 -97.8687C200.959 -97.8687 201.478 -97.3496 201.478 -96.7086Z" fill="white"/>
<path d="M291.525 88.0804C291.525 88.7214 291.006 89.2405 290.365 89.2405C289.725 89.2405 289.206 88.7214 289.206 88.0804C289.206 87.4402 289.725 86.9211 290.365 86.9211C291.006 86.9211 291.525 87.4402 291.525 88.0804Z" fill="white"/>
<path d="M9.40301 29.7786C9.40301 30.4188 8.88403 30.9387 8.24407 30.9387C7.60331 30.9387 7.08433 30.4188 7.08433 29.7786C7.08433 29.1377 7.60331 28.6185 8.24407 28.6185C8.88403 28.6185 9.40301 29.1377 9.40301 29.7786Z" fill="white"/>
<path d="M12.8838 64.4992C12.8838 65.1393 12.3648 65.6585 11.7248 65.6585C11.0841 65.6585 10.5651 65.1393 10.5651 64.4992C10.5651 63.8582 11.0841 63.3391 11.7248 63.3391C12.3648 63.3391 12.8838 63.8582 12.8838 64.4992Z" fill="white"/>
<path d="M77.4239 -10.1127C77.4239 -9.47249 76.9041 -8.95333 76.2642 -8.95333C75.6242 -8.95333 75.1045 -9.47249 75.1045 -10.1127C75.1045 -10.7536 75.6242 -11.2728 76.2642 -11.2728C76.9041 -11.2728 77.4239 -10.7536 77.4239 -10.1127Z" fill="white"/>
<path d="M69.6942 31.2524C69.6942 31.8926 69.1752 32.4118 68.5353 32.4118C67.8945 32.4118 67.3755 31.8926 67.3755 31.2524C67.3755 30.6123 67.8945 30.0924 68.5353 30.0924C69.1752 30.0924 69.6942 30.6123 69.6942 31.2524Z" fill="white"/>
<path d="M271.524 66.5789C271.524 67.2199 271.005 67.7391 270.365 67.7391C269.725 67.7391 269.206 67.2199 269.206 66.5789C269.206 65.9388 269.725 65.4196 270.365 65.4196C271.005 65.4196 271.524 65.9388 271.524 66.5789Z" fill="white"/>
<path d="M282.766 -85.7357C282.766 -85.0948 282.246 -84.5756 281.606 -84.5756C280.966 -84.5756 280.446 -85.0948 280.446 -85.7357C280.446 -86.3759 280.966 -86.8951 281.606 -86.8951C282.246 -86.8951 282.766 -86.3759 282.766 -85.7357Z" fill="white"/>
<path d="M170.548 241.605C165.269 234.964 156.813 230.656 147.279 230.646C143.697 230.642 140.266 232.245 137.098 233.35C132.082 225.283 122.737 218.855 112.032 218.843C100.605 218.83 90.7152 224.994 85.9785 233.96C85.7017 233.509 85.4061 233.068 85.0942 232.639C131.73 187.258 152.818 83.0772 156.625 58.4565C156.891 56.7389 157.249 55.8971 157.482 55.8974C157.721 55.8976 157.826 56.797 157.553 58.5606C153.78 82.9594 140.504 184.44 170.604 240.915C170.582 241.144 170.563 241.374 170.548 241.605Z" fill="white"/>
<path d="M56.8088 246.202L56.5832 245.75C56.6287 245.728 61.1822 243.422 68.2604 237.883C74.7935 232.772 84.8734 223.783 95.7967 209.988C108.074 194.483 118.892 176.19 127.949 155.618C139.272 129.9 147.859 100.527 153.473 68.3163L153.969 68.4038C148.347 100.666 139.743 130.086 128.399 155.848C119.321 176.462 108.477 194.793 96.1682 210.333C85.213 224.162 75.1011 233.175 68.5471 238.301C61.4381 243.86 56.8543 246.179 56.8088 246.202Z" fill="white"/>
<path d="M199.192 272.641C199.153 272.604 195.193 268.867 189.689 261.172C184.614 254.077 177.145 242.062 170.379 225.112C162.777 206.067 157.593 184.798 154.971 161.898C151.695 133.279 152.434 102.016 157.167 68.9758L157.654 69.0459C152.928 102.034 152.189 133.247 155.457 161.816C158.072 184.67 163.241 205.893 170.823 224.896C177.569 241.803 185.014 253.786 190.072 260.861C195.553 268.528 199.489 272.244 199.528 272.28L199.192 272.641Z" fill="white"/>
<path fill-rule="evenodd" clip-rule="evenodd" d="M160.333 72.6813C160.291 72.9435 159.873 72.8263 159.873 72.8263C159.448 72.7583 159.448 72.7583 159.517 72.3318L159.584 71.9053L157.291 70.3817C156.889 71.0057 156.281 71.4693 155.574 71.6926L155.501 71.681L154.947 73.0763L154.854 71.5583L154.851 71.5766C154.248 71.1436 153.816 70.5129 153.628 69.7935L150.939 70.5171L150.871 70.9436C150.803 71.3701 150.803 71.3701 150.377 71.3016C150.377 71.3016 149.947 71.2635 149.986 71.0201L150.533 67.5975C150.736 66.3247 151.161 66.3927 151.161 66.3927C151.587 66.4612 151.452 67.308 151.384 67.734L154.425 64.9621L155.571 57.7881C155.606 57.5751 156.055 56.1294 157.735 53.7632L158.166 53L158.343 53.8607C159.206 56.6102 159.182 58.1245 159.144 58.362L157.993 65.5658L160.024 69.153C160.092 68.7265 160.228 67.8803 160.653 67.9482C160.653 67.9482 161.078 68.0168 160.875 69.2895L160.333 72.6813Z" fill="white"/>
<path d="M135.479 267.331C145.787 254.359 143.652 235.467 130.71 225.135C117.769 214.803 98.9217 216.943 88.6139 229.915C78.3061 242.887 80.441 261.779 93.3824 272.111C106.324 282.443 125.171 280.303 135.479 267.331Z" fill="white"/>
<path d="M170.898 279.355C181.206 266.384 179.071 247.492 166.129 237.16C153.188 226.828 134.341 228.968 124.033 241.94C113.725 254.911 115.86 273.803 128.801 284.135C141.743 294.467 160.59 292.327 170.898 279.355Z" fill="white"/>
<path d="M222.929 264.817C233.236 251.845 231.101 232.953 218.16 222.621C205.219 212.289 186.371 214.429 176.064 227.401C165.756 240.373 167.891 259.264 180.832 269.596C193.774 279.929 212.621 277.789 222.929 264.817Z" fill="white"/>
<path d="M86.0635 262.228C94.2184 251.965 92.5294 237.019 82.291 228.845C72.0525 220.671 57.1418 222.364 48.9869 232.627C40.832 242.889 42.521 257.835 52.7595 266.009C62.9979 274.183 77.9086 272.49 86.0635 262.228Z" fill="white"/>
<path d="M48.2453 253.913C52.9427 248.001 51.9698 239.392 46.0722 234.683C40.1746 229.975 31.5856 230.95 26.8882 236.862C22.1908 242.773 23.1637 251.382 29.0613 256.091C34.9589 260.799 43.5479 259.824 48.2453 253.913Z" fill="white"/>
<path d="M28.8274 245.191C32.2474 240.887 31.5391 234.619 27.2453 231.191C22.9514 227.763 16.6981 228.473 13.2781 232.777C9.85811 237.081 10.5665 243.349 14.8603 246.777C19.1541 250.205 25.4074 249.495 28.8274 245.191Z" fill="white"/>
<path d="M17.5894 246.381C19.6339 243.809 19.2105 240.062 16.6437 238.013C14.0769 235.964 10.3388 236.389 8.29434 238.961C6.24987 241.534 6.67327 245.28 9.24003 247.329C11.8068 249.378 15.5449 248.954 17.5894 246.381Z" fill="white"/>
</g>
<defs>
<clipPath id="clip0_1156_11070">
<path d="M0 3C0 1.34314 1.34315 0 3 0H315C316.657 0 318 1.34315 318 3V240H0V3Z" fill="white"/>
</clipPath>
</defs>
</svg>
