<svg xmlns="http://www.w3.org/2000/svg" xml:space="preserve" width="500" viewBox="0 0 951 504">
  <path d="M917.91 140.4a32.63 32.63 0 1 1 12.475-62.777 32.63 32.63 0 0 1 20.146 30.147c-.001 18.017-14.604 32.625-32.621 32.63zm-34.34 17.83a72.895 72.895 0 0 1 1.71 16.35v130.83c0 34.953-17.895 52.43-53.682 52.43h-79c-16 0-28.133-4.877-36.398-14.63-8.267-9.753-12.4-23.03-12.4-39.83v-128.8a83.008 83.008 0 0 1 .84-12.13h-.85c-9.521 7.05-23.08 17.14-23.271 17.55-.381.84-3.649-10.39-17-10.39h-22.101c-4.229 0-15.74 2.65-23.85 10.35-8.11 7.7-12.15 20.67-12.15 30.15V357.3l-17.35.54h-17.4l-17.899-.09v-188.1h-77.711v164.18c0 5.15 1.69 11.22 5.08 14.6 3.392 3.38 7.41 8 12.29 8h27.45l-22.95 48.15h-26.1c-22.92 0-47.92-25.521-47.92-63.46V169.65h-50l-.21-22.05-30.15 22.05h-66.31c-4.88 0-7.83.81-12.4 5.08s-5.08 7.52-5.08 12.4v12.24c.155 9.368 7.712 16.925 17.08 17.08h53.9c37.42 0 56.13 17.883 56.13 53.649v34.09c0 35.771-18.38 53.109-55 53.109H145.93V336.15c0 5.58-16.66 21.688-37.65 21.688H57.35C20.75 357.84 2 340 2 304.189V270.1c0-35.5 19.16-53.378 56.57-53.648L128.4 216l-.28-27.69c0-12.46-6.237-18.693-18.71-18.7H76.18c-11.28 0-22.5 3.5-22.5 17.55v11.25H37.93L2.38 172.35v-2.7c0-15.45 6.62-27.18 18.82-36.12 10-7 20.43-10.57 32.09-10.57h67.6c24.4 0 40.94 5.827 49.62 17.48 6.233 8.4 9.35 22.354 9.35 41.86v12.55l-.14 116.55H275l39.9.158a17.357 17.357 0 0 0 12.81-5.078 16.873 16.873 0 0 0 5.09-12.4l-.14-30.38h-61.61l-5.88-.16c-20.88 0-34.06-4.2-43.14-12.6-9.08-8.4-13.62-22.08-13.62-41.05v-31.25c0-15.707 2.577-27.627 7.73-35.76 8.67-13.28 22.86-20.37 46.19-20.37h17.57l142.78-.11.23-95.92L459.13 0h16.2v122.4h130.05v22.95h.46c3.22-10.45 17.47-22.95 36.852-22.95h16.198c9.49 0 14.602.84 24.302 3.6 13.488 4.26 20.908 15.69 22.5 18 .438.63 1.18 1.8 2 3.15H709c7.18-17 22.81-24.64 47.7-24.64h79c11.17 0 20.729 2.76 28.68 7.82L803 169.65h-29.15a17.348 17.348 0 0 0-17.488 17.48v107a17.353 17.353 0 0 0 17.488 17.48h41.392a17.362 17.362 0 0 0 12.81-5.08 16.389 16.389 0 0 0 5.09-12.001v-88l50.428-48.299zM128.12 263.54H72.9c-5.15 0-11.23 1.7-14.61 5.08A16.832 16.832 0 0 0 53.2 281v13.061a16.827 16.827 0 0 0 5.09 12.399C61.67 309.87 67.88 311 73 311h36.9c12.08-1.07 18.19-8.939 18.19-25.41l.03-22.05zM30.618 434.902c-2.444-3.588-6.006-5.384-10.686-5.384-1.456 0-2.886.195-4.29.587-1.404.39-2.665.986-3.783 1.794-1.118.806-2.015 1.846-2.691 3.118-.676 1.274-1.014 2.771-1.014 4.485 0 2.496.702 4.433 2.106 5.812 1.404 1.378 3.146 2.509 5.226 3.393s4.355 1.677 6.825 2.379c2.47.702 4.745 1.638 6.825 2.808a16.3 16.3 0 0 1 5.226 4.643c1.404 1.924 2.106 4.55 2.106 7.878 0 2.496-.533 4.745-1.599 6.747s-2.47 3.679-4.212 5.031a19.745 19.745 0 0 1-5.85 3.119 20.234 20.234 0 0 1-6.513 1.093c-3.38 0-6.591-.639-9.633-1.911-3.042-1.274-5.629-3.367-7.761-6.279l5.07-3.666c1.196 2.028 2.86 3.653 4.992 4.875 2.132 1.223 4.654 1.833 7.566 1.833a13.96 13.96 0 0 0 4.212-.663 12.106 12.106 0 0 0 3.783-1.95c1.118-.856 2.041-1.909 2.769-3.157s1.092-2.68 1.092-4.29c0-1.925-.403-3.523-1.209-4.797-.806-1.274-1.872-2.342-3.198-3.198-1.326-.858-2.834-1.573-4.524-2.146-1.69-.57-3.432-1.144-5.226-1.716s-3.536-1.222-5.226-1.95-3.198-1.649-4.524-2.769-2.392-2.522-3.198-4.212-1.209-3.811-1.209-6.357c0-2.65.507-4.966 1.521-6.94 1.014-1.978 2.366-3.614 4.056-4.914 1.69-1.302 3.601-2.264 5.733-2.888a23.206 23.206 0 0 1 6.552-.936c3.12 0 5.954.494 8.502 1.48 2.548.988 4.914 2.73 7.098 5.228l-4.914 3.82zm49.672 27.846c0-2.028-.325-3.926-.975-5.694-.65-1.768-1.573-3.302-2.769-4.602-1.196-1.3-2.639-2.327-4.329-3.081s-3.601-1.131-5.733-1.131c-2.132 0-4.082.377-5.85 1.131-1.768.754-3.302 1.781-4.602 3.081-1.3 1.3-2.314 2.834-3.042 4.602-.728 1.77-1.092 3.666-1.092 5.694s.364 3.926 1.092 5.694c.728 1.768 1.742 3.302 3.042 4.602 1.3 1.3 2.834 2.327 4.602 3.081 1.768.754 3.718 1.131 5.85 1.131 2.132 0 4.043-.377 5.733-1.131 1.69-.754 3.133-1.781 4.329-3.081 1.196-1.3 2.119-2.834 2.769-4.602.65-1.768.975-3.666.975-5.694zm-33.306-18.252h5.148v6.084h.156c.832-1.248 1.82-2.314 2.964-3.198s2.34-1.612 3.588-2.184a17.164 17.164 0 0 1 3.861-1.248 19.69 19.69 0 0 1 3.783-.392c2.86 0 5.473.481 7.839 1.443 2.366.962 4.407 2.301 6.123 4.018 1.716 1.717 3.055 3.743 4.017 6.084s1.443 4.889 1.443 7.645-.481 5.304-1.443 7.644c-.962 2.342-2.301 4.368-4.017 6.085-1.716 1.717-3.757 3.056-6.123 4.018-2.366.962-4.979 1.442-7.839 1.442-1.196 0-2.457-.131-3.783-.391a17.164 17.164 0 0 1-3.861-1.248c-1.248-.571-2.444-1.3-3.588-2.184s-2.132-1.95-2.964-3.198h-.156v28.548h-5.148v-58.968zm69.406 18.33c-1.3 0-2.925.063-4.875.195-1.95.13-3.822.44-5.616.936s-3.328 1.261-4.602 2.301-1.911 2.47-1.911 4.29c0 1.196.247 2.225.741 3.081.494.858 1.157 1.562 1.989 2.106s1.755.936 2.769 1.17c1.014.232 2.041.351 3.081.351 1.872 0 3.497-.312 4.875-.936s2.535-1.471 3.471-2.535c.936-1.066 1.625-2.314 2.067-3.744s.663-2.951.663-4.562v-2.651l-2.652-.002zm2.652-4.212v-.938c0-6.292-3.12-9.438-9.36-9.438-4.264 0-7.982 1.43-11.154 4.29l-3.12-3.666c3.432-3.536 8.58-5.306 15.444-5.306 1.768 0 3.471.262 5.109.78 1.638.521 3.055 1.313 4.251 2.379 1.196 1.066 2.158 2.405 2.886 4.019.728 1.61 1.092 3.536 1.092 5.771v16.302c0 1.404.065 2.873.195 4.407.13 1.534.273 2.795.429 3.783h-4.992a29.244 29.244 0 0 1-.351-2.886 40.724 40.724 0 0 1-.117-3.042h-.156c-1.508 2.442-3.289 4.199-5.343 5.265-2.054 1.066-4.563 1.599-7.527 1.599-1.612 0-3.172-.221-4.68-.661-1.508-.442-2.847-1.118-4.017-2.028s-2.106-2.028-2.808-3.354c-.702-1.324-1.053-2.872-1.053-4.641 0-2.964.767-5.291 2.301-6.98 1.534-1.689 3.458-2.95 5.772-3.782 2.314-.832 4.784-1.354 7.41-1.562s5.031-.312 7.215-.312l2.574.001zm44.68-5.538c-.884-1.354-2.119-2.496-3.705-3.434-1.586-.936-3.393-1.402-5.421-1.402-2.132-.053-4.043.286-5.733 1.014-1.69.729-3.133 1.742-4.329 3.042-1.196 1.3-2.106 2.847-2.73 4.641-.624 1.796-.936 3.731-.936 5.812s.312 4.017.936 5.811 1.534 3.343 2.73 4.643c1.196 1.3 2.639 2.312 4.329 3.042 1.69.728 3.601 1.064 5.733 1.014 2.028 0 3.835-.468 5.421-1.404 1.586-.936 2.821-2.078 3.705-3.432l4.212 3.198c-1.82 2.132-3.874 3.705-6.162 4.719s-4.68 1.547-7.176 1.599c-2.964.054-5.642-.401-8.034-1.363s-4.433-2.303-6.123-4.019-2.977-3.757-3.861-6.123c-.884-2.364-1.326-4.927-1.326-7.683s.442-5.317 1.326-7.683c.884-2.366 2.171-4.407 3.861-6.123 1.69-1.718 3.731-3.057 6.123-4.019s5.07-1.417 8.034-1.365c2.496.054 4.888.585 7.176 1.601 2.288 1.014 4.342 2.587 6.162 4.719l-4.212 3.195zm40.39 6.864c0-3.484-1.04-6.307-3.12-8.465-2.08-2.156-4.992-3.235-8.736-3.235-1.664 0-3.276.325-4.836.975-1.56.65-2.925 1.521-4.095 2.613a13.105 13.105 0 0 0-2.808 3.744c-.702 1.402-1.053 2.858-1.053 4.368h24.648zm-24.804 4.212a15.657 15.657 0 0 0 1.326 5.146c.728 1.612 1.69 3.003 2.886 4.173s2.574 2.095 4.134 2.771c1.56.676 3.25 1.014 5.07 1.014 2.756 0 5.135-.637 7.137-1.911 2.002-1.272 3.523-2.743 4.563-4.405l3.978 3.274c-2.184 2.756-4.589 4.732-7.215 5.928-2.626 1.196-5.447 1.794-8.463 1.794-2.704 0-5.213-.479-7.527-1.441-2.314-.962-4.303-2.301-5.967-4.019-1.664-1.716-2.977-3.742-3.939-6.084-.962-2.34-1.443-4.888-1.443-7.644s.468-5.304 1.404-7.646c.936-2.34 2.236-4.366 3.9-6.084a17.933 17.933 0 0 1 5.85-4.017c2.236-.962 4.654-1.443 7.254-1.443 2.756 0 5.226.494 7.41 1.482s4.017 2.301 5.499 3.939c1.482 1.638 2.613 3.562 3.393 5.771.78 2.21 1.17 4.563 1.17 7.059v2.342l-30.42.001zm104.804-3.744c0 2.288-.273 4.719-.819 7.293s-1.573 4.953-3.081 7.137c-1.508 2.186-3.575 3.991-6.201 5.421-2.626 1.432-5.993 2.146-10.101 2.146-4.16 0-7.54-.715-10.14-2.146-2.6-1.43-4.654-3.235-6.162-5.421a19.597 19.597 0 0 1-3.081-7.137c-.546-2.574-.819-5.005-.819-7.293v-34.632h5.616v34.008c0 2.65.26 4.927.78 6.825.52 1.896 1.209 3.497 2.067 4.797s1.82 2.327 2.886 3.081 2.132 1.339 3.198 1.755 2.093.688 3.081.817c.988.132 1.846.195 2.574.195.676 0 1.521-.063 2.535-.195 1.014-.13 2.054-.401 3.12-.817s2.132-1.001 3.198-1.755c1.066-.754 2.028-1.781 2.886-3.081s1.547-2.899 2.067-4.797c.52-1.898.78-4.175.78-6.825v-34.008h5.616v34.632zm32.2-12.558 15.444-22.072h7.02l-18.72 26.208L340.336 481h-7.41l-16.848-25.038L299.152 481h-7.02l20.202-29.016-18.642-26.208h7.566l15.054 22.074zm60.5 28.002h10.92c4.212 0 7.865-.637 10.959-1.909 3.094-1.274 5.668-2.966 7.722-5.07 2.054-2.106 3.575-4.498 4.562-7.176a23.825 23.825 0 0 0 1.482-8.309c0-2.858-.494-5.629-1.482-8.307-.986-2.678-2.509-5.07-4.562-7.176-2.054-2.106-4.628-3.796-7.722-5.07-3.094-1.274-6.749-1.911-10.959-1.911h-10.92v44.928zm-5.616-50.076h18.33c3.432 0 6.877.57 10.335 1.716a28.477 28.477 0 0 1 9.358 5.187c2.782 2.314 5.031 5.2 6.747 8.658s2.574 7.476 2.574 12.051c0 4.628-.858 8.658-2.574 12.09-1.716 3.434-3.965 6.307-6.747 8.619a28.498 28.498 0 0 1-9.358 5.188c-3.458 1.144-6.903 1.716-10.335 1.716h-18.33v-55.225zm86.098 34.164c0-3.484-1.04-6.307-3.12-8.465-2.08-2.156-4.992-3.235-8.735-3.235-1.663 0-3.275.325-4.837.975-1.56.65-2.925 1.521-4.095 2.613s-2.104 2.34-2.808 3.744c-.702 1.402-1.053 2.858-1.053 4.368h24.648zm-24.804 4.212a15.657 15.657 0 0 0 1.326 5.146c.728 1.612 1.688 3.003 2.886 4.173s2.574 2.095 4.134 2.771c1.561.676 3.25 1.014 5.07 1.014 2.756 0 5.135-.637 7.137-1.911 2.002-1.272 3.523-2.743 4.562-4.405l3.979 3.274c-2.184 2.756-4.589 4.732-7.215 5.928-2.626 1.196-5.447 1.794-8.463 1.794-2.704 0-5.213-.479-7.527-1.441-2.312-.962-4.303-2.301-5.967-4.019-1.664-1.716-2.979-3.742-3.939-6.084-.962-2.34-1.441-4.888-1.441-7.644s.468-5.304 1.402-7.646c.938-2.34 2.236-4.366 3.9-6.084a17.933 17.933 0 0 1 5.85-4.017c2.236-.962 4.654-1.443 7.254-1.443 2.758 0 5.228.494 7.41 1.482 2.186.988 4.019 2.301 5.499 3.939 1.482 1.638 2.613 3.562 3.395 5.771.778 2.21 1.17 4.563 1.17 7.059v2.342l-30.422.001zm60.124-10.998c-.78-1.508-1.82-2.704-3.12-3.588-1.3-.886-2.886-1.326-4.758-1.326-.886 0-1.781.104-2.691.312s-1.729.533-2.457.977c-.728.44-1.312 1.001-1.755 1.677s-.663 1.508-.663 2.496c0 1.716.598 2.964 1.794 3.744 1.196.778 2.99 1.456 5.382 2.026l5.228 1.248c2.548.572 4.667 1.729 6.355 3.473 1.69 1.74 2.535 3.911 2.535 6.513 0 1.976-.403 3.679-1.209 5.109a10.369 10.369 0 0 1-3.198 3.51c-1.324.91-2.847 1.573-4.562 1.988a22.159 22.159 0 0 1-5.228.623c-2.808 0-5.421-.531-7.839-1.599-2.418-1.064-4.483-2.897-6.201-5.499l4.446-3.042c1.04 1.664 2.354 2.99 3.939 3.979 1.586.986 3.471 1.48 5.653 1.48 1.04 0 2.08-.117 3.12-.351 1.04-.234 1.963-.6 2.771-1.093a5.965 5.965 0 0 0 1.95-1.91c.492-.78.739-1.69.739-2.73 0-1.82-.676-3.133-2.026-3.938-1.354-.808-2.99-1.443-4.914-1.911l-4.992-1.17c-.624-.156-1.469-.416-2.535-.78s-2.104-.91-3.12-1.638c-1.014-.729-1.885-1.679-2.612-2.849-.729-1.17-1.093-2.611-1.093-4.329 0-1.872.377-3.51 1.131-4.914a9.744 9.744 0 0 1 3.042-3.432c1.274-.884 2.719-1.547 4.329-1.989a18.874 18.874 0 0 1 4.992-.663c2.548 0 4.914.494 7.1 1.482 2.184.988 3.872 2.678 5.068 5.07l-4.601 3.044zm22.372-22.698c0 1.092-.392 1.989-1.17 2.691-.78.7-1.64 1.053-2.574 1.053-.938 0-1.794-.353-2.574-1.053-.78-.702-1.17-1.601-1.17-2.691s.39-1.989 1.17-2.691c.78-.7 1.638-1.053 2.574-1.053.936 0 1.794.353 2.574 1.053.78.702 1.17 1.599 1.17 2.691zM513.816 481h-5.148v-36.504h5.148V481zm17.146-18.72c0 1.924.351 3.729 1.053 5.421a14.249 14.249 0 0 0 2.888 4.446 14.035 14.035 0 0 0 4.29 3.042c1.638.754 3.419 1.131 5.343 1.131 1.872 0 3.652-.338 5.343-1.016 1.69-.676 3.187-1.625 4.485-2.847s2.301-2.691 3.003-4.407 1.025-3.64.975-5.771c0-1.924-.312-3.731-.936-5.421-.624-1.69-1.534-3.172-2.73-4.446s-2.65-2.288-4.368-3.042c-1.716-.754-3.64-1.131-5.771-1.131-1.924 0-3.705.377-5.343 1.131a13.968 13.968 0 0 0-4.29 3.042 14.214 14.214 0 0 0-2.888 4.446c-.704 1.691-1.054 3.498-1.054 5.422zm-.936 26.052c1.508 2.028 3.471 3.653 5.889 4.875s5.109 1.833 8.073 1.833c2.6 0 4.81-.377 6.63-1.131 1.818-.754 3.289-1.781 4.407-3.081 1.116-1.3 1.924-2.821 2.418-4.563.494-1.74.739-3.601.739-5.575v-6.554h-.154c-1.664 2.496-3.692 4.266-6.084 5.306-2.394 1.04-4.914 1.56-7.566 1.56s-5.135-.468-7.449-1.404c-2.312-.936-4.329-2.223-6.045-3.859-1.716-1.64-3.066-3.603-4.056-5.891s-1.482-4.758-1.482-7.409.47-5.121 1.404-7.409 2.223-4.29 3.861-6.007c1.638-1.717 3.588-3.056 5.85-4.018s4.745-1.443 7.449-1.443c1.092 0 2.249.104 3.471.312 1.223.208 2.444.572 3.666 1.092 1.222.521 2.432 1.235 3.627 2.146 1.196.909 2.314 2.065 3.354 3.471h.154v-6.084h5.148v36.192c0 1.976-.247 4.081-.741 6.316-.494 2.236-1.456 4.29-2.886 6.162s-3.419 3.432-5.967 4.68-5.876 1.872-9.984 1.872c-3.64 0-6.89-.598-9.75-1.794-2.86-1.194-5.46-3.042-7.8-5.538l3.824-4.057zm50.764-43.836c.104.988.169 1.963.195 2.925.024.962.039 1.938.039 2.925h.154c.572-.986 1.302-1.896 2.186-2.729s1.872-1.547 2.964-2.146a16.174 16.174 0 0 1 3.471-1.402 13.506 13.506 0 0 1 3.627-.509c4.682 0 8.14 1.235 10.374 3.705 2.236 2.472 3.354 5.993 3.354 10.569V481h-5.148v-20.202c0-4.056-.702-7.163-2.104-9.321-1.404-2.156-4.004-3.235-7.802-3.235-.26 0-.986.104-2.184.312s-2.457.78-3.783 1.716c-1.326.938-2.509 2.342-3.549 4.214-1.04 1.871-1.56 4.472-1.56 7.8V481h-5.148v-28.47c0-.988-.039-2.236-.117-3.744s-.169-2.938-.271-4.29h5.302zm90.14-9.594c-2.442-3.588-6.006-5.384-10.686-5.384-1.456 0-2.886.195-4.29.587-1.404.39-2.665.986-3.783 1.794-1.118.806-2.015 1.846-2.689 3.118-.678 1.274-1.016 2.771-1.016 4.485 0 2.496.702 4.433 2.106 5.812 1.402 1.378 3.146 2.509 5.226 3.393s4.355 1.677 6.825 2.379 4.745 1.638 6.825 2.808a16.31 16.31 0 0 1 5.226 4.643c1.405 1.924 2.106 4.55 2.106 7.878 0 2.496-.533 4.745-1.601 6.747a15.488 15.488 0 0 1-4.212 5.031 19.708 19.708 0 0 1-5.85 3.119 20.234 20.234 0 0 1-6.513 1.093c-3.381 0-6.592-.639-9.635-1.911-3.041-1.274-5.629-3.367-7.761-6.279l5.07-3.666c1.196 2.028 2.859 3.653 4.992 4.875 2.132 1.223 4.652 1.833 7.564 1.833 1.404 0 2.81-.221 4.212-.663a12.106 12.106 0 0 0 3.783-1.95c1.118-.856 2.041-1.909 2.77-3.157s1.093-2.68 1.093-4.29c0-1.925-.403-3.523-1.209-4.797a10.424 10.424 0 0 0-3.198-3.198c-1.326-.858-2.834-1.573-4.523-2.146-1.689-.57-3.433-1.144-5.227-1.716s-3.536-1.222-5.227-1.95c-1.689-.728-3.197-1.649-4.523-2.769s-2.392-2.522-3.198-4.212-1.209-3.811-1.209-6.357c0-2.65.508-4.966 1.521-6.94 1.014-1.978 2.365-3.614 4.056-4.914 1.69-1.302 3.602-2.264 5.733-2.888s4.314-.936 6.552-.936c3.12 0 5.954.494 8.502 1.48 2.548.988 4.914 2.73 7.098 5.228l-4.91 3.82zm29.938 39.78 11.153-30.186h6.239l-18.252 46.02c-1.092 2.81-2.481 5.044-4.173 6.708s-4.121 2.496-7.293 2.496c-.78 0-1.573-.024-2.379-.078a9.393 9.393 0 0 1-2.379-.468l.546-4.992c1.092.572 2.392.858 3.899.858 1.819 0 3.25-.572 4.289-1.716 1.041-1.146 1.95-2.756 2.73-4.836l2.652-7.021-14.978-36.972h6.476l11.47 30.187zm44.368-21.528c-.78-1.508-1.82-2.704-3.12-3.588-1.3-.886-2.886-1.326-4.758-1.326-.886 0-1.781.104-2.691.312s-1.729.533-2.457.977c-.728.44-1.312 1.001-1.755 1.677s-.663 1.508-.663 2.496c0 1.716.598 2.964 1.794 3.744 1.196.778 2.99 1.456 5.382 2.026l5.228 1.248c2.548.572 4.667 1.729 6.355 3.473 1.69 1.74 2.535 3.911 2.535 6.513 0 1.976-.403 3.679-1.209 5.109a10.369 10.369 0 0 1-3.198 3.51c-1.325.91-2.847 1.573-4.562 1.988a22.159 22.159 0 0 1-5.228.623c-2.808 0-5.421-.531-7.839-1.599-2.418-1.064-4.483-2.897-6.201-5.499l4.446-3.042c1.04 1.664 2.354 2.99 3.939 3.979 1.586.986 3.471 1.48 5.653 1.48 1.04 0 2.08-.117 3.12-.351 1.04-.234 1.963-.6 2.771-1.093a5.952 5.952 0 0 0 1.949-1.91c.493-.78.74-1.69.74-2.73 0-1.82-.676-3.133-2.026-3.938-1.354-.808-2.99-1.443-4.914-1.911l-4.992-1.17c-.624-.156-1.469-.416-2.535-.78-1.065-.364-2.105-.91-3.12-1.638-1.014-.729-1.885-1.679-2.612-2.849-.729-1.17-1.093-2.611-1.093-4.329 0-1.872.377-3.51 1.132-4.914.754-1.402 1.769-2.548 3.042-3.432s2.718-1.547 4.328-1.989a18.874 18.874 0 0 1 4.992-.663c2.548 0 4.914.494 7.099 1.482s3.874 2.678 5.069 5.07l-4.601 3.044zm33.76-3.978h-10.53v21.528c0 1.352.13 2.457.392 3.313.26.858.623 1.521 1.092 1.989a3.778 3.778 0 0 0 1.677.977c.65.182 1.365.271 2.145.271.886 0 1.796-.13 2.73-.39s1.794-.6 2.574-1.016l.232 4.76c-1.924.884-4.236 1.324-6.94 1.324-.988 0-2.017-.13-3.081-.39a7.275 7.275 0 0 1-2.925-1.481c-.886-.729-1.612-1.717-2.186-2.965s-.856-2.886-.856-4.914v-23.01h-7.724v-4.68h7.724V434.2h5.146v10.296h10.53v4.68zm36.412 10.764c0-3.484-1.04-6.307-3.12-8.465-2.08-2.156-4.992-3.235-8.736-3.235-1.664 0-3.274.325-4.836.975-1.56.65-2.925 1.521-4.095 2.613s-2.106 2.34-2.809 3.744c-.701 1.402-1.054 2.858-1.054 4.368h24.65zm-24.804 4.212c.156 1.818.6 3.535 1.326 5.146.729 1.612 1.69 3.003 2.888 4.173a13.534 13.534 0 0 0 4.134 2.771c1.56.676 3.25 1.014 5.068 1.014 2.758 0 5.137-.637 7.139-1.911 2.002-1.272 3.521-2.743 4.562-4.405l3.979 3.274c-2.186 2.756-4.589 4.732-7.215 5.928-2.626 1.196-5.447 1.794-8.465 1.794-2.702 0-5.213-.479-7.525-1.441-2.314-.962-4.303-2.301-5.967-4.019-1.664-1.716-2.979-3.742-3.939-6.084-.962-2.34-1.443-4.888-1.443-7.644s.47-5.304 1.404-7.646c.938-2.34 2.236-4.366 3.9-6.084 1.664-1.716 3.613-3.055 5.85-4.017s4.654-1.443 7.254-1.443c2.756 0 5.228.494 7.41 1.482 2.186.988 4.018 2.301 5.499 3.939 1.482 1.638 2.613 3.562 3.394 5.771.779 2.21 1.171 4.563 1.171 7.059v2.342l-30.424.001zm40.78-11.544c0-1.354-.039-2.704-.117-4.058a220.824 220.824 0 0 0-.271-4.056h5.538v5.538h.155c1.247-2.132 2.978-3.744 5.188-4.836s4.407-1.64 6.591-1.64c.988 0 2.041.104 3.159.312s2.197.585 3.237 1.131 2.015 1.313 2.925 2.301c.91.988 1.677 2.264 2.301 3.822 1.04-2.34 2.691-4.187 4.953-5.538s4.615-2.028 7.06-2.028c4.681 0 8.139 1.235 10.373 3.705 2.236 2.472 3.354 5.993 3.354 10.569V481h-5.148v-21.294c0-3.692-.648-6.526-1.948-8.502-1.302-1.978-3.72-2.964-7.255-2.964-1.925 0-3.535.377-4.837 1.131a9.174 9.174 0 0 0-3.157 3.003c-.808 1.248-1.393 2.665-1.756 4.251s-.547 3.237-.547 4.953V481h-5.146v-21.294c0-3.692-.65-6.526-1.95-8.502-1.3-1.978-3.718-2.964-7.254-2.964-.312 0-1.027.104-2.146.312-1.116.208-2.273.78-3.471 1.716-1.195.938-2.273 2.342-3.236 4.214-.963 1.87-1.442 4.472-1.442 7.8V481h-5.148v-28.392h-.005z"/>
</svg>