<svg width="12" height="12" viewBox="0 0 12 12" fill="none" xmlns="http://www.w3.org/2000/svg">
  <path fill-rule="evenodd" clip-rule="evenodd" d="M5.99988 10C8.20902 10 9.99988 8.20914 9.99988 6C9.99988 3.79086 8.20902 2 5.99988 2C3.79074 2 1.99988 3.79086 1.99988 6C1.99988 8.20914 3.79074 10 5.99988 10ZM5.99996 7.99999C7.10453 7.99999 7.99996 7.10456 7.99996 5.99999C7.99996 4.89542 7.10453 3.99999 5.99996 3.99999C4.89539 3.99999 3.99996 4.89542 3.99996 5.99999C3.99996 7.10456 4.89539 7.99999 5.99996 7.99999Z" fill="var(--standby-fill, #2dccff)" />
  <path d="M10 6C10 8.20914 8.20914 10 6 10V11C8.76142 11 11 8.76142 11 6H10ZM6 2C8.20914 2 10 3.79086 10 6H11C11 3.23858 8.76142 1 6 1V2ZM2 6C2 3.79086 3.79086 2 6 2V1C3.23858 1 1 3.23858 1 6H2ZM6 10C3.79086 10 2 8.20914 2 6H1C1 8.76142 3.23858 11 6 11V10ZM7 6C7 6.55228 6.55228 7 6 7V8C7.10457 8 8 7.10457 8 6H7ZM6 5C6.55228 5 7 5.44772 7 6H8C8 4.89543 7.10457 4 6 4V5ZM5 6C5 5.44772 5.44772 5 6 5V4C4.89543 4 4 4.89543 4 6H5ZM6 7C5.44772 7 5 6.55228 5 6H4C4 7.10457 4.89543 8 6 8V7Z" fill="var(--standby-border, #2dccff)" fill-opacity="var(--standby-fill-opacity, 0)" />
</svg>

