<svg width="13" height="13" viewBox="0 0 13 13" fill="none" xmlns="http://www.w3.org/2000/svg">
<path fill-rule="evenodd" clip-rule="evenodd" d="M6.5 11C8.98528 11 11 8.98528 11 6.5C11 4.01472 8.98528 2 6.5 2C4.01472 2 2 4.01472 2 6.5C2 8.98528 4.01472 11 6.5 11ZM6.5 8C7.32843 8 8 7.32843 8 6.5C8 5.67157 7.32843 5 6.5 5C5.67157 5 5 5.67157 5 6.5C5 7.32843 5.67157 8 6.5 8Z" fill="var(--standby-fill)"/>
<path d="M10.5 6.5C10.5 8.70914 8.70914 10.5 6.5 10.5V11.5C9.26142 11.5 11.5 9.26142 11.5 6.5H10.5ZM6.5 2.5C8.70914 2.5 10.5 4.29086 10.5 6.5H11.5C11.5 3.73858 9.26142 1.5 6.5 1.5V2.5ZM2.5 6.5C2.5 4.29086 4.29086 2.5 6.5 2.5V1.5C3.73858 1.5 1.5 3.73858 1.5 6.5H2.5ZM6.5 10.5C4.29086 10.5 2.5 8.70914 2.5 6.5H1.5C1.5 9.26142 3.73858 11.5 6.5 11.5V10.5ZM7.5 6.5C7.5 7.05228 7.05228 7.5 6.5 7.5V8.5C7.60457 8.5 8.5 7.60457 8.5 6.5H7.5ZM6.5 5.5C7.05228 5.5 7.5 5.94772 7.5 6.5H8.5C8.5 5.39543 7.60457 4.5 6.5 4.5V5.5ZM5.5 6.5C5.5 5.94772 5.94772 5.5 6.5 5.5V4.5C5.39543 4.5 4.5 5.39543 4.5 6.5H5.5ZM6.5 7.5C5.94772 7.5 5.5 7.05228 5.5 6.5H4.5C4.5 7.60457 5.39543 8.5 6.5 8.5V7.5Z" fill="var(--standby-border)"/>
</svg>
