<?xml version="1.0" encoding="UTF-8"?>
<svg width="233px" height="128px" viewBox="0 0 233 128" version="1.1" xmlns="http://www.w3.org/2000/svg" xmlns:xlink="http://www.w3.org/1999/xlink">
    <!-- Generator: Sketch 49.1 (51147) - http://www.bohemiancoding.com/sketch -->
    <title>Page 1</title>
    <desc>Created with Sketch.</desc>
    <defs>
        <polygon id="path-1" points="0 0.453 216.5499 0.453 216.5499 99.6335 0 99.6335"></polygon>
        <polygon id="path-3" points="0 128.547 232.546 128.547 232.546 1 0 1"></polygon>
    </defs>
    <g id="Page-3-Copy" stroke="none" stroke-width="1" fill="none" fill-rule="evenodd">
        <g id="astro-2.0_v1.1_landing" transform="translate(-496.000000, -156.000000)">
            <g id="Page-1" transform="translate(496.000000, 155.000000)">
                <path d="M224.5468,35.4201 C220.1298,35.4201 216.5488,31.8391 216.5488,27.4221 C216.5488,23.0051 220.1298,19.4231 224.5468,19.4231 C228.9648,19.4231 232.5458,23.0051 232.5458,27.4221 C232.5458,31.8391 228.9648,35.4201 224.5468,35.4201" id="Fill-1" fill="#F68E1E"></path>
                <g id="Group-5" transform="translate(0.000000, 0.547000)">
                    <mask id="mask-2" fill="white">
                        <use xlink:href="#path-1"></use>
                    </mask>
                    <g id="Clip-4"></g>
                    <path d="M30.9199,65.0645 L17.3809,65.0645 C16.1179,65.0645 14.6299,65.4795 13.7989,66.3095 C12.9679,67.1405 12.5539,68.1535 12.5539,69.3485 L12.5539,72.5515 C12.5539,73.7465 12.9679,74.7605 13.7989,75.5905 C14.6299,76.4205 16.1509,76.6865 17.4139,76.6865 L26.4609,76.6865 C29.4229,76.4225 30.9199,74.4955 30.9199,70.4585 L30.9199,65.0645 Z M216.1289,39.2445 C216.4079,40.4585 216.5499,41.7955 216.5499,43.2535 L216.5499,46.3295 L216.5499,72.2505 L216.5499,75.3285 C216.5499,83.8975 212.1619,88.1825 203.3889,88.1825 L184.0229,88.1825 C180.0999,88.1825 177.1249,86.9865 175.0979,84.5955 C173.0699,82.2025 172.0569,78.9495 172.0569,74.8295 L172.0569,71.7525 L172.0569,46.3295 L172.0569,43.2535 C172.0569,42.1965 172.1269,41.2065 172.2639,40.2785 L172.0549,40.2785 C169.7229,42.0055 166.3989,44.4805 166.3519,44.5825 C166.2579,44.7875 165.4569,42.0335 162.1719,42.0335 C160.5859,42.0335 158.3209,42.0445 156.7539,42.0445 C155.7179,42.0445 152.8949,42.6945 150.9059,44.5825 C148.9189,46.4695 147.9279,49.6485 147.9279,51.9735 L147.9279,88.0495 L143.6729,88.1825 L139.4069,88.1825 L135.0199,88.1605 L135.0199,42.0445 L122.5339,42.0445 L115.9759,42.0445 L115.9759,82.2945 C115.9759,83.5585 116.3899,85.0445 117.2229,85.8755 C118.0529,86.7075 119.0399,87.8295 120.2359,87.8295 L126.9649,87.8295 L121.3389,99.6335 L114.9409,99.6335 C109.3209,99.6335 103.1919,93.3775 103.1919,84.0765 L103.1919,42.0445 L90.9409,42.0445 L90.8909,36.6395 L83.4979,42.0445 L67.2339,42.0445 C66.0379,42.0445 65.3129,42.2435 64.1929,43.2895 C63.0739,44.3355 62.9449,45.1335 62.9449,46.3295 L62.9449,49.3325 C62.9449,50.4615 63.3609,51.4415 64.1929,52.2725 C65.0239,53.1045 66.0039,53.5175 67.1349,53.5175 L76.0409,53.5175 L80.3499,53.5175 C89.5239,53.5175 94.1089,57.9025 94.1089,66.6705 L94.1089,69.7485 L94.1089,71.9515 L94.1089,75.0295 C94.1089,83.7975 89.6039,88.0495 80.6299,88.0495 L67.8319,88.0495 L35.2869,88.0495 L35.2869,82.8655 C35.2869,84.2325 31.2019,88.1825 26.0569,88.1825 L13.5709,88.1825 C4.5959,88.1825 -0.0001,83.7975 -0.0001,75.0295 L-0.0001,71.9515 L-0.0001,69.7485 L-0.0001,66.6705 C-0.0001,57.9685 4.6959,53.5845 13.8699,53.5175 L30.9879,53.4185 L30.9199,46.6285 C30.9199,43.5735 29.3899,42.0445 26.3329,42.0445 L18.1879,42.0445 C15.4209,42.0445 12.6709,42.9045 12.6709,46.3465 L12.6709,49.1045 L8.8109,49.1045 L0.0939,42.7075 L0.0939,42.0445 C0.0939,38.2585 1.7149,35.3805 4.7069,33.1885 C7.1639,31.4615 9.7149,30.5985 12.5729,30.5985 L16.8809,30.5985 L24.8379,30.5985 L29.1489,30.5985 C35.1289,30.5985 39.1819,32.0275 41.3129,34.8825 C42.8399,36.9415 43.6049,40.3635 43.6049,45.1475 L43.6049,48.2235 L43.5709,76.7975 L46.3189,76.7975 L61.5429,76.7975 L66.9339,76.7975 L76.7169,76.8365 C77.9809,76.8365 79.0249,76.4205 79.8579,75.5905 C80.6889,74.7605 81.1049,73.7465 81.1049,72.5515 L81.0709,65.1025 L65.9589,65.1025 L64.5199,65.0645 C59.4009,65.0645 56.1709,64.0345 53.9429,61.9745 C51.7149,59.9165 50.6039,56.5605 50.6039,51.9095 L50.6039,48.8345 L50.6039,47.3255 L50.6039,44.2505 C50.6039,40.3975 51.2339,37.4735 52.4979,35.4815 C54.6239,32.2265 58.1049,30.4875 63.8219,30.4875 L68.1309,30.4875 L103.1359,30.4605 L103.1919,6.9445 L112.0719,0.4525 L116.0429,0.4525 L116.0429,30.4605 L147.9279,30.4605 L147.9359,36.0875 L148.0489,36.0875 C148.8389,33.5235 152.3319,30.4605 157.0849,30.4605 L161.0569,30.4605 C163.3829,30.4605 164.6359,30.6675 167.0139,31.3435 C170.3219,32.3875 172.1399,35.1895 172.5289,35.7555 C172.6369,35.9125 172.8169,36.1965 173.0229,36.5285 L173.3249,36.5285 C175.0859,32.3755 178.9189,30.4875 185.0199,30.4875 L204.3859,30.4875 C207.1259,30.4875 209.4699,31.1645 211.4159,32.4035 L196.3719,42.0445 L189.2309,42.0445 C188.0329,42.0445 187.0199,42.4605 186.1889,43.2895 C185.3569,44.1205 184.9409,45.1335 184.9409,46.3295 L184.9409,72.5515 C184.9409,73.7465 185.3569,74.7605 186.1889,75.5905 C187.0199,76.4205 188.0329,76.8365 189.2309,76.8365 L199.3769,76.8365 C200.6399,76.8365 201.6879,76.4205 202.5199,75.5905 C203.3499,74.7605 203.7639,73.7805 203.7639,72.6505 L203.7639,51.0825 L216.1289,39.2445 Z" id="Fill-3" fill="#FEFEFE" mask="url(#mask-2)"></path>
                </g>
                <path d="M8.2793,112.7843 C7.4053,112.4063 6.4293,112.1873 5.4543,112.1873 C4.4983,112.1873 3.2633,112.6053 3.2633,114.1173 C3.2633,116.5253 9.3553,115.5113 9.3553,120.1683 C9.3553,123.2143 6.9473,124.3683 4.1413,124.3683 C2.6293,124.3683 1.9523,124.1693 0.5783,123.8303 L0.8373,121.3223 C1.7923,121.8403 2.8863,122.1793 3.9823,122.1793 C5.0373,122.1793 6.4503,121.6403 6.4503,120.3873 C6.4503,117.7403 0.3593,118.8343 0.3593,114.2363 C0.3593,111.1323 2.7673,109.9983 5.2153,109.9983 C6.4103,109.9983 7.5243,110.1573 8.5393,110.4953 L8.2793,112.7843 Z" id="Fill-6" fill="#FEFEFE"></path>
                <path d="M13.5332,118.9748 C13.5332,120.4268 14.1092,122.2978 15.8812,122.2978 C17.6332,122.2978 18.1312,120.3868 18.1312,118.9748 C18.1312,117.6008 17.6522,115.7098 15.9222,115.7098 C14.2102,115.7098 13.5332,117.5408 13.5332,118.9748 Z M10.8472,113.8788 L13.3942,113.8788 L13.3942,115.3318 L13.4332,115.3318 C14.0312,114.3368 15.0462,113.6408 16.6182,113.6408 C19.7622,113.6408 20.9172,116.1478 20.9172,118.9748 C20.9172,121.7808 19.7622,124.3688 16.5582,124.3688 C15.4242,124.3688 14.4882,124.0888 13.5542,122.9538 L13.5132,122.9538 L13.5132,128.3078 L10.8472,128.3078 L10.8472,113.8788 Z" id="Fill-8" fill="#FEFEFE"></path>
                <path d="M26.0332,122.4171 C26.8472,122.4171 27.4852,122.0601 27.9042,121.5011 C28.3422,120.9251 28.4612,120.1881 28.4612,119.3921 L27.3062,119.3921 C26.1132,119.3921 24.3422,119.5911 24.3422,121.1631 C24.3422,122.0391 25.0782,122.4171 26.0332,122.4171 Z M22.9082,114.4161 C23.9432,113.9381 25.3372,113.6401 26.4702,113.6401 C29.5962,113.6401 30.8882,114.9341 30.8882,117.9591 L30.8882,119.2721 C30.8882,120.3081 30.9092,121.0841 30.9282,121.8401 C30.9472,122.6161 30.9882,123.3331 31.0472,124.1281 L28.7002,124.1281 C28.6002,123.5921 28.6002,122.9141 28.5802,122.5961 L28.5412,122.5961 C27.9242,123.7301 26.5912,124.3681 25.3772,124.3681 C23.5642,124.3681 21.7952,123.2721 21.7952,121.3221 C21.7952,119.7901 22.5292,118.8951 23.5452,118.3971 C24.5602,117.8981 25.8742,117.8001 26.9882,117.8001 L28.4612,117.8001 C28.4612,116.1471 27.7242,115.5901 26.1522,115.5901 C25.0172,115.5901 23.8842,116.0281 22.9882,116.7051 L22.9082,114.4161 Z" id="Fill-10" fill="#FEFEFE"></path>
                <path d="M39.6328,116.0885 C39.1548,115.8695 38.6378,115.7105 37.8218,115.7105 C36.1698,115.7105 35.1148,117.0235 35.1148,118.9545 C35.1148,120.8445 36.0108,122.2975 37.8808,122.2975 C38.6378,122.2975 39.4738,122.0185 39.9318,121.8205 L40.0508,124.0285 C39.2748,124.2675 38.4788,124.3685 37.3838,124.3685 C34.0218,124.3685 32.3288,122.0795 32.3288,118.9545 C32.3288,115.9885 34.0798,113.6405 37.2838,113.6405 C38.3598,113.6405 39.1348,113.7595 39.8718,113.9785 L39.6328,116.0885 Z" id="Fill-12" fill="#FEFEFE"></path>
                <path d="M47.623,117.9992 C47.543,116.7052 46.945,115.5902 45.453,115.5902 C43.961,115.5902 43.205,116.6252 43.086,117.9992 L47.623,117.9992 Z M49.414,123.5512 C48.438,124.0892 47.325,124.3682 45.892,124.3682 C42.509,124.3682 40.538,122.4172 40.538,119.0532 C40.538,116.0882 42.109,113.6402 45.295,113.6402 C49.096,113.6402 50.17,116.2472 50.17,119.8292 L43.086,119.8292 C43.205,121.4812 44.359,122.4172 46.011,122.4172 C47.305,122.4172 48.419,121.9392 49.414,121.3822 L49.414,123.5512 Z" id="Fill-14" fill="#FEFEFE"></path>
                <path d="M57.3339,110.237 L60.1199,110.237 L60.1199,118.258 C60.1199,120.626 60.8769,122.179 63.0059,122.179 C65.1359,122.179 65.8919,120.626 65.8919,118.258 L65.8919,110.237 L68.6789,110.237 L68.6789,119.113 C68.6789,122.835 66.5679,124.368 63.0059,124.368 C59.4429,124.368 57.3339,122.835 57.3339,119.113 L57.3339,110.237 Z" id="Fill-16" fill="#FEFEFE"></path>
                <polygon id="Fill-18" fill="#FEFEFE" points="74.2695 116.9045 70.1295 110.2375 73.3535 110.2375 76.2595 115.1925 79.2245 110.2375 82.2095 110.2375 78.0315 116.9045 82.5885 124.1285 79.3045 124.1285 76.1005 118.7155 72.8565 124.1285 69.7105 124.1285"></polygon>
                <path d="M92.1201,121.9396 L93.6721,121.9396 C96.0011,121.9396 98.2501,120.2076 98.2501,117.1826 C98.2501,114.1576 96.0011,112.4266 93.6721,112.4266 L92.1201,112.4266 L92.1201,121.9396 Z M89.3331,110.2366 L93.1351,110.2366 C97.3941,110.2366 101.1561,111.6696 101.1561,117.1826 C101.1561,122.6956 97.3941,124.1276 93.1351,124.1276 L89.3331,124.1276 L89.3331,110.2366 Z" id="Fill-20" fill="#FEFEFE"></path>
                <path d="M109.4697,117.9992 C109.3897,116.7052 108.7927,115.5902 107.2997,115.5902 C105.8077,115.5902 105.0507,116.6252 104.9317,117.9992 L109.4697,117.9992 Z M111.2597,123.5512 C110.2857,124.0892 109.1707,124.3682 107.7377,124.3682 C104.3547,124.3682 102.3837,122.4172 102.3837,119.0532 C102.3837,116.0882 103.9557,113.6402 107.1407,113.6402 C110.9427,113.6402 112.0167,116.2472 112.0167,119.8292 L104.9317,119.8292 C105.0507,121.4812 106.2047,122.4172 107.8577,122.4172 C109.1517,122.4172 110.2657,121.9392 111.2597,121.3822 L111.2597,123.5512 Z" id="Fill-22" fill="#FEFEFE"></path>
                <path d="M119.7304,116.0285 C118.9134,115.7505 118.3164,115.5905 117.3404,115.5905 C116.6244,115.5905 115.7694,115.8495 115.7694,116.7245 C115.7694,118.3575 120.4064,117.3225 120.4064,121.0245 C120.4064,123.4125 118.2764,124.3685 116.1064,124.3685 C115.0914,124.3685 114.0574,124.1885 113.0824,123.9285 L113.2414,121.7405 C114.0774,122.1585 114.9524,122.4175 115.8684,122.4175 C116.5454,122.4175 117.6204,122.1585 117.6204,121.1635 C117.6204,119.1535 112.9834,120.5265 112.9834,116.8245 C112.9834,114.6155 114.9134,113.6405 117.0014,113.6405 C118.2564,113.6405 119.0724,113.8395 119.9084,114.0185 L119.7304,116.0285 Z" id="Fill-24" fill="#FEFEFE"></path>
                <mask id="mask-4" fill="white">
                    <use xlink:href="#path-3"></use>
                </mask>
                <g id="Clip-27"></g>
                <path d="M121.968,124.128 L124.635,124.128 L124.635,113.879 L121.968,113.879 L121.968,124.128 Z M121.968,112.008 L124.635,112.008 L124.635,109.461 L121.968,109.461 L121.968,112.008 Z" id="Fill-26" fill="#FEFEFE" mask="url(#mask-4)"></path>
                <path d="M133.6611,118.8947 C133.6611,117.1427 132.9841,115.7097 131.4321,115.7097 C129.6211,115.7097 129.0431,117.3817 129.0431,118.9547 C129.0431,120.3467 129.7791,122.0597 131.3121,122.0597 C132.9841,122.0597 133.6611,120.6057 133.6611,118.8947 Z M136.3281,113.8787 L136.3281,123.1337 C136.3281,125.9197 135.2131,128.5467 130.9141,128.5467 C129.8601,128.5467 128.6461,128.3877 127.3721,127.8507 L127.5911,125.5817 C128.4071,126.0197 129.7401,126.4777 130.5771,126.4777 C133.5221,126.4777 133.6611,124.2677 133.6611,122.4967 L133.6211,122.4967 C133.1251,123.3727 131.9301,124.1277 130.4371,124.1277 C127.4121,124.1277 126.2581,121.7007 126.2581,118.9547 C126.2581,116.4867 127.5311,113.6407 130.5961,113.6407 C131.9501,113.6407 133.0051,114.0977 133.7411,115.2717 L133.7791,115.2717 L133.7791,113.8787 L136.3281,113.8787 Z" id="Fill-28" fill="#FEFEFE" mask="url(#mask-4)"></path>
                <path d="M138.4707,113.8791 L140.9977,113.8791 L140.9977,115.2721 L141.0377,115.2721 C141.8737,114.0981 143.0077,113.6401 144.4017,113.6401 C146.8287,113.6401 147.8847,115.3521 147.8847,117.6601 L147.8847,124.1281 L145.2177,124.1281 L145.2177,118.6551 C145.2177,117.4011 145.1977,115.7101 143.4857,115.7101 C141.5547,115.7101 141.1377,117.8001 141.1377,119.1131 L141.1377,124.1281 L138.4707,124.1281 L138.4707,113.8791 Z" id="Fill-29" fill="#FEFEFE" mask="url(#mask-4)"></path>
                <path d="M163.2666,112.7843 C162.3916,112.4063 161.4156,112.1873 160.4416,112.1873 C159.4866,112.1873 158.2516,112.6053 158.2516,114.1173 C158.2516,116.5253 164.3426,115.5113 164.3426,120.1683 C164.3426,123.2143 161.9336,124.3683 159.1266,124.3683 C157.6156,124.3683 156.9386,124.1693 155.5646,123.8303 L155.8246,121.3223 C156.7796,121.8403 157.8726,122.1793 158.9686,122.1793 C160.0236,122.1793 161.4376,121.6403 161.4376,120.3873 C161.4376,117.7403 155.3456,118.8343 155.3456,114.2363 C155.3456,111.1323 157.7536,109.9983 160.2026,109.9983 C161.3966,109.9983 162.5106,110.1573 163.5256,110.4953 L163.2666,112.7843 Z" id="Fill-30" fill="#FEFEFE" mask="url(#mask-4)"></path>
                <path d="M169.7666,121.3615 L169.8056,121.3615 L172.2746,113.8795 L174.9806,113.8795 L171.1396,124.0485 C170.2836,126.3175 169.6666,128.5475 166.8806,128.5475 C166.2426,128.5475 165.6066,128.4475 164.9896,128.2685 L165.1686,126.2985 C165.5066,126.4175 165.8846,126.4775 166.5416,126.4775 C167.6166,126.4775 168.2726,125.7415 168.2726,124.6455 L164.3536,113.8795 L167.2966,113.8795 L169.7666,121.3615 Z" id="Fill-31" fill="#FEFEFE" mask="url(#mask-4)"></path>
                <path d="M182.0312,116.0285 C181.2152,115.7505 180.6182,115.5905 179.6422,115.5905 C178.9272,115.5905 178.0712,115.8495 178.0712,116.7245 C178.0712,118.3575 182.7082,117.3225 182.7082,121.0245 C182.7082,123.4125 180.5782,124.3685 178.4082,124.3685 C177.3942,124.3685 176.3592,124.1885 175.3842,123.9285 L175.5432,121.7405 C176.3792,122.1585 177.2542,122.4175 178.1702,122.4175 C178.8452,122.4175 179.9222,122.1585 179.9222,121.1635 C179.9222,119.1535 175.2842,120.5265 175.2842,116.8245 C175.2842,114.6155 177.2152,113.6405 179.3042,113.6405 C180.5582,113.6405 181.3742,113.8395 182.2102,114.0185 L182.0312,116.0285 Z" id="Fill-32" fill="#FEFEFE" mask="url(#mask-4)"></path>
                <path d="M185.1064,115.8293 L183.1354,115.8293 L183.1354,113.8793 L185.1064,113.8793 L185.1064,111.8293 L187.7734,110.9733 L187.7734,113.8793 L190.1414,113.8793 L190.1414,115.8293 L187.7734,115.8293 L187.7734,120.6053 C187.7734,121.4813 188.0114,122.2983 189.0254,122.2983 C189.5044,122.2983 189.9624,122.1983 190.2414,122.0183 L190.3214,124.1283 C189.7634,124.2883 189.1464,124.3683 188.3504,124.3683 C186.2594,124.3683 185.1064,123.0743 185.1064,121.0443 L185.1064,115.8293 Z" id="Fill-33" fill="#FEFEFE" mask="url(#mask-4)"></path>
                <path d="M197.7714,117.9992 C197.6904,116.7052 197.0934,115.5902 195.6004,115.5902 C194.1084,115.5902 193.3534,116.6252 193.2334,117.9992 L197.7714,117.9992 Z M199.5624,123.5512 C198.5854,124.0892 197.4714,124.3682 196.0394,124.3682 C192.6554,124.3682 190.6844,122.4172 190.6844,119.0532 C190.6844,116.0882 192.2564,113.6402 195.4424,113.6402 C199.2424,113.6402 200.3174,116.2472 200.3174,119.8292 L193.2334,119.8292 C193.3534,121.4812 194.5064,122.4172 196.1584,122.4172 C197.4524,122.4172 198.5664,121.9392 199.5624,121.3822 L199.5624,123.5512 Z" id="Fill-34" fill="#FEFEFE" mask="url(#mask-4)"></path>
                <path d="M201.8613,113.8791 L204.3503,113.8791 L204.3503,115.3131 L204.3903,115.3131 C205.2263,114.0581 206.4403,113.6401 207.4353,113.6401 C208.8683,113.6401 209.8833,114.1781 210.4613,115.4511 C211.0783,114.2171 212.4103,113.6401 213.6643,113.6401 C216.1923,113.6401 216.9093,115.3711 216.9093,117.6601 L216.9093,124.1281 L214.2423,124.1281 L214.2423,118.0191 C214.2423,117.0641 214.2423,115.7101 212.7103,115.7101 C210.9383,115.7101 210.7193,117.8191 210.7193,119.1531 L210.7193,124.1281 L208.0523,124.1281 L208.0523,118.0191 C208.0523,117.0641 208.0523,115.7101 206.5213,115.7101 C204.7483,115.7101 204.5293,117.8191 204.5293,119.1531 L204.5293,124.1281 L201.8613,124.1281 L201.8613,113.8791 Z" id="Fill-35" fill="#FEFEFE" mask="url(#mask-4)"></path>
            </g>
        </g>
    </g>
</svg>