<svg xmlns="http://www.w3.org/2000/svg" viewBox="0 0 33 36" id="content">
	<title>Astro</title>
	<path d="M25.2258 29.5015H25.1825L25.2024 13.1923V11.4361C25.2024 8.70651 24.7607 6.75398 23.8775 5.57854C22.6475 3.94785 20.3039 3.13251 16.8464 3.13251H7.26768C5.61548 3.13251 4.13757 3.63207 2.7206 4.6116C0.991884 5.8626 0.0538451 7.50402 0.0538451 9.66599V10.0438L5.0912 13.6905H7.32294V12.1162C7.32294 10.1502 8.91279 9.66039 10.5111 9.66039H15.2198C16.9872 9.66132 17.8709 10.5336 17.8709 12.2771L17.9106 16.1519L8.01584 16.2149C2.71493 16.2526 0 18.7546 0 23.7223V28.4926C0 33.5036 2.65683 36 7.84297 36H15.0596C18.0339 36 20.3946 33.7457 20.3946 32.9649V35.9244H25.2258V29.5015ZM10.0464 22.8043H17.8709L17.8667 25.8898C17.8667 28.1945 17.0009 29.2958 15.2892 29.4455H10.0605C9.33505 29.4455 8.4551 29.2874 7.97616 28.8102C7.50283 28.3554 7.24167 27.7271 7.25492 27.0751V25.2475C7.24246 24.5964 7.50356 23.9693 7.97616 23.5152C8.4551 23.0422 9.31663 22.8043 10.0464 22.8043Z" fill="#ffffff"/>
	<path d="M32.0063 2.71349C32.0118 4.21774 30.7632 5.44176 29.2176 5.4474C27.6719 5.45305 26.4145 4.23819 26.409 2.73394C26.4035 1.22968 27.652 0.00566735 29.1977 1.96122e-05C30.7433 -0.00562812 32.0008 1.20923 32.0063 2.71349Z" fill="#ff8c00" />
</svg>