<svg xmlns="http://www.w3.org/2000/svg" width="512" height="512" viewBox="0 0 512 512">
  <defs>
    <linearGradient id="bitbucket-logo-a" x1="108.633%" x2="46.927%" y1="13.689%" y2="78.878%">
      <stop offset="18%" stop-color="#0052CC"/>
      <stop offset="100%" stop-color="#2684FF"/>
    </linearGradient>
  </defs>
  <g fill="none" fill-rule="evenodd" transform="translate(0 25)">
    <path d="M202.402 306L309.218 306 335 155 174 155z"/>
    <path fill="#2684FF" fill-rule="nonzero" d="M16.6161684,0.00131694054 C11.7694632,-0.0600607616 7.14317453,2.02666536 3.9786247,5.70296233 C0.814074862,9.3792593 -0.5647094,14.2687012 0.212226267,19.0593566 L69.8499804,442.3532 C71.6405054,453.045896 80.8403876,460.907496 91.6679034,460.998682 L425.746724,460.998682 C433.872571,461.101009 440.849402,455.231868 442.148666,447.199472 L511.78842,19.1414629 C512.564104,14.3510795 511.184463,9.46243397 508.019616,5.78701291 C504.85477,2.11159186 500.228709,0.0256562482 495.382478,0.0888041902 L16.6161684,0.00131694054 Z M309.847133,305.934642 L203.21751,305.934642 L174.345611,154.899166 L335.685042,154.899166 L309.847133,305.934642 Z"/>
    <path fill="url(#bitbucket-logo-a)" fill-rule="nonzero" d="M489,155 L335.167253,155 L309.349128,305.988731 L202.804611,305.988731 L77,455.580976 C80.9874751,459.034576 86.0711019,460.954889 91.3420696,461 L425.23969,461 C433.359795,461.103417 440.332485,455.236488 441.63177,447.20607 L489,155 Z"/>
  </g>
</svg>
