<svg xmlns="http://www.w3.org/2000/svg" viewBox="0 0 160 95" id="content">
<path d="M12.7556 5.39166C12.7556 3.73481 14.0988 2.39166 15.7556 2.39166H40.0502C41.7071 2.39166 43.0502 3.73481 43.0502 5.39166V9.67588C43.0502 11.3327 41.7071 12.6759 40.0502 12.6759H15.7556C14.0988 12.6759 12.7556 11.3327 12.7556 9.67588V5.39166Z" fill="white"/>
<path d="M17.4354 80.7787C16.9019 80.6358 16.3536 80.9524 16.2107 81.4858L13.0142 93.4151C12.8713 93.9485 13.1879 94.4969 13.7213 94.6398L14.0997 94.7412C14.6331 94.8841 15.1815 94.5676 15.3244 94.0341L18.5208 82.1048C18.6638 81.5714 18.3472 81.023 17.8137 80.8801L17.4354 80.7787Z" fill="white"/>
<path d="M23.2914 82.4692C23.0629 82.2407 23.0635 81.8714 23.2926 81.6435L24.2501 80.6912C24.4797 80.4628 24.852 80.4628 25.0817 80.6912L31.4664 87.0412L31.7004 87.2563C31.853 87.3965 31.9136 87.5979 31.8806 87.7865C31.8618 87.9151 31.7998 88.0385 31.6954 88.1334L31.5507 88.2649L25.0817 94.6987C24.8521 94.9271 24.4798 94.9271 24.2501 94.6987L23.2921 93.7458C23.0632 93.5182 23.0624 93.1493 23.2903 92.9206L28.5067 87.6873L23.2914 82.4692Z" fill="white"/>
<path d="M8.59777 92.9206C8.82622 93.1492 8.82566 93.5185 8.59653 93.7464L7.63903 94.6987C7.40941 94.9271 7.03712 94.9271 6.8075 94.6987L0.422733 88.3486L0.188751 88.1336C0.0361172 87.9933 -0.0244487 87.792 0.00851981 87.6033C0.0273968 87.4747 0.0893227 87.3513 0.193768 87.2565L0.338501 87.125L6.80749 80.6912C7.03711 80.4628 7.4094 80.4628 7.63902 80.6912L8.59707 81.644C8.82599 81.8717 8.82679 82.2406 8.59887 82.4692L3.38241 87.7026L8.59777 92.9206Z" fill="white"/>
<path d="M8.59801 12.4008C8.82646 12.6293 8.82591 12.9986 8.59677 13.2265L7.63928 14.1788C7.40966 14.4072 7.03737 14.4072 6.80775 14.1788L0.422977 7.82875L0.188995 7.61372C0.0363613 7.47346 -0.0242046 7.27213 0.00876395 7.08348C0.027641 6.95485 0.0895669 6.83148 0.194012 6.7366L0.338745 6.60513L6.80773 0.1713C7.03735 -0.0570718 7.40964 -0.0570718 7.63926 0.1713L8.59732 1.12415C8.82623 1.35182 8.82704 1.7207 8.59912 1.94936L3.38266 7.18269L8.59801 12.4008Z" fill="white"/>
<path d="M47.2077 1.94934C46.9792 1.72078 46.9798 1.35146 47.2089 1.12357L48.1664 0.171279C48.396 -0.0570932 48.7683 -0.0570929 48.9979 0.171279L55.3827 6.52135L55.6167 6.73637C55.7693 6.87664 55.8299 7.07797 55.7969 7.26662C55.778 7.39525 55.7161 7.51862 55.6117 7.61349L55.4669 7.74497L48.9979 14.1788C48.7683 14.4072 48.396 14.4072 48.1664 14.1788L47.2083 13.2259C46.9794 12.9983 46.9786 12.6294 47.2065 12.4007L52.423 7.16741L47.2077 1.94934Z" fill="white"/>
<path d="M0.000488281 21.3362C0.000488281 19.6793 1.34363 18.3362 3.00049 18.3362H73.2568C74.9137 18.3362 76.2568 19.6793 76.2568 21.3362V25.6204C76.2568 27.2773 74.9137 28.6204 73.2568 28.6204H3.00049C1.34363 28.6204 0.000488281 27.2773 0.000488281 25.6204V21.3362Z" fill="#FAD800"/>
<path d="M80.5894 21.3362C80.5894 19.6793 81.9325 18.3362 83.5894 18.3362H156.445C158.102 18.3362 159.445 19.6793 159.445 21.3362V25.6204C159.445 27.2773 158.102 28.6204 156.445 28.6204H83.5894C81.9325 28.6204 80.5894 27.2773 80.5894 25.6204V21.3362Z" fill="#00AD23"/>
<path d="M0.000488281 36.7625C0.000488281 35.1057 1.34363 33.7625 3.00049 33.7625H156.446C158.102 33.7625 159.446 35.1057 159.446 36.7625V41.0467C159.446 42.7036 158.102 44.0467 156.446 44.0467H3.00049C1.34364 44.0467 0.000488281 42.7036 0.000488281 41.0467V36.7625Z" fill="#20A9D5"/>
<path d="M110.053 52.1888C110.053 50.532 111.396 49.1888 113.053 49.1888H156.446C158.103 49.1888 159.446 50.532 159.446 52.1888V56.4731C159.446 58.1299 158.103 59.4731 156.446 59.4731H113.053C111.396 59.4731 110.053 58.1299 110.053 56.4731V52.1888Z" fill="#FF2A04"/>
<path d="M0.000488281 52.1888C0.000488281 50.532 1.34363 49.1888 3.00049 49.1888H32.529C34.1859 49.1888 35.529 50.532 35.529 52.1888V56.4731C35.529 58.1299 34.1859 59.4731 32.529 59.4731H3.00048C1.34363 59.4731 0.000488281 58.1299 0.000488281 56.4731V52.1888Z" fill="#FF2A04"/>
<path d="M39.8618 52.1888C39.8618 50.532 41.205 49.1888 42.8618 49.1888H102.72C104.376 49.1888 105.72 50.532 105.72 52.1888V56.4731C105.72 58.1299 104.376 59.4731 102.72 59.4731H42.8618C41.205 59.4731 39.8618 58.1299 39.8618 56.4731V52.1888Z" fill="#FAD800"/>
<path d="M159.445 71.8994C159.445 73.5563 158.102 74.8994 156.445 74.8994L113.052 74.8994C111.395 74.8994 110.052 73.5563 110.052 71.8994L110.052 67.6152C110.052 65.9583 111.395 64.6152 113.052 64.6152L156.445 64.6152C158.102 64.6152 159.445 65.9583 159.445 67.6152L159.445 71.8994Z" fill="#20A9D5"/>
<path d="M65.8582 71.8994C65.8582 73.5563 64.515 74.8994 62.8582 74.8994L3.00042 74.8994C1.34357 74.8994 0.000419716 73.5563 0.000419838 71.8994L0.000420153 67.6152C0.000420275 65.9583 1.34357 64.6152 3.00042 64.6152L62.8582 64.6152C64.515 64.6152 65.8582 65.9583 65.8582 67.6152L65.8582 71.8994Z" fill="#20A9D5"/>
</svg>
