<svg xmlns="http://www.w3.org/2000/svg" viewBox="0 0 196 103" fill="none" id="content">
<rect x="20" y="1" width="166" height="92.366" rx="2" stroke="white" stroke-width="2"/>
<path d="M19 11.4383H187" stroke="white" stroke-width="2"/>
<path d="M1.28931 18.7277C1.28931 17.6231 2.18474 16.7277 3.28931 16.7277H66.634C67.7386 16.7277 68.634 17.6231 68.634 18.7277V49.1872C68.634 50.2918 67.7386 51.1872 66.634 51.1872H3.2893C2.18474 51.1872 1.28931 50.2918 1.28931 49.1872V18.7277Z" fill="#1C3F5E" stroke="white" stroke-width="2"/>
<path d="M23.2891 58.0468C23.2891 56.39 24.6322 55.0468 26.2891 55.0468H62.4678C64.1246 55.0468 65.4678 56.39 65.4678 58.0468V87.0766C65.4678 88.7335 64.1246 90.0766 62.4678 90.0766H26.2891C24.6322 90.0766 23.2891 88.7335 23.2891 87.0766V58.0468Z" fill="white"/>
<path d="M70.4719 58.0468C70.4719 56.39 71.8151 55.0468 73.4719 55.0468H179.71C181.367 55.0468 182.71 56.39 182.71 58.0468V87.0766C182.71 88.7335 181.367 90.0766 179.71 90.0766H73.4719C71.8151 90.0766 70.4719 88.7335 70.4719 87.0766V58.0468Z" fill="white"/>
<path d="M1.00391 17.1575L68.9188 50.7575" stroke="white" stroke-width="2"/>
<path d="M68.9189 17.1575L1.00405 50.7575" stroke="white" stroke-width="2"/>
<path d="M158 69C158 67.8954 158.895 67 160 67H192C193.104 67 194 67.8954 194 69V99.4596C194 100.564 193.104 101.46 192 101.46H160C158.895 101.46 158 100.564 158 99.4596V69Z" fill="#1C3F5E" stroke="white" stroke-width="2"/>
<path d="M157.392 67.4298L194.608 101.03" stroke="white" stroke-width="2"/>
<path d="M194.608 67.4298L157.391 101.03" stroke="white" stroke-width="2"/>
<path d="M95.4934 29.5958C95.4934 29.0435 95.9411 28.5958 96.4934 28.5958H131.668C132.22 28.5958 132.668 29.0435 132.668 29.5958V31.1702C132.668 31.7225 132.22 32.1702 131.668 32.1702H96.4934C95.9411 32.1702 95.4934 31.7225 95.4934 31.1702V29.5958Z" fill="white"/>
<path d="M95.4934 23.1617C95.4934 22.6094 95.9411 22.1617 96.4934 22.1617H131.668C132.22 22.1617 132.668 22.6094 132.668 23.1617V24.7362C132.668 25.2884 132.22 25.7362 131.668 25.7362H96.4934C95.9411 25.7362 95.4934 25.2884 95.4934 24.7362V23.1617Z" fill="white"/>
<path d="M95.4934 16.7277C95.4934 16.1754 95.9411 15.7277 96.4934 15.7277H131.668C132.22 15.7277 132.668 16.1754 132.668 16.7277V18.3021C132.668 18.8544 132.22 19.3021 131.668 19.3021H96.4934C95.9411 19.3021 95.4934 18.8544 95.4934 18.3021V16.7277Z" fill="white"/>
<path d="M22.5745 5.28937C22.5745 4.73708 23.0222 4.28937 23.5745 4.28937H41.5915C42.1438 4.28937 42.5915 4.73708 42.5915 5.28937V6.86384C42.5915 7.41612 42.1438 7.86384 41.5915 7.86384H23.5745C23.0222 7.86384 22.5745 7.41612 22.5745 6.86384V5.28937Z" fill="white"/>
<path d="M95.4934 42.4638C95.4934 41.9115 95.9411 41.4638 96.4934 41.4638H181.71C182.263 41.4638 182.71 41.9115 182.71 42.4638V44.0383C182.71 44.5906 182.263 45.0383 181.71 45.0383H96.4934C95.9411 45.0383 95.4934 44.5906 95.4934 44.0383V42.4638Z" fill="white"/>
<path d="M95.4934 36.0298C95.4934 35.4775 95.9411 35.0298 96.4934 35.0298H181.71C182.263 35.0298 182.71 35.4775 182.71 36.0298V37.6043C182.71 38.1565 182.263 38.6043 181.71 38.6043H96.4934C95.9411 38.6043 95.4934 38.1565 95.4934 37.6043V36.0298Z" fill="white"/>
<path d="M95.4934 48.8979C95.4934 48.3456 95.9411 47.8979 96.4934 47.8979H181.71C182.263 47.8979 182.71 48.3456 182.71 48.8979V50.4724C182.71 51.0246 182.263 51.4724 181.71 51.4724H96.4934C95.9411 51.4724 95.4934 51.0246 95.4934 50.4724V48.8979Z" fill="white"/>
</svg>
