<svg xmlns="http://www.w3.org/2000/svg" viewBox="0 0 196 103" fill="none" id="content">
<rect x="18.9841" y="1" width="159.476" height="92.366" rx="2" stroke="white" stroke-width="2"/>
<path d="M17.9841 11.4385H179.46" stroke="white" stroke-width="2"/>
<path d="M3 16.7275H63.6517C64.7562 16.7275 65.6517 17.623 65.6517 18.7275V49.1871C65.6517 50.2917 64.7562 51.1871 63.6517 51.1871H3C1.89543 51.1871 1 50.2917 1 49.1871V18.7275C1 17.623 1.89543 16.7275 3 16.7275Z" fill="#1C3F5E" stroke="#FFAF3D" stroke-width="2"/>
<path d="M23 58.0469C23 56.39 24.3431 55.0469 26 55.0469H60.5407C62.1976 55.0469 63.5407 56.39 63.5407 58.0469V87.0767C63.5407 88.7335 62.1976 90.0767 60.5407 90.0767H26C24.3431 90.0767 23 88.7335 23 87.0767V58.0469Z" fill="#2DCCFF"/>
<path d="M67 58.0469C67 56.39 68.3431 55.0469 70 55.0469H171.88C173.536 55.0469 174.88 56.39 174.88 58.0469V87.0767C174.88 88.7335 173.536 90.0767 171.88 90.0767H70C68.3431 90.0767 67 88.7335 67 87.0767V58.0469Z" fill="#2DCCFF"/>
<path d="M0.687012 17.1572L65.9644 50.7572" stroke="#FFAF3D" stroke-width="2"/>
<path d="M65.9646 17.1572L0.68718 50.7572" stroke="#FFAF3D" stroke-width="2"/>
<path d="M153.625 67H184.149C185.254 67 186.149 67.8954 186.149 69V99.4596C186.149 100.564 185.254 101.46 184.149 101.46H153.625C152.52 101.46 151.625 100.564 151.625 99.4596V69C151.625 67.8954 152.52 67 153.625 67Z" fill="#1C3F5E" stroke="#FFAF3D" stroke-width="2"/>
<path d="M152 68L186 101" stroke="#FFAF3D" stroke-width="2"/>
<path d="M186 68L152 101" stroke="#FFAF3D" stroke-width="2"/>
<path d="M91 16.7275C91 16.1753 91.4477 15.7275 92 15.7275H125.731C126.283 15.7275 126.731 16.1753 126.731 16.7275V18.302C126.731 18.8543 126.283 19.302 125.731 19.302H92C91.4477 19.302 91 18.8543 91 18.302V16.7275Z" fill="#A4ABB6"/>
<path d="M92 22.1621C91.4477 22.1621 91 22.6098 91 23.1621V24.7366C91 25.2889 91.4477 25.7366 92 25.7366H125.731C126.283 25.7366 126.731 25.2889 126.731 24.7366V23.1621C126.731 22.6098 126.283 22.1621 125.731 22.1621H92Z" fill="#A4ABB6"/>
<path d="M92 28.5957C91.4477 28.5957 91 29.0434 91 29.5957V31.1702C91 31.7225 91.4477 32.1702 92 32.1702H125.731C126.283 32.1702 126.731 31.7225 126.731 31.1702V29.5957C126.731 29.0434 126.283 28.5957 125.731 28.5957H92Z" fill="#A4ABB6"/>
<path d="M92 41.4639C91.4477 41.4639 91 41.9116 91 42.4639V44.0383C91 44.5906 91.4477 45.0383 92 45.0383H173.83C174.382 45.0383 174.83 44.5906 174.83 44.0383V42.4639C174.83 41.9116 174.382 41.4639 173.83 41.4639H92Z" fill="#A4ABB6"/>
<path d="M91 36.0303C91 35.478 91.4477 35.0303 92 35.0303H173.83C174.382 35.0303 174.83 35.478 174.83 36.0303V37.6047C174.83 38.157 174.382 38.6047 173.83 38.6047H92C91.4477 38.6047 91 38.157 91 37.6047V36.0303Z" fill="#A4ABB6"/>
<path d="M92 47.8975C91.4477 47.8975 91 48.3452 91 48.8975V50.4719C91 51.0242 91.4477 51.4719 92 51.4719H173.83C174.382 51.4719 174.83 51.0242 174.83 50.4719V48.8975C174.83 48.3452 174.382 47.8975 173.83 47.8975H92Z" fill="#A4ABB6"/>
<path d="M23 5.28906C23 4.73678 23.4477 4.28906 24 4.28906H41.2397C41.7919 4.28906 42.2397 4.73678 42.2397 5.28906V6.86353C42.2397 7.41582 41.7919 7.86353 41.2397 7.86353H24C23.4477 7.86353 23 7.41582 23 6.86353V5.28906Z" fill="#FFAF3D"/>
</svg>
