<svg xmlns="http://www.w3.org/2000/svg" fill="none" viewBox="0 0 36 36">
<rect width="36" height="36" rx="3" fill="#2867B2"/>
<path fill-rule="evenodd" clip-rule="evenodd" d="M11 8C11 9.65685 9.65685 11 8 11C6.34315 11 5 9.65685 5 8C5 6.34315 6.34315 5 8 5C9.65685 5 11 6.34315 11 8ZM11 13.5V31H5V13.5H11ZM24.625 13.0996C29.4062 13.0996 31 15.1453 31 20.7246V30.9996H25.6875V20.771C25.6875 19.0764 24.2604 17.7025 22.5 17.7025C20.7396 17.7025 19.3125 19.0764 19.3125 20.771V30.9996H14V13.611H19.3125V15.843C20.4546 14.1894 22.4076 13.0996 24.625 13.0996Z" fill="white"/>
</svg>