<svg xmlns="http://www.w3.org/2000/svg" viewBox="0 0 32 32">
  <path fill="#fff" d="M25.253 9.493L22.746.266c-.035-.195-.124-.355-.267-.48C22.333-.34 22.173-.4 22-.4H10c-.18 0-.34.06-.48.186-.143.125-.232.285-.268.48L6.745 9.493 7.812 12.8H23.6l1.653-3.307zm6.747.774v18.667h-5.333V23.6H5.334v5.334H0V10.267h5.334L8 15.6h16l2.668-5.333H32zm-8.507 16.64l1.013 4.053c.035.178.004.33-.093.453-.097.124-.235.186-.413.187H8c-.178 0-.316-.062-.413-.187-.097-.125-.128-.276-.093-.453l1.013-4.053c.035-.178.138-.33.307-.453.17-.124.343-.186.52-.187h13.333c.178 0 .35.062.52.187.17.125.27.276.307.453z"/>
</svg>