<?xml version="1.0" encoding="UTF-8"?>
<svg width="33px" height="56px" viewBox="0 0 33 56" version="1.1" xmlns="http://www.w3.org/2000/svg" xmlns:xlink="http://www.w3.org/1999/xlink">
    <!-- Generator: Sketch 49.1 (51147) - http://www.bohemiancoding.com/sketch -->
    <title>Group 12</title>
    <desc>Created with Sketch.</desc>
    <defs></defs>
    <g id="Page-3-Copy" stroke="none" stroke-width="1" fill="none" fill-rule="evenodd">
        <g id="astro-2.0_v1.1_landing" transform="translate(-951.000000, -2566.000000)">
            <g id="Group-14" transform="translate(215.000000, 2566.000000)">
                <g id="Group-18" transform="translate(459.000000, 0.000000)">
                    <g id="Group-13" transform="translate(180.000000, 0.000000)">
                        <g id="Group-12" transform="translate(97.000000, 0.000000)">
                            <g id="Group-9" transform="translate(0.000000, 45.292971)" fill-rule="nonzero">
                                <path d="M1.79049027,10.3497645 L1.79049027,9.99498687 L0.528735383,9.99498687 C0.441614212,9.99498687 0.402559894,9.94883694 0.402559894,9.86519018 L0.402559894,9.44407199 C0.402559894,9.35465648 0.441614212,9.3142753 0.528735383,9.3142753 L1.79049027,9.3142753 L1.79049027,8.95949765 L0.438610034,8.95949765 C0.138192202,8.95949765 0,9.10660057 0,9.4036908 L0,9.90845574 C0,10.205546 0.138192202,10.3497645 0.438610034,10.3497645 L1.79049027,10.3497645 Z M3.69213515,10.3497645 C3.99555715,10.3497645 4.13074517,10.205546 4.13074517,9.90845574 L4.13074517,9.4036908 C4.13074517,9.10660057 3.99555715,8.95949765 3.69213515,8.95949765 L2.66170198,8.95949765 C2.36451364,8.95949765 2.22632144,9.10660057 2.22632144,9.4036908 L2.22632144,9.90845574 C2.22632144,10.205546 2.36451364,10.3497645 2.66177709,10.3497645 L3.69213515,10.3497645 Z M3.72818529,9.86519018 C3.72818529,9.94883694 3.68898076,9.99498687 3.6020098,9.99498687 L2.75182733,9.99498687 C2.66771034,9.99498687 2.62865603,9.94883694 2.62865603,9.86519018 L2.62865603,9.44407199 C2.62865603,9.35465648 2.66771034,9.3142753 2.75182733,9.3142753 L3.6020098,9.3142753 C3.68898076,9.3142753 3.72818529,9.35465648 3.72818529,9.44407199 L3.72818529,9.86519018 Z M7.11990259,10.3353427 L7.11990259,9.40080643 C7.11990259,9.10660057 6.97855601,8.95949765 6.67528421,8.95949765 L4.56935521,8.95949765 L4.56935521,10.3353427 L4.97191511,10.3353427 L4.97191511,9.3142753 L5.64485104,9.3142753 L5.64485104,10.3353427 L6.04741094,10.3353427 L6.04741094,9.3142753 L6.57314214,9.3142753 C6.66927585,9.3142753 6.7171925,9.35754085 6.7171925,9.44118763 L6.7171925,10.3353427 L7.11990259,10.3353427 Z M10.0940391,10.3353427 L10.0940391,9.40080643 C10.0940391,9.10660057 9.95284273,8.95949765 9.64942074,8.95949765 L7.54048756,8.95949765 L7.54048756,10.3353427 L7.94605164,10.3353427 L7.94605164,9.3142753 L8.61598339,9.3142753 L8.61598339,10.3353427 L9.01854329,10.3353427 L9.01854329,9.3142753 L9.54427449,9.3142753 C9.64341237,9.3142753 9.68847505,9.35754085 9.68847505,9.44118763 L9.68847505,10.3353427 L10.0940391,10.3353427 Z M12.4222773,10.3497645 L12.4222773,8.9739195 L12.0167132,8.9739195 L12.0167132,9.99498687 L11.0433595,9.99498687 C10.9623969,9.99498687 10.917184,9.95172131 10.917184,9.86807454 L10.917184,8.9739195 L10.5146241,8.9739195 L10.5146241,9.90845574 C10.5146241,10.2026616 10.6528163,10.3497645 10.9470756,10.3497645 L12.4221271,10.3497645 L12.4222773,10.3497645 Z M14.792574,10.3353427 L14.792574,9.40080643 C14.792574,9.10660057 14.6512274,8.95949765 14.3537387,8.95949765 L12.8849208,8.95949765 L12.8849208,10.3353427 L13.2904848,10.3353427 L13.2904848,9.3142753 L14.2636884,9.3142753 C14.3478054,9.3142753 14.3898639,9.35754085 14.3898639,9.44118763 L14.3898639,10.3353427 L14.7926491,10.3353427 L14.792574,10.3353427 Z M15.2401966,10.3353427 L15.6426063,10.3353427 L15.6426063,8.9739195 L15.2400464,8.9739195 L15.2400464,10.3353427 L15.2401966,10.3353427 Z M17.8718568,10.3497645 L17.8718568,9.99498687 L16.613106,9.99498687 C16.5259849,9.99498687 16.4869306,9.94883694 16.4869306,9.86519018 L16.4869306,9.44407199 C16.4869306,9.35465648 16.5259849,9.3142753 16.613106,9.3142753 L17.8718568,9.3142753 L17.8718568,8.95949765 L16.5229807,8.95949765 C16.2225629,8.95949765 16.0843707,9.10660057 16.0843707,9.4036908 L16.0843707,9.90845574 C16.0843707,10.205546 16.2225629,10.3497645 16.5229807,10.3497645 L17.8718568,10.3497645 Z M20.5123041,10.3468801 L20.5123041,9.41811265 C20.5123041,9.10660057 20.374112,8.95949765 20.0649069,8.95949765 L18.4276298,8.95949765 L18.4276298,9.3142753 L19.9567564,9.3142753 C20.0616773,9.3142753 20.1069654,9.36330961 20.1069654,9.46714695 L20.1069654,9.56809994 L18.721889,9.56809994 C18.4785506,9.56809994 18.3914294,9.64309359 18.3914294,9.8132715 L18.3914294,10.0151775 C18.3914294,10.2315053 18.4785506,10.3468801 18.721889,10.3468801 L20.5123792,10.3468801 L20.5123041,10.3468801 Z M20.1068903,9.99498687 L18.8901981,9.99498687 C18.8209518,9.99498687 18.7940644,9.96614317 18.7940644,9.90845574 L18.7940644,9.82769336 C18.7940644,9.77000592 18.8209518,9.74116222 18.8901981,9.74116222 L20.1068903,9.74116222 L20.1068903,9.99498687 Z M22.0987356,10.3353427 L22.0987356,9.3142753 L22.8347594,9.3142753 L22.8347594,8.95949765 L20.963006,8.95949765 L20.963006,9.3142753 L21.6961757,9.3142753 L21.6961757,10.3353427 L22.0987356,10.3353427 Z M23.1650688,10.3353427 L23.567854,10.3353427 L23.567854,8.9739195 L23.1651437,8.9739195 L23.1651437,10.3353427 L23.1650688,10.3353427 Z M25.6286452,10.3497645 C25.929063,10.3497645 26.067105,10.205546 26.067105,9.90845574 L26.067105,9.4036908 C26.067105,9.10660057 25.9289127,8.95949765 25.628495,8.95949765 L24.5982119,8.95949765 C24.3007983,8.95949765 24.159602,9.10660057 24.159602,9.4036908 L24.159602,9.90845574 C24.159602,10.205546 24.3007983,10.3497645 24.5982119,10.3497645 L25.6286452,10.3497645 Z M25.6646954,9.86519018 C25.6646954,9.94883694 25.6256409,9.99498687 25.5385199,9.99498687 L24.6883373,9.99498687 C24.6040701,9.99498687 24.5650158,9.94883694 24.5650158,9.86519018 L24.5650158,9.44407199 C24.5650158,9.35465648 24.6040701,9.3142753 24.6881872,9.3142753 L25.5383696,9.3142753 C25.6254908,9.3142753 25.6645451,9.35465648 25.6645451,9.44407199 L25.6645451,9.86519018 L25.6646954,9.86519018 Z M28.5036439,10.3353427 L28.5036439,9.40080643 C28.5036439,9.10660057 28.3624474,8.95949765 28.0620297,8.95949765 L26.5959906,8.95949765 L26.5959906,10.3353427 L26.9987758,10.3353427 L26.9987758,9.3142753 L27.9719793,9.3142753 C28.0591005,9.3142753 28.0981547,9.35754085 28.0981547,9.44118763 L28.0981547,10.3353427 L28.5038691,10.3353427 L28.5036439,10.3353427 Z M30.5613557,10.3468801 C30.8076984,10.3468801 30.8948195,10.2315053 30.8948195,10.0151775 L30.8948195,9.80173401 C30.8948195,9.64309359 30.8076984,9.56809994 30.5613557,9.56809994 L29.4769976,9.56809994 C29.416914,9.56809994 29.3928805,9.53637187 29.3928805,9.47868445 L29.3928805,9.4036908 C29.3928805,9.343119 29.416914,9.3142753 29.4769976,9.3142753 L30.8589196,9.3142753 L30.8589196,8.95949765 L29.3206302,8.95949765 C29.0774418,8.95949765 28.9873916,9.08064123 28.9873916,9.29408469 L28.9873916,9.50464378 C28.9873916,9.66616858 29.0775169,9.74116222 29.3207051,9.74116222 L30.4112218,9.74116222 C30.4684514,9.74116222 30.4924849,9.77577467 30.4924849,9.82769336 L30.4924849,9.90845574 C30.4924849,9.96614317 30.4654473,9.99498687 30.4053637,9.99498687 L28.9873916,9.99498687 L28.9873916,10.3468801 L30.5614308,10.3468801 L30.5613557,10.3468801 Z" id="wordmark-rocket" fill="#F2F2F2"></path>
                                <path d="M3.18388278,7.31455725 L2.00344322,4.37841077 L1.35765568,4.37841077 L1.35765568,7.31455725 L0,7.31455725 L0,0.100199414 L1.9643956,0.100199414 C3.59538462,0.100199414 4.37333333,0.898758383 4.37333333,2.25904135 C4.37333333,3.15779973 4.05794871,3.80757774 3.30102563,4.09906695 L4.63765568,7.31455725 L3.18388278,7.31455725 Z M1.35765568,3.2365929 L2.05450549,3.2365929 C2.65223443,3.2365929 3.01567766,2.93903101 3.01567766,2.23786283 C3.01567766,1.53950328 2.65223443,1.23890503 2.05450549,1.23890503 L1.35765568,1.23890503 L1.35765568,3.23674473 L1.35765568,3.2365929 Z M5.59282052,2.41996768 C5.59282052,0.640668983 6.51494505,0 7.83355311,0 C9.1491575,0 10.0742857,0.640668983 10.0742857,2.41996768 L10.0742857,4.99782534 C10.0742857,6.77712403 9.1491575,7.41475667 7.83355311,7.41475667 C6.51494505,7.41475667 5.59282052,6.77712403 5.59282052,4.99782534 L5.59282052,2.41996768 Z M6.94747253,5.17696976 C6.94747253,5.97552872 7.2927436,6.19718196 7.83355311,6.19718196 C8.37421245,6.19718196 8.71663003,5.97552872 8.71663003,5.17696976 L8.71663003,2.23778691 C8.71663003,1.43922795 8.37421245,1.22061105 7.83355311,1.22061105 C7.2927436,1.22061105 6.94747253,1.43922795 6.94747253,2.23778691 L6.94747253,5.17696976 Z M12.7685714,5.17696976 C12.7685714,5.97552872 13.1139927,6.19703016 13.654652,6.19703016 C14.1953113,6.19703016 14.5375788,5.97537689 14.5375788,5.17681793 L14.5375788,4.69707527 L15.8953846,4.69707527 L15.8953846,4.99782534 C15.8953846,6.77712403 14.9702564,7.41475667 13.654652,7.41475667 C12.3358187,7.41475667 11.4139194,6.77712403 11.4139194,4.99782534 L11.4139194,2.41996768 C11.4139194,0.640668983 12.3358187,0 13.654652,0 C14.9702564,0 15.8953846,0.640668983 15.8953846,2.41996768 L15.8953846,2.43818575 L14.5375788,2.43818575 L14.5375788,2.23778691 C14.5375788,1.43922795 14.1951612,1.22061105 13.654652,1.22061105 C13.1139927,1.22061105 12.7685714,1.43922795 12.7685714,2.23778691 L12.7685714,5.17696976 Z M17.2408755,7.31455725 L17.2408755,0.100199414 L18.5986813,0.100199414 L18.5986813,3.07885474 L18.6165531,3.07885474 L20.3768498,0.100199414 L21.8605091,0.100199414 L20.0312783,3.00886695 L22.0677618,7.31455725 L20.5419011,7.31455725 L19.1271758,4.2873204 L18.5986813,5.10713379 L18.5986813,7.31455725 L17.2408755,7.31455725 Z M23.0619744,7.31455725 L23.0619744,0.100199414 L26.7775055,0.100199414 L26.7775055,1.31777412 L24.4167766,1.31777412 L24.4167766,2.97865532 L26.2158206,2.97865532 L26.2158206,4.19623002 L24.4167766,4.19623002 L24.4167766,6.09698256 L26.8737728,6.09698256 L26.8737728,7.31455725 L23.0619744,7.31455725 Z M32.4395604,0.100199414 L32.4395604,1.31777412 L30.8564799,1.31777412 L30.8564799,7.31455725 L29.5018278,7.31455725 L29.5018278,1.31777412 L27.9191227,1.31777412 L27.9191227,0.100199414 L32.4395604,0.100199414 Z" id="wordmark-communications" fill="#FFFFFF"></path>
                            </g>
                            <g id="rocket-logo-white">
                                <path d="M15.2278357,36.9079519 C13.8720645,36.1703348 13.1737242,35.3815361 12.4500555,33.9123232 L7.66202705,36.0890464 L7.66202705,36.9079519 C7.66202705,37.7298681 7.66202705,37.7298681 6.85565335,37.7298681 C6.85565335,37.7298681 6.04927965,37.7930924 6.04927965,37.3174047 L6.04927965,30.7571284 C6.04927965,28.2974011 6.85565335,28.2974011 6.85565335,28.2974011 C7.66202705,28.2974011 7.66202705,29.9382228 7.66202705,30.7571284 L12.5002693,24.6063048 L12.5002693,10.663836 C12.5002693,10.2513726 12.882706,7.38219252 15.3016795,2.45972728 L15.3016795,0 L2.09420863,0 C0.51099872,0.192683655 0,1.23136898 0,2.86918004 L0,15.9927433 C2.01741113,16.4052068 3.85464353,18.4735454 3.85464353,20.9001552 C3.85464353,23.3267649 2.01741113,25.4252104 0,25.8346631 L0,38.1393209 C0,39.7801426 0.51099872,40.818828 2.09420863,41.0085009 L15.3016795,41.0085009 L15.3016795,36.9079519 L15.2278357,36.9079519 Z" id="left" fill="#FFA301"></path>
                                <path d="M17.2117247,36.9079519 C18.5674959,36.1703348 19.2658362,35.3815361 19.9895049,33.9123232 L24.7775334,36.0890464 L24.7775334,36.9079519 C24.7775334,37.7298681 24.7775334,37.7298681 25.5839071,37.7298681 C25.5839071,37.7298681 26.3902808,37.7930924 26.3902808,37.3174047 L26.3902808,30.7571284 C26.3902808,28.2974011 25.5839071,28.2974011 25.5839071,28.2974011 C24.7775334,28.2974011 24.7775334,29.9382228 24.7775334,30.7571284 L19.9392912,24.6063048 L19.9392912,10.663836 C19.9392912,10.2513726 19.5568544,7.38219252 17.137881,2.45972728 L17.137881,0 L30.3453518,0 C31.9285617,0.192683655 32.4395604,1.23136898 32.4395604,2.86918004 L32.4395604,15.9927433 C30.4221493,16.4052068 28.5849169,18.4735454 28.5849169,20.9001552 C28.5849169,23.3267649 30.4221493,25.4252104 32.4395604,25.8346631 L32.4395604,38.1393209 C32.4395604,39.7801426 31.9285617,40.818828 30.3453518,41.0085009 L17.137881,41.0085009 L17.137881,36.9079519 L17.2117247,36.9079519 Z" id="right" fill="#FF8100"></path>
                                <path d="M16.8610138,1.29857236e-14 L16.8610138,2.45972728 C19.3337072,7.38219252 19.724637,10.2513726 19.724637,10.663836 L19.724637,24.6063048 L24.6703258,30.7571284 C24.6703258,29.9382228 24.6703258,28.2974011 25.4946072,28.2974011 C25.4946072,28.2974011 26.3188887,28.2974011 26.3188887,30.7571284 L26.3188887,37.3174047 C26.3188887,37.7930924 25.4946072,37.7298681 25.4946072,37.7298681 C24.6703258,37.7298681 24.6703258,37.7298681 24.6703258,36.9079519 L24.6703258,36.0890464 L19.7759659,33.9123232 C19.0362262,35.3815361 18.3223773,36.1703348 16.9364975,36.9079519 L16.8610138,36.9079519 L16.8610138,41.0085009 L15.5785466,41.0085009 L15.5785466,36.9079519 L15.503063,36.9079519 C14.1171832,36.1703348 13.4033343,35.3815361 12.6635945,33.9123232 L7.76923469,36.0890464 L7.76923469,36.9079519 C7.76923469,37.7298681 7.76923469,37.7298681 6.94495323,37.7298681 C6.94495323,37.7298681 6.12067178,37.7930924 6.12067178,37.3174047 L6.12067178,30.7571284 C6.12067178,28.2974011 6.94495323,28.2974011 6.94495323,28.2974011 C7.76923469,28.2974011 7.76923469,29.9382228 7.76923469,30.7571284 L12.7149234,24.6063048 L12.7149234,10.663836 C12.7149234,10.2513726 13.1058532,7.38219252 15.5785466,2.45972728 L15.5785466,0 L16.8610138,0 Z" id="rocket" fill-opacity="0" fill="#FFFFFF"></path>
                            </g>
                        </g>
                    </g>
                </g>
            </g>
        </g>
    </g>
</svg>