<svg xmlns="http://www.w3.org/2000/svg" viewBox="0 0 32 32">
  <path fill="#fff" d="M23.61 19.472l7.757 7.757c.12.13.18.29.18.46 0 .17-.06.322-.18.46l-2.82 2.82c-.137.12-.292.18-.465.18-.172 0-.327-.06-.465-.18l-7.758-7.76c-2.06 1.347-4.31 2.017-6.75 2.017-3.45 0-6.4-1.224-8.85-3.67C1.814 19.113.59 16.165.59 12.72c0-3.448 1.225-6.396 3.673-8.844C6.713 1.43 9.663.204 13.11.204c3.448 0 6.396 1.224 8.844 3.672 2.448 2.447 3.672 5.395 3.672 8.842 0 2.45-.672 4.697-2.017 6.75zm-19.06-6.75c0 2.345.837 4.353 2.51 6.025 1.672 1.672 3.69 2.508 6.05 2.51 2.362 0 4.375-.832 6.04-2.496 1.663-1.66 2.494-3.67 2.494-6.03 0-2.36-.833-4.372-2.495-6.04-1.67-1.663-3.68-2.493-6.04-2.493-2.37 0-4.38.837-6.05 2.51-1.68 1.67-2.51 3.68-2.51 6.023z"/>
</svg>