<?xml version="1.0" encoding="UTF-8"?>
<svg width="32px" height="32px" viewBox="0 0 32 32" version="1.1" xmlns="http://www.w3.org/2000/svg" xmlns:xlink="http://www.w3.org/1999/xlink">
    <!-- Generator: Sketch 53.2 (72643) - https://sketchapp.com -->
    <title>search2</title>
    <desc>Created with Sketch.</desc>
    <g id="Page-1" stroke="none" stroke-width="1" fill="none" fill-rule="evenodd">
        <g id="search2" fill="#999999" fill-rule="nonzero">
            <path d="M23.61,19.472 L31.367,27.229 C31.487,27.359 31.547,27.519 31.547,27.689 C31.547,27.859 31.487,28.011 31.367,28.149 L28.547,30.969 C28.41,31.089 28.255,31.149 28.082,31.149 C27.91,31.149 27.755,31.089 27.617,30.969 L19.859,23.209 C17.799,24.556 15.549,25.226 13.109,25.226 C9.659,25.226 6.709,24.002 4.259,21.556 C1.814,19.113 0.59,16.165 0.59,12.72 C0.59,9.272 1.815,6.324 4.263,3.876 C6.713,1.43 9.663,0.204 13.11,0.204 C16.558,0.204 19.506,1.428 21.954,3.876 C24.402,6.323 25.626,9.271 25.626,12.718 C25.626,15.168 24.954,17.415 23.609,19.468 L23.61,19.472 Z M4.55,12.722 C4.55,15.067 5.387,17.075 7.06,18.747 C8.732,20.419 10.75,21.255 13.11,21.257 C15.472,21.257 17.485,20.425 19.15,18.761 C20.813,17.101 21.644,15.091 21.644,12.731 C21.644,10.371 20.811,8.359 19.149,6.691 C17.479,5.028 15.469,4.198 13.109,4.198 C10.739,4.198 8.729,5.035 7.059,6.708 C5.379,8.378 4.549,10.388 4.549,12.731 L4.55,12.722 Z" id="Shape"></path>
        </g>
    </g>
</svg>