<svg xmlns="http://www.w3.org/2000/svg" width="412" height="512" viewBox="0 0 412 512">
  <g fill="none" fill-rule="evenodd">
    <path fill="#E65883" fill-rule="nonzero" d="M363.564947,511.530428 C357.590579,511.18892 345.855214,510.633971 337.533773,510.249775 C329.212333,509.908268 316.068724,509.310631 308.302046,508.969123 C300.578042,508.584928 287.989195,508.029978 280.350539,507.688471 C272.711883,507.346964 259.866993,506.749326 251.758922,506.407819 C237.84718,505.767493 229.184347,505.383297 194.789058,503.846515 C170.123454,502.736616 153.13918,501.968225 137.819195,501.285211 C129.711124,500.943703 116.951581,500.346066 109.440948,500.004559 C101.930314,499.663051 89.1707715,499.065414 81.062701,498.723906 C38.687364,496.845617 38.0472532,496.802928 34.3346104,495.564965 C26.2692139,492.875595 20.8069348,487.198038 17.6917288,478.446915 C16.9235958,476.312495 16.6248774,470.848379 15.558026,442.161772 C15.1739595,432.428816 14.6191968,416.975614 14.2778044,407.797607 C13.6803676,392.216339 13.3389752,383.12371 11.7173611,339.709603 C11.3759686,330.318154 10.7785318,314.950329 10.4371394,305.55888 C10.0957469,296.167431 9.49831017,280.799606 9.15691773,271.408157 C8.81552529,262.016708 8.21808852,246.691572 7.87669607,237.3855 C7.15123713,218.13303 6.25508197,193.928705 5.31625275,169.084054 C4.97486031,159.735293 4.37742354,144.32478 4.03603109,134.805266 C1.09152128,56.4720451 0.792802889,47.678234 1.09152128,44.9461761 C2.1156986,35.3839737 8.38878474,27.486619 18.0331212,23.6446627 C20.3801943,22.7055178 25.1170144,22.1505686 37.151098,21.4248657 C47.3501972,20.8272281 52.0443433,20.5710977 78.2888874,18.9062499 C94.5050284,17.8817282 107.477941,17.0706486 119.25598,16.3449457 C143.793562,14.8081632 150.92013,14.3812791 160.223074,13.7836415 C170.891587,13.100627 185.571462,12.2041706 201.616907,11.2223373 C212.925532,10.4966344 226.453207,9.64286634 242.37063,8.66103305 C248.131628,8.27683742 257.349224,7.72188817 262.854177,7.38038095 C303.522551,4.86176513 356.993143,1.40400444 365.357258,0.891743597 C383.237687,-0.175466493 389.553447,-0.2608433 392.754001,0.507547965 C401.587531,2.72734495 408.116661,9.04522869 411.231867,18.2659239 C411.957326,20.5284093 412,28.6818943 412,256.040332 C412,483.39877 411.957326,491.552255 411.231867,493.81474 C408.970142,500.516819 405.214825,505.383297 399.624524,508.712993 C394.759682,511.658493 393.394112,511.914623 383.408383,512"/>
    <path fill="#FFF" fill-rule="nonzero" d="M307.369183 66.8877688L306 65.2627781 306.556231 51.8352232C306.85574 44.4372392 307.369183 32.2498088 307.711479 24.723536 308.010988 17.1972632 308.310497 9.54270164 308.310497 7.74665927 308.310497 3.94075995 307.925414 4.19733743 313.65887 3.81247121 315.541497 3.68418247 349.985019 1.51315496 354.006996 1.25657748L358.242907 1C358.38553 11.7411582 358.87045 27.9735174 359.697665 49.6970775 360.168321 62.3121371 360.125534 62.6970033 359.312582 63.8088391 358.242907 65.2200152 356.574215 65.8614589 355.162244 65.305541 354.563226 65.0917265 349.771084 61.4996417 344.465498 57.3088762L334.79564 49.6970775 328.719888 54.2727093C325.382504 56.7957212 320.33364 60.6443834 317.509699 62.7825291 310.150337 68.3844708 309.722468 68.9831516 307.369183 66.8877688zM213.205301 423.954795C154.611622 422.631039 119.848316 398.162913 110.96531 352.087681 109.214332 342.821392 109 340.216583 109 326.423905 109 311.478278 108.872678 312.161507 111.862152 310.624242 117.15779 307.93403 128.389669 306.652976 146.796284 306.695678 164.605004 306.695678 177.288913 307.891328 184.933424 310.239926 189.545754 311.649085 189.33222 311.136664 189.631168 322.922358 189.887408 333.811315 190.52801 338.380406 192.577934 344.017043 196.421543 354.521683 203.510866 359.005371 216.408308 359.048073 231.441089 359.090775 238.829359 352.429295 239.768908 337.99609 240.836577 321.214286 229.860939 308.489153 199.325603 291.109524 195.225754 288.803627 188.221844 284.789659 183.737634 282.270253 161.23117 269.459716 149.913878 261.517183 139.408014 251.311455 123.649218 236.024214 115.364106 220.43806 112.331926 200.496324 111.349671 193.834845 111.349671 179.615149 112.374633 172.526651 116.218242 145.624523 129.329218 125.127664 151.152374 111.804705 170.028763 100.317923 196.677783 94.681287 224.949661 96.2612533 254.887102 97.9693249 277.009205 106.509683 293.066948 122.565556 309.637172 139.133851 318.135818 161.936607 319.587848 193.664038L319.886795 199.898499 318.819126 200.581728C312.541232 204.6811 279.31537 208.566963 260.866049 207.328611 251.0862 206.688084 246.431163 205.663241 244.082291 203.570853 243.441689 203.01573 243.313569 202.161694 243.313569 197.678006 243.313569 187.216067 241.263644 177.309252 237.975224 171.886124 233.789961 165.011136 227.896427 162.064713 218.201992 162.064713 204.877482 162.064713 196.976731 167.402436 194.414325 178.163288 193.346656 182.689678 193.645603 189.820877 195.14034 194.005652 198.17252 202.460607 204.621241 209.420998 216.835376 217.363532 222.899736 221.334798 228.537029 224.537432 245.705148 233.718317 273.037476 248.365032 284.226648 255.96595 296.312662 267.965153 312.797473 284.362641 320.997171 301.27255 323.38875 323.904499 324.926194 338.038792 323.559577 351.489856 319.331608 364.129586 306.476872 402.561198 266.417928 425.150445 213.205301 423.954795z"/>
  </g>
</svg>
