<svg xmlns="http://www.w3.org/2000/svg" viewBox="0 0 512 512" id="content">
	<title>YouTube</title>
	<path d="M 100,150 400,150 400,350 100,350" fill="#FFFFFF" />
	<path d="M203.1,322.4l0-143.9l138.3,72.2L203.1,322.4z M506.9,153.6c0,0-5-35.3-20.3-50.8
		c-19.5-20.4-41.3-20.5-51.3-21.7c-71.6-5.2-179.1-5.2-179.1-5.2h-0.2c0,0-107.5,0-179.1,5.2c-10,1.2-31.8,1.3-51.3,21.7
		c-15.3,15.5-20.3,50.8-20.3,50.8S0,195.1,0,236.5v38.8c0,41.4,5.1,82.9,5.1,82.9s5,35.3,20.3,50.8c19.5,20.4,45.1,19.8,56.5,21.9
		c41,3.9,174.1,5.1,174.1,5.1s107.6-0.2,179.2-5.3c10-1.2,31.8-1.3,51.3-21.7c15.3-15.5,20.3-50.8,20.3-50.8s5.1-41.4,5.1-82.9
		v-38.8C512,195.1,506.9,153.6,506.9,153.6z" fill="#FF0000" />
</svg>