<svg width="24" height="24" viewBox="0 0 24 24" fill="none" xmlns="http://www.w3.org/2000/svg">
<path fill-rule="evenodd" clip-rule="evenodd" d="M3 6V8C3 8.55 3.45 9 4 9C4.55 9 5 8.55 5 8V6H7C7.55 6 8 5.55 8 5C8 4.45 7.55 4 7 4H5V2C5 1.45 4.55 1 4 1C3.45 1 3 1.45 3 2V4H1C0.45 4 0 4.45 0 5C0 5.55 0.45 6 1 6H3ZM10 14C10 15.6569 11.3431 17 13 17C14.6569 17 16 15.6569 16 14C16 12.3431 14.6569 11 13 11C11.3431 11 10 12.3431 10 14ZM21 6C22.1 6 23 6.9 23 8V20C23 21.1 22.1 22 21 22H5C3.9 22 3 21.1 3 20V9.72C3.3 9.89 3.63 10 4 10C5.1 10 6 9.1 6 8V7H7C8.1 7 9 6.1 9 5C9 4.63 8.89 4.3 8.72 4H15.12C15.68 4 16.22 4.24 16.59 4.65L17.83 6H21ZM18 14C18 16.76 15.76 19 13 19C10.24 19 8 16.76 8 14C8 11.24 10.24 9 13 9C15.76 9 18 11.24 18 14Z" fill="black"/>
</svg>
