<svg width="24" height="24" viewBox="0 0 24 24" fill="none" xmlns="http://www.w3.org/2000/svg">
<path fill-rule="evenodd" clip-rule="evenodd" d="M4 8V4.5C4 4.22 4.22 4 4.5 4H8L4 8ZM20 8L16 4H19.5C19.78 4 20 4.22 20 4.5V8ZM20 19.5V16L16 20H19.5C19.78 20 20 19.78 20 19.5ZM8 20H4.5C4.22 20 4 19.78 4 19.5V16L8 20ZM19 12C19 8.13 15.87 5 12 5C8.13 5 5 8.13 5 12C5 15.87 8.13 19 12 19C15.87 19 19 15.87 19 12ZM7 12C7 14.76 9.24 17 12 17C14.76 17 17 14.76 17 12C17 9.24 14.76 7 12 7C9.24 7 7 9.24 7 12Z" fill="black"/>
</svg>
