<svg width="24" height="24" viewBox="0 0 24 24" fill="none" xmlns="http://www.w3.org/2000/svg">
<path fill-rule="evenodd" clip-rule="evenodd" d="M22.6 12.7099L20 15.3099V18.9999C20 19.5499 19.55 19.9999 19 19.9999H15.3L12.7 22.5999C12.31 22.9899 11.68 22.9899 11.29 22.5999L8.68998 19.9999H4.99998C4.44998 19.9999 3.99998 19.5499 3.99998 18.9999V15.2999L1.39998 12.6999C1.00998 12.3099 1.00998 11.6799 1.39998 11.2899L3.99998 8.68992V4.99992C3.99998 4.44992 4.44998 3.99992 4.99998 3.99992H8.68998L11.3 1.39992C11.69 1.00992 12.32 1.00992 12.71 1.39992L15.31 3.99992H19C19.55 3.99992 20 4.44992 20 4.99992V8.68992L22.6 11.2999C22.99 11.6899 22.99 12.3199 22.6 12.7099ZM5.99998 11.9999C5.99998 15.3099 8.68998 17.9999 12 17.9999C15.31 17.9999 18 15.3099 18 11.9999C18 8.68992 15.31 5.99992 12 5.99992C8.68998 5.99992 5.99998 8.68992 5.99998 11.9999Z" fill="black"/>
</svg>
