<svg width="24" height="24" viewBox="0 0 24 24" fill="none" xmlns="http://www.w3.org/2000/svg">
<path fill-rule="evenodd" clip-rule="evenodd" d="M12 2C6.48 2 2 6.48 2 12C2 17.52 6.48 22 12 22C17.52 22 22 17.52 22 12C22 6.48 17.52 2 12 2ZM7.75 13C7.75 12.31 8.31 11.75 9 11.75C9.69 11.75 10.25 12.31 10.25 13C10.25 13.69 9.69 14.25 9 14.25C8.31 14.25 7.75 13.69 7.75 13ZM13.75 13C13.75 12.31 14.31 11.75 15 11.75C15.69 11.75 16.25 12.31 16.25 13C16.25 13.69 15.69 14.25 15 14.25C14.31 14.25 13.75 13.69 13.75 13ZM4 12C4 16.41 7.59 20 12 20C16.41 20 20 16.41 20 12C20 11.21 19.88 10.45 19.67 9.74C18.95 9.91 18.2 10 17.42 10C14.05 10 11.07 8.33 9.26 5.77C8.28 8.16 6.41 10.09 4.05 11.14C4.02 11.42 4 11.71 4 12Z" fill="black"/>
</svg>
