<svg width="24" height="24" viewBox="0 0 24 24" fill="none" xmlns="http://www.w3.org/2000/svg">
<path fill-rule="evenodd" clip-rule="evenodd" d="M7 1H21C22.1 1 23 1.9 23 3V17C23 18.1 22.1 19 21 19H7C5.9 19 5 18.1 5 17V3C5 1.9 5.9 1 7 1ZM1 6C1 5.45 1.45 5 2 5C2.55 5 3 5.45 3 6V20C3 20.55 3.45 21 4 21H18C18.55 21 19 21.45 19 22C19 22.55 18.55 23 18 23H3C1.9 23 1 22.1 1 21V6ZM20 17H8C7.45 17 7 16.55 7 16V4C7 3.45 7.45 3 8 3H20C20.55 3 21 3.45 21 4V16C21 16.55 20.55 17 20 17ZM13 13H16C16.55 13 17 13.45 17 14C17 14.55 16.55 15 16 15H12C11.45 15 11 14.55 11 14V11C11 9.9 11.9 9 13 9H15V7H12C11.45 7 11 6.55 11 6C11 5.45 11.45 5 12 5H15C16.1 5 17 5.9 17 7V9C17 10.1 16.1 11 15 11H13V13Z" fill="black"/>
</svg>
