<svg width="24" height="24" viewBox="0 0 24 24" fill="none" xmlns="http://www.w3.org/2000/svg">
<path fill-rule="evenodd" clip-rule="evenodd" d="M17.94 14.8599C18.01 14.3699 18.42 13.9999 18.92 13.9999C19.52 13.9999 20.01 14.5299 19.92 15.1199C19.3 19.5899 14.98 22.8699 10.15 21.7899C7.06 21.0999 4.76 18.7099 4.16 15.5999C3.16 10.4799 7.06 5.99994 12 5.99994V3.20994C12 2.75994 12.54 2.53994 12.85 2.84994L16.64 6.63994C16.84 6.83994 16.84 7.14994 16.64 7.34994L12.85 11.1399C12.54 11.4599 12 11.2399 12 10.7899V7.99994C8.27 7.99994 5.32 11.4199 6.13 15.2899C6.61 17.5499 8.27 19.2799 10.52 19.8199C14.17 20.6999 17.46 18.2299 17.94 14.8599ZM10.34 16.3399C10.42 16.3099 10.48 16.2699 10.54 16.2199C10.5539 16.2032 10.5679 16.1881 10.5814 16.1734C10.6163 16.1353 10.6484 16.1004 10.67 16.0499C10.7 15.9799 10.71 15.8999 10.71 15.8099C10.71 15.6999 10.69 15.5999 10.66 15.5199C10.63 15.4399 10.58 15.3699 10.52 15.3199C10.46 15.2699 10.39 15.2399 10.3 15.2099C10.21 15.1799 10.12 15.1699 10.01 15.1699H9.55999V14.5099H9.99C10.21 14.5099 10.36 14.4599 10.47 14.3499C10.58 14.2399 10.63 14.0999 10.63 13.9199C10.63 13.8399 10.62 13.7599 10.59 13.6999C10.56 13.6399 10.53 13.5799 10.48 13.5299C10.43 13.4799 10.37 13.4499 10.3 13.4199C10.23 13.3899 10.15 13.3799 10.05 13.3799C9.97 13.3799 9.89999 13.3799 9.83 13.4099C9.75999 13.4399 9.7 13.4699 9.64999 13.5099C9.6 13.5499 9.55999 13.5999 9.52999 13.6599C9.49999 13.7199 9.47999 13.7899 9.47999 13.8599H8.62999C8.62999 13.6799 8.66999 13.5299 8.74 13.3799C8.80999 13.2299 8.91999 13.1099 9.03999 13.0099C9.16 12.9099 9.31999 12.8299 9.47999 12.7799C9.64 12.7299 9.82999 12.6999 10.02 12.6999C10.24 12.6999 10.43 12.7299 10.61 12.7799C10.79 12.8299 10.94 12.9099 11.07 13.0099C11.2 13.1099 11.3 13.2299 11.37 13.3899C11.44 13.5499 11.48 13.7199 11.48 13.9199C11.48 14.0099 11.47 14.0999 11.44 14.1899C11.41 14.2799 11.36 14.3599 11.31 14.4399C11.26 14.5199 11.19 14.5899 11.11 14.6599C11.03 14.7299 10.93 14.7799 10.83 14.8299C11.07 14.9199 11.25 15.0499 11.37 15.2199C11.49 15.3899 11.55 15.5999 11.55 15.8299C11.55 16.0299 11.51 16.2099 11.43 16.3599C11.35 16.5099 11.25 16.6499 11.11 16.7499C10.97 16.8499 10.82 16.9399 10.63 16.9899C10.44 17.0399 10.24 17.0699 10.03 17.0699C9.85 17.0699 9.66999 17.0499 9.49999 16.9999C9.33 16.9499 9.18 16.8699 9.03999 16.7699C8.89999 16.6699 8.78999 16.5499 8.70999 16.3899C8.62999 16.2299 8.58999 16.0499 8.58999 15.8399H9.43999C9.43999 15.9199 9.45999 15.9899 9.49 16.0599C9.51999 16.1299 9.55999 16.1799 9.62 16.2299C9.68 16.2799 9.74 16.3099 9.81999 16.3399C9.89999 16.3699 9.97999 16.3799 10.07 16.3799C10.17 16.3799 10.26 16.3699 10.34 16.3399ZM14.44 12.7799C14.26 12.7099 14.07 12.6799 13.85 12.6799C13.63 12.6799 13.44 12.7099 13.26 12.7799C13.08 12.8499 12.93 12.9599 12.81 13.1099C12.69 13.2599 12.58 13.4499 12.52 13.6799C12.46 13.9099 12.42 14.1799 12.42 14.4999V15.2399C12.42 15.5599 12.46 15.8399 12.53 16.0599C12.6 16.2799 12.7 16.4799 12.83 16.6299C12.96 16.7799 13.11 16.8899 13.29 16.9599C13.47 17.0299 13.66 17.0599 13.88 17.0599C14.1 17.0599 14.29 17.0299 14.47 16.9599C14.65 16.8899 14.8 16.7799 14.92 16.6299C15.04 16.4799 15.14 16.2899 15.21 16.0599C15.28 15.8299 15.31 15.5599 15.31 15.2399V14.4999C15.31 14.1799 15.27 13.8999 15.2 13.6799C15.13 13.4599 15.03 13.2599 14.9 13.1099C14.77 12.9599 14.62 12.8499 14.44 12.7799ZM14.41 15.8299C14.44 15.6999 14.45 15.5399 14.45 15.3499H14.46V14.3799C14.46 14.1899 14.45 14.0299 14.42 13.8999C14.39 13.7699 14.35 13.6699 14.3 13.5899C14.25 13.5099 14.18 13.4499 14.11 13.4199C14.04 13.3899 13.95 13.3699 13.86 13.3699C13.77 13.3699 13.69 13.3899 13.61 13.4199C13.53 13.4499 13.48 13.5099 13.42 13.5899C13.36 13.6699 13.33 13.7699 13.3 13.8999C13.27 14.0299 13.26 14.1899 13.26 14.3799V15.3499C13.26 15.5399 13.27 15.6999 13.3 15.8299C13.33 15.9599 13.37 16.0699 13.42 16.1499C13.47 16.2299 13.54 16.2899 13.61 16.3199C13.68 16.3499 13.77 16.3699 13.86 16.3699C13.95 16.3699 14.03 16.3499 14.11 16.3199C14.19 16.2899 14.25 16.2299 14.3 16.1499C14.35 16.0699 14.38 15.9599 14.41 15.8299Z" fill="black"/>
</svg>
