<svg width="24" height="24" viewBox="0 0 24 24" fill="none" xmlns="http://www.w3.org/2000/svg">
<path fill-rule="evenodd" clip-rule="evenodd" d="M8 2C6.9 2 6 2.9 6 4V7.17C6 7.7 6.21 8.21 6.59 8.59L10 12L6.58 15.42C6.21 15.8 6 16.31 6 16.84V20C6 21.1 6.9 22 8 22H16C17.1 22 18 21.1 18 20V16.84C18 16.31 17.79 15.8 17.42 15.43L14 12L17.41 8.6C17.79 8.22 18 7.71 18 7.18V4C18 2.9 17.1 2 16 2H8ZM16 16.5V19C16 19.55 15.55 20 15 20H9C8.45 20 8 19.55 8 19V16.5L12 12.5L16 16.5ZM8 5V7.5L12 11.5L16 7.5V5C16 4.45 15.55 4 15 4H9C8.45 4 8 4.45 8 5Z" fill="black"/>
</svg>
