<svg width="24" height="24" viewBox="0 0 24 24" fill="none" xmlns="http://www.w3.org/2000/svg">
<path fill-rule="evenodd" clip-rule="evenodd" d="M4 2H20C21.1 2 22 2.9 22 4V22L18 18H4C2.9 18 2 17.1 2 16V4C2 2.9 2.9 2 4 2ZM7 14H17C17.55 14 18 13.55 18 13C18 12.45 17.55 12 17 12H7C6.45 12 6 12.45 6 13C6 13.55 6.45 14 7 14ZM17 11H7C6.45 11 6 10.55 6 10C6 9.45 6.45 9 7 9H17C17.55 9 18 9.45 18 10C18 10.55 17.55 11 17 11ZM7 8H17C17.55 8 18 7.55 18 7C18 6.45 17.55 6 17 6H7C6.45 6 6 6.45 6 7C6 7.55 6.45 8 7 8Z" fill="black"/>
</svg>
