<svg width="24" height="24" viewBox="0 0 24 24" fill="none" xmlns="http://www.w3.org/2000/svg">
<path fill-rule="evenodd" clip-rule="evenodd" d="M19.0025 7C19.0025 6.45 18.5525 6 18.0025 6C17.4525 6 17.0025 6.45 17.0025 7V17C17.0025 17.55 17.4525 18 18.0025 18C18.5525 18 19.0025 17.55 19.0025 17V7ZM11.1825 12L7.2925 8.11C6.9125 7.73 6.9125 7.09 7.2925 6.7C7.6825 6.31 8.3125 6.31 8.7025 6.7L13.2925 11.3C13.6825 11.69 13.6825 12.32 13.2925 12.71L8.7025 17.3C8.3125 17.69 7.6825 17.69 7.2925 17.3C6.9025 16.91 6.9025 16.28 7.2925 15.89L11.1825 12Z" fill="black"/>
</svg>
