<svg width="24" height="24" viewBox="0 0 24 24" fill="none" xmlns="http://www.w3.org/2000/svg">
<path fill-rule="evenodd" clip-rule="evenodd" d="M20 4H4C3.45 4 3 4.45 3 5V7C3 7.55 3.45 8 4 8H20C20.55 8 21 7.55 21 7V5C21 4.45 20.55 4 20 4ZM4 10H20C20.55 10 21 10.45 21 11V12C21 12.55 20.55 13 20 13H4C3.45 13 3 12.55 3 12V11C3 10.45 3.45 10 4 10ZM4 15H20C20.55 15 21 15.45 21 16C21 16.55 20.55 17 20 17H4C3.45 17 3 16.55 3 16C3 15.45 3.45 15 4 15ZM3.5 19H20.5C20.78 19 21 19.22 21 19.5C21 19.78 20.78 20 20.5 20H3.5C3.22 20 3 19.78 3 19.5C3 19.22 3.22 19 3.5 19Z" fill="black"/>
</svg>
