<svg width="24" height="24" viewBox="0 0 24 24" fill="none" xmlns="http://www.w3.org/2000/svg">
<path fill-rule="evenodd" clip-rule="evenodd" d="M20 3H4C3.45 3 3 3.45 3 4V20C3 20.55 3.45 21 4 21H20C20.55 21 21 20.55 21 20V4C21 3.45 20.55 3 20 3ZM9 7H7V9H9V7ZM16 9H12C11.45 9 11 8.55 11 8C11 7.45 11.45 7 12 7H16C16.55 7 17 7.45 17 8C17 8.55 16.55 9 16 9ZM16 13H12C11.45 13 11 12.55 11 12C11 11.45 11.45 11 12 11H16C16.55 11 17 11.45 17 12C17 12.55 16.55 13 16 13ZM12 17H16C16.55 17 17 16.55 17 16C17 15.45 16.55 15 16 15H12C11.45 15 11 15.45 11 16C11 16.55 11.45 17 12 17ZM7 11H9V13H7V11ZM9 15H7V17H9V15ZM5 19H19V5H5V19Z" fill="black"/>
</svg>
