<svg width="24" height="24" viewBox="0 0 24 24" fill="none" xmlns="http://www.w3.org/2000/svg">
<path fill-rule="evenodd" clip-rule="evenodd" d="M17 7V10.5L19.29 8.2C19.92 7.57 21 8.02 21 8.91V15.08C21 15.97 19.92 16.42 19.29 15.79L17 13.5V17C17 17.55 16.55 18 16 18H4C3.45 18 3 17.55 3 17V7C3 6.45 3.45 6 4 6H16C16.55 6 17 6.45 17 7ZM9.3 14.29C9.69 14.68 10.32 14.68 10.71 14.29L15 10L14.22 9.21L10 13.43L6.89 10.33H9.44V9.22H5.5C5.22 9.22 5 9.44 5 9.72V13.66H6.12V11.11L9.3 14.29Z" fill="black"/>
</svg>
