<svg width="24" height="24" viewBox="0 0 24 24" fill="none" xmlns="http://www.w3.org/2000/svg">
<path fill-rule="evenodd" clip-rule="evenodd" d="M21 3H3C1.9 3 1 3.9 1 5V19C1 20.1 1.9 21 3 21H21C22.1 21 23 20.1 23 19V5C23 3.9 22.1 3 21 3ZM21 18C21 18.55 20.55 19 20 19H4C3.45 19 3 18.55 3 18V6C3 5.45 3.45 5 4 5H20C20.55 5 21 5.45 21 6V18ZM11 12C9.16 12 7.72 13.64 8.05 15.54C8.25 16.75 9.24 17.74 10.45 17.95C12.34 18.29 13.98 16.85 14 15.03V8H16C16.55 8 17 7.55 17 7C17 6.45 16.55 6 16 6H14C12.9 6 12 6.9 12 8V12.18C11.69 12.07 11.35 12 11 12Z" fill="black"/>
</svg>
