<svg width="24" height="24" viewBox="0 0 24 24" fill="none" xmlns="http://www.w3.org/2000/svg">
<path fill-rule="evenodd" clip-rule="evenodd" d="M16 8C16 10.21 14.21 12 12 12C9.79 12 8 10.21 8 8C8 5.79 9.79 4 12 4C14.21 4 16 5.79 16 8ZM14 8C14 6.9 13.1 6 12 6C10.9 6 10 6.9 10 8C10 9.1 10.9 10 12 10C13.1 10 14 9.1 14 8ZM12 13C9.33 13 4 14.34 4 17V19C4 19.55 4.45 20 5 20H19C19.55 20 20 19.55 20 19V17C20 14.34 14.67 13 12 13ZM6 17.01V18H18V17C17.8 16.29 14.7 15 12 15C9.3 15 6.2 16.29 6 17.01Z" fill="black"/>
</svg>
