<svg width="24" height="24" viewBox="0 0 24 24" fill="none" xmlns="http://www.w3.org/2000/svg">
<path fill-rule="evenodd" clip-rule="evenodd" d="M16 3C15.45 3 15 3.45 15 4V9C15 9.55 15.45 10 16 10C16.55 10 17 9.55 17 9V4C17 3.45 16.55 3 16 3ZM19 4V9C19 9.55 19.45 10 20 10C20.55 10 21 9.55 21 9V4C21 3.45 20.55 3 20 3C19.45 3 19 3.45 19 4ZM16.69 14.97L19.23 15.26C20.24 15.38 21 16.23 20.99 17.24V18.97C20.99 20.1 20.05 21.04 18.92 20.97C10.39 20.44 3.55998 13.62 3.02998 5.08C2.95998 3.95 3.89998 3.01 5.02998 3.01H6.75998C7.77998 3.01 8.62998 3.77 8.74998 4.78L9.03998 7.3C9.10998 7.91 8.89998 8.51 8.46998 8.94L6.61998 10.79C8.05998 13.63 10.38 15.94 13.21 17.38L15.05 15.54C15.48 15.11 16.08 14.9 16.69 14.97Z" fill="black"/>
</svg>
