<svg width="24" height="24" viewBox="0 0 24 24" fill="none" xmlns="http://www.w3.org/2000/svg">
<path fill-rule="evenodd" clip-rule="evenodd" d="M14 5.5C14 6.88071 15.1193 8 16.5 8C17.8807 8 19 6.88071 19 5.5C19 4.11929 17.8807 3 16.5 3C15.1193 3 14 4.11929 14 5.5ZM5 4.35C5 4.98 5.49 5.48 6.11 5.56C7.3 5.7 8.14 6.14 9 7L10 8L6.75 11.25C7.02959 11.3582 7.26038 11.4909 7.45703 11.6039L7.52 11.64C7.89 11.87 8.11 12 8.67 12C9.23 12 9.45 11.87 9.82 11.64L9.83265 11.6326C10.2914 11.3633 10.9101 11 12.01 11C13.12 11 13.74 11.37 14.19 11.64L14.2008 11.6464C14.5645 11.8627 14.7954 12 15.34 12C15.89 12 16.12 11.87 16.49 11.64C16.61 11.57 16.75 11.49 16.9 11.41L10.48 5C9.22 3.74 8.04 3.2 6.3 3.05C5.6 2.99 5 3.56 5 4.26V4.35ZM22 19.77C22 19.36 21.73 19.04 21.35 18.91C21.18 18.85 21.03 18.76 20.85 18.64C20.4 18.37 19.78 18 18.67 18C17.56 18 16.94 18.37 16.49 18.64C16.12 18.87 15.89 19 15.34 19C14.7954 19 14.5645 18.8627 14.2008 18.6464L14.19 18.64C13.74 18.37 13.12 18 12.01 18C10.9101 18 10.2914 18.3633 9.83265 18.6326L9.82 18.64C9.45 18.87 9.23 19 8.67 19C8.11 19 7.89 18.87 7.52 18.64C7.07 18.37 6.45 18 5.34 18C4.24015 18 3.62138 18.3633 3.16265 18.6326L3.15 18.64C2.97 18.75 2.82 18.84 2.65 18.91C2.27 19.04 2 19.36 2 19.76V19.88C2 20.55 2.66 21.01 3.3 20.79C3.64542 20.6686 3.9124 20.5124 4.14162 20.3783L4.19 20.35C4.56 20.13 4.79 20 5.34 20C5.89 20 6.12 20.13 6.49 20.36C6.94 20.63 7.56 21 8.67 21C9.76985 21 10.3886 20.6367 10.8473 20.3674L10.86 20.36C11.23 20.13 11.45 20 12.01 20C12.5546 20 12.7855 20.1373 13.1492 20.3536L13.16 20.36C13.61 20.63 14.23 21 15.34 21C16.4305 21 17.0384 20.6429 17.4956 20.3743L17.52 20.36C17.89 20.13 18.11 20 18.67 20C19.2146 20 19.4455 20.1373 19.8092 20.3536L19.82 20.36C20.05 20.5 20.33 20.67 20.7 20.8C21.33 21.02 22 20.56 22 19.89V19.77ZM3.11 16.35C2.55 16.51 2 16.07 2 15.49V15.26C2 14.86 2.27 14.54 2.65 14.41C2.82 14.34 2.97 14.25 3.15 14.14C3.6 13.87 4.22 13.5 5.33 13.5C6.44 13.5 7.06 13.87 7.51 14.14L7.5208 14.1464C7.88452 14.3627 8.11537 14.5 8.66 14.5C9.22 14.5 9.44 14.37 9.81 14.14C10.26 13.87 10.88 13.5 11.99 13.5C13.1 13.5 13.72 13.87 14.17 14.14L14.1808 14.1464C14.5445 14.3627 14.7754 14.5 15.32 14.5C15.87 14.5 16.1 14.37 16.47 14.14C16.92 13.87 17.54 13.5 18.65 13.5C19.76 13.5 20.38 13.87 20.83 14.14L20.8702 14.1633C21.0416 14.2627 21.1822 14.3443 21.34 14.4C21.71 14.54 21.98 14.86 21.98 15.26V15.38C21.98 16.05 21.3 16.52 20.67 16.29C20.32 16.16 20.05 16 19.82 15.86L19.8092 15.8536C19.4455 15.6373 19.2146 15.5 18.67 15.5C18.11 15.5 17.89 15.63 17.52 15.86C17.07 16.13 16.45 16.5 15.34 16.5C14.23 16.5 13.61 16.13 13.16 15.86L13.1492 15.8536C12.7855 15.6373 12.5546 15.5 12.01 15.5C11.45 15.5 11.23 15.63 10.86 15.86C10.41 16.13 9.79 16.5 8.68 16.5C7.57 16.5 6.95 16.13 6.5 15.86L6.4892 15.8536C6.12548 15.6373 5.89463 15.5 5.35 15.5C4.8 15.5 4.57 15.63 4.2 15.86L4.168 15.8783C3.89412 16.035 3.56224 16.2249 3.11 16.35Z" fill="black"/>
</svg>
