<svg width="24" height="24" viewBox="0 0 24 24" fill="none" xmlns="http://www.w3.org/2000/svg">
<path fill-rule="evenodd" clip-rule="evenodd" d="M14.9987 4.0186H18.9987V2.0186H14.9987V4.0186ZM10 13.64H14V11.64H10V13.64ZM8.99573 13.64H4.99573V11.64H8.99573V13.64ZM8.99573 16.64H4.99573V14.64H8.99573V16.64ZM14 16.64H10V14.64H14V16.64ZM18.9987 7.0186H14.9987V5.0186H18.9987V7.0186ZM4 17.8226V10.4672H20V17.8226H4ZM2 9.77094C2 9.0509 2.58371 8.46719 3.30375 8.46719H20.6962C21.4163 8.46719 22 9.0509 22 9.77094V18.5189C22 19.2389 21.4163 19.8226 20.6962 19.8226H3.30375C2.58371 19.8226 2 19.2389 2 18.5189V9.77094Z" fill="black"/>
</svg>
