<svg width="24" height="24" viewBox="0 0 24 24" fill="none" xmlns="http://www.w3.org/2000/svg">
<path fill-rule="evenodd" clip-rule="evenodd" d="M11 2.21003V5.00003C15.94 5.00003 19.84 9.48003 18.85 14.61C18.24 17.73 15.73 20.24 12.61 20.85C7.88003 21.77 3.70003 18.52 3.08003 14.13C3.00003 13.53 3.48003 13 4.08003 13C4.57003 13 4.99003 13.37 5.06003 13.85C5.54003 17.16 8.72003 19.61 12.29 18.86C14.55 18.39 16.39 16.56 16.86 14.29C17.68 10.42 14.73 7.00003 11 7.00003V9.79003C11 10.24 10.46 10.46 10.14 10.15L6.35003 6.36003C6.15003 6.16003 6.15003 5.85003 6.35003 5.65003L10.15 1.86003C10.46 1.54003 11 1.76003 11 2.21003ZM9.01003 13.49H8.56003V14.14H9.03003C9.14003 14.14 9.23003 14.16 9.32003 14.18C9.41003 14.2 9.48003 14.24 9.54003 14.29C9.60003 14.34 9.65003 14.41 9.68003 14.49C9.71003 14.57 9.73003 14.67 9.73003 14.78C9.73003 14.87 9.72003 14.95 9.69003 15.02C9.66003 15.09 9.61003 15.15 9.56003 15.2C9.51003 15.25 9.44003 15.29 9.36003 15.32C9.28003 15.35 9.19003 15.36 9.09003 15.36C9.00003 15.36 8.92003 15.34 8.84004 15.32L8.84003 15.32C8.76003 15.3 8.70003 15.26 8.64003 15.21C8.58003 15.16 8.54003 15.11 8.51003 15.04C8.48003 14.97 8.46003 14.9 8.46003 14.82H7.61003C7.61003 15.03 7.65003 15.22 7.73003 15.37C7.81003 15.52 7.93003 15.64 8.06003 15.75C8.19003 15.86 8.35003 15.93 8.52003 15.98C8.69003 16.03 8.87003 16.05 9.05003 16.05C9.27003 16.05 9.46003 16.02 9.65003 15.97C9.84003 15.92 9.99003 15.83 10.13 15.73C10.27 15.63 10.37 15.49 10.45 15.34C10.53 15.19 10.57 15.01 10.57 14.81C10.57 14.58 10.51 14.38 10.39 14.2C10.27 14.02 10.09 13.9 9.85003 13.81C9.96003 13.76 10.05 13.71 10.13 13.64C10.21 13.57 10.27 13.5 10.33 13.42C10.39 13.34 10.43 13.26 10.46 13.17C10.49 13.08 10.5 12.99 10.5 12.9C10.5 12.7 10.46 12.52 10.39 12.37C10.32 12.22 10.22 12.09 10.09 11.99C9.96003 11.89 9.81003 11.81 9.63003 11.76C9.45003 11.71 9.25003 11.68 9.04003 11.68C8.85003 11.68 8.67003 11.71 8.50003 11.76C8.33003 11.81 8.19003 11.89 8.06003 11.99C7.93003 12.09 7.83003 12.22 7.76003 12.36C7.69003 12.5 7.65003 12.66 7.65003 12.84H8.50003C8.50003 12.77 8.52003 12.7 8.55003 12.64C8.58003 12.58 8.62003 12.54 8.67003 12.49C8.72003 12.44 8.78003 12.41 8.85003 12.39C8.92003 12.37 8.99003 12.36 9.07003 12.36C9.16003 12.36 9.25003 12.38 9.32003 12.4C9.39003 12.42 9.45003 12.46 9.50003 12.51C9.55003 12.56 9.58003 12.61 9.61003 12.68C9.64003 12.75 9.65003 12.82 9.65003 12.9C9.65003 13.08 9.60003 13.22 9.49003 13.33C9.38003 13.44 9.22003 13.49 9.01003 13.49ZM14.3 14.24C14.3 14.56 14.27 14.84 14.2 15.06C14.13 15.28 14.03 15.48 13.91 15.63C13.79 15.78 13.63 15.89 13.46 15.96C13.29 16.03 13.09 16.06 12.87 16.06C12.65 16.06 12.46 16.03 12.28 15.96C12.1 15.89 11.95 15.78 11.82 15.63C11.69 15.48 11.59 15.29 11.52 15.06C11.45 14.83 11.41 14.56 11.41 14.24V13.5C11.41 13.18 11.44 12.9 11.51 12.68C11.58 12.46 11.68 12.26 11.8 12.11C11.92 11.96 12.08 11.85 12.25 11.78C12.42 11.71 12.62 11.68 12.84 11.68C13.06 11.68 13.25 11.71 13.43 11.78C13.61 11.85 13.76 11.96 13.89 12.11C14.02 12.26 14.12 12.45 14.19 12.68C14.26 12.91 14.3 13.18 14.3 13.5V14.24ZM13.41 12.9C13.44 13.03 13.45 13.19 13.45 13.38H13.44V14.35C13.44 14.54 13.43 14.7 13.4 14.83C13.38 14.96 13.34 15.07 13.29 15.15C13.24 15.23 13.17 15.29 13.1 15.32C13.03 15.35 12.94 15.37 12.85 15.37C12.76 15.37 12.68 15.35 12.6 15.32C12.52 15.29 12.46 15.23 12.41 15.15C12.36 15.07 12.32 14.96 12.29 14.83C12.26 14.7 12.25 14.54 12.25 14.35V13.38C12.25 13.19 12.26 13.03 12.29 12.9C12.32 12.77 12.36 12.67 12.41 12.59C12.46 12.51 12.53 12.45 12.6 12.42C12.67 12.39 12.76 12.37 12.85 12.37C12.94 12.37 13.02 12.39 13.1 12.42C13.18 12.45 13.24 12.51 13.29 12.59C13.34 12.67 13.38 12.77 13.41 12.9Z" fill="black"/>
</svg>
