<svg width="24" height="24" viewBox="0 0 24 24" fill="none" xmlns="http://www.w3.org/2000/svg">
<path fill-rule="evenodd" clip-rule="evenodd" d="M9 9H11V3C11 2.45 11.45 2 12 2C12.55 2 13 2.45 13 3V9C13 11.21 11.21 13 9 13V21C9 21.55 8.55 22 8 22C7.45 22 7 21.55 7 21V13C4.79 13 3 11.21 3 9V3C3 2.45 3.45 2 4 2C4.55 2 5 2.45 5 3V9H7V3C7 2.45 7.45 2 8 2C8.55 2 9 2.45 9 3V9ZM18 14C16.9 14 16 13.1 16 12V6C16 4.51 17.6 2.68 19.76 2.15C20.39 2 21 2.48 21 3.13V21C21 21.55 20.55 22 20 22C19.45 22 19 21.55 19 21V14H18Z" fill="black"/>
</svg>
