<svg width="24" height="24" viewBox="0 0 24 24" fill="none" xmlns="http://www.w3.org/2000/svg">
<path fill-rule="evenodd" clip-rule="evenodd" d="M11 9C9.34315 9 8 7.65685 8 6C8 4.34315 9.34315 3 11 3C12.6569 3 14 4.34315 14 6C14 7.65685 12.6569 9 11 9ZM7 17C5.34315 17 4 15.6569 4 14C4 12.3431 5.34315 11 7 11C8.65685 11 10 12.3431 10 14C10 15.6569 8.65685 17 7 17ZM13.6 17.6C13.6 19.2569 14.9431 20.6 16.6 20.6C18.2569 20.6 19.6 19.2569 19.6 17.6C19.6 15.9431 18.2569 14.6 16.6 14.6C14.9431 14.6 13.6 15.9431 13.6 17.6Z" fill="black"/>
</svg>
