<svg width="24" height="24" viewBox="0 0 24 24" fill="none" xmlns="http://www.w3.org/2000/svg">
<path fill-rule="evenodd" clip-rule="evenodd" d="M17 1H7C5.9 1 5 1.9 5 3V21C5 22.1 5.9 23 7 23H17C18.1 23 19 22.1 19 21V3C19 1.9 18.1 1 17 1ZM15 15C15 15.55 14.55 16 14 16H10C9.45 16 9 15.55 9 15V12C9 11.45 9.45 11 10 11V10C10 8.9 10.89 8 12 8C13.1 8 14 8.89 14 10V11C14.55 11 15 11.45 15 12V15ZM12 8.8C11.34 8.8 10.8 9.34 10.8 10V11H13.2V10C13.2 9.34 12.66 8.8 12 8.8ZM7 19H17V5H7V19Z" fill="black"/>
</svg>
