<svg width="24" height="24" viewBox="0 0 24 24" fill="none" xmlns="http://www.w3.org/2000/svg">
<path fill-rule="evenodd" clip-rule="evenodd" d="M20.1675 4.8725C18.1525 3.915 15.355 3 12 3C8.63999 3 5.84249 3.915 3.82874 4.8725L3.37804 5.09382L2.95577 5.31426L2.46883 5.58496L2.02844 5.84592L1.71044 6.04454L1.42358 6.23156L1.16847 6.40461L0.846676 6.63275L0.359985 7L10.44 19.56L10.5483 19.6848C10.9222 20.0817 11.4203 20.2897 11.9243 20.3086H12.0756L12.2265 20.2972C12.7282 20.2405 13.2122 19.9948 13.56 19.56L15.5 17.14V14.5L15.5115 14.2704C15.5218 14.1581 15.5378 14.0467 15.5535 13.9373L15.5535 13.9371C15.5591 13.8978 15.5647 13.8587 15.57 13.82L15.5455 13.8089C15.8734 11.3463 17.9349 9.5 20.5 9.5C20.86 9.5 21.21 9.54 21.55 9.61L23.64 7L23.1527 6.63275L22.7067 6.31998L22.4353 6.13965L21.9694 5.84592L21.4347 5.53145L21.0411 5.31426L20.6185 5.09382L20.1675 4.8725ZM22.9948 14.3335C22.9115 13.0138 21.844 12 20.5 12C19.1 12 18 13.1 18 14.5V16L17.893 16.0075C17.4311 16.0714 17 16.5357 17 17V21L17.0075 21.107C17.0714 21.5689 17.5357 22 18 22H23L23.1069 21.9925C23.5689 21.9286 24 21.4643 24 21V17L23.9925 16.893C23.9286 16.4311 23.4643 16 23 16V14.5L22.9948 14.3335ZM20.5 13C19.747 13 19.0827 13.6201 19.0071 14.36L19 14.5V16H22V14.5C22 13.7 21.3 13 20.5 13ZM3.984 5.90868C6.39553 4.71396 9.08326 4 12 4C14.9122 4 17.5993 4.714 20.0127 5.90881L20.4672 6.14145C21.0608 6.45537 21.6046 6.78355 22.101 7.1176L22.206 7.189L21.13 8.533L20.8132 8.50831L20.5 8.5L20.2725 8.50408C17.3913 8.60768 15.0742 10.673 14.5929 13.4294C13.8441 13.1796 12.9704 13 12 13C10.0088 13 8.41407 13.7489 7.50825 14.3111L1.79299 7.189L1.89819 7.11725L2.27887 6.86797C2.79839 6.53742 3.36593 6.21489 3.984 5.90868Z" fill="black"/>
</svg>
