<svg width="24" height="24" viewBox="0 0 24 24" fill="none" xmlns="http://www.w3.org/2000/svg">
<path fill-rule="evenodd" clip-rule="evenodd" d="M5.86003 6.14002L8.65003 3.35002C8.84003 3.16002 9.16003 3.16002 9.35003 3.35002L12.14 6.14002C12.46 6.45002 12.24 6.99002 11.79 6.99002H10V13C10 13.55 9.55003 14 9.00003 14C8.45003 14 8.00003 13.55 8.00003 13V6.99002H6.21003C5.76003 6.99002 5.54003 6.45002 5.86003 6.14002ZM16 11V17.01H17.8C18.24 17.01 18.47 17.55 18.15 17.86L15.36 20.64C15.16 20.83 14.85 20.83 14.65 20.64L11.86 17.86C11.54 17.55 11.76 17.01 12.21 17.01H14V11C14 10.45 14.45 10 15 10C15.55 10 16 10.45 16 11Z" fill="black"/>
</svg>
