<svg width="24" height="24" viewBox="0 0 24 24" fill="none" xmlns="http://www.w3.org/2000/svg">
<path fill-rule="evenodd" clip-rule="evenodd" d="M20 12C20 9.79 19.09 7.8 17.64 6.36L19.15 4.85C19.46 4.54 19.24 4 18.79 4H14V8.79C14 9.24 14.54 9.46 14.85 9.14L16.24 7.75C17.32 8.85 18 10.34 18 12C18 12.85 17.82 13.66 17.5 14.39L18.98 15.87C19.62 14.72 20 13.41 20 12ZM10 5.74V5.55C10 4.87 9.29003 4.44 8.68003 4.73C8.55336 4.79 8.43558 4.85889 8.3178 4.92778C8.25891 4.96222 8.20003 4.99667 8.14003 5.03L9.60003 6.49C9.84003 6.31 10 6.04 10 5.74ZM3.57003 6.11C3.18003 5.72 3.18003 5.09 3.57003 4.7C3.96003 4.31 4.59003 4.31 4.98003 4.7L19.5 19.23C19.89 19.62 19.89 20.25 19.5 20.64C19.11 21.03 18.48 21.03 18.09 20.64L16.22 18.77C15.93 18.95 15.63 19.12 15.32 19.26C14.71 19.55 14 19.12 14 18.44V18.26C14 17.83 14.32 17.47 14.75 17.35C14.75 17.3405 14.75 17.3355 14.7511 17.3308C14.7523 17.3255 14.7548 17.3205 14.76 17.31L6.69003 9.24C6.26003 10.07 6.00003 11 6.00003 12C6.00003 13.66 6.68003 15.15 7.76003 16.25L9.15003 14.86C9.46003 14.54 10 14.76 10 15.21V19.5C10 19.78 9.78003 20 9.50003 20H5.21003C4.76003 20 4.54003 19.46 4.85003 19.15L6.36003 17.64C4.91003 16.2 4.00003 14.21 4.00003 12C4.00003 10.44 4.45003 9 5.22003 7.76L3.57003 6.11Z" fill="black"/>
</svg>
