<svg width="24" height="24" viewBox="0 0 24 24" fill="none" xmlns="http://www.w3.org/2000/svg">
<path fill-rule="evenodd" clip-rule="evenodd" d="M4 7C3.17 7 2.5 6.33 2.5 5.5C2.5 4.67 3.17 4 4 4H14C14.83 4 15.5 4.67 15.5 5.5C15.5 6.33 14.83 7 14 7H10.5V17.5C10.5 18.33 9.83 19 9 19C8.17 19 7.5 18.33 7.5 17.5V7H4ZM14 9H20C20.83 9 21.5 9.67 21.5 10.5C21.5 11.33 20.83 12 20 12H18.5V17.5C18.5 18.33 17.83 19 17 19C16.17 19 15.5 18.33 15.5 17.5V12H14C13.17 12 12.5 11.33 12.5 10.5C12.5 9.67 13.17 9 14 9Z" fill="black"/>
</svg>
