<svg width="24" height="24" viewBox="0 0 24 24" fill="none" xmlns="http://www.w3.org/2000/svg">
<path fill-rule="evenodd" clip-rule="evenodd" d="M13.6707 7.0499C13.3569 6.6499 12.9784 6.3499 12.5354 6.1699C12.1015 5.9899 11.603 5.8999 11.0677 5.8999C10.5323 5.8999 10.043 5.9899 9.59997 6.1699C9.1569 6.3499 8.77843 6.6399 8.46459 7.0499C8.15074 7.4599 7.91074 7.9799 7.73536 8.6399C7.5692 9.2899 7.4769 10.0899 7.4769 11.0299V12.9499C7.4769 13.8899 7.55997 14.6899 7.73536 15.3399C7.91074 15.9999 8.15074 16.5299 8.47382 16.9399C8.78766 17.3499 9.16613 17.6499 9.6092 17.8299C10.0523 18.0099 10.5415 18.1099 11.0769 18.1099C11.6215 18.1099 12.1107 18.0199 12.5446 17.8299C12.9877 17.6499 13.3569 17.3499 13.6707 16.9399C13.9846 16.5299 14.2246 15.9999 14.3907 15.3399C14.5569 14.6899 14.6492 13.8899 14.6492 12.9499V11.0299C14.6492 10.0899 14.5661 9.2899 14.3907 8.6399C14.2246 7.9799 13.9846 7.4499 13.6707 7.0499ZM0.913818 9.3999V7.7199L5.29843 5.9999H5.5292V17.9999H3.68305V8.3999L0.913818 9.3999ZM22.2831 13.6299C22.5415 13.8399 22.7354 14.0899 22.8646 14.3699C23.003 14.6499 23.0677 14.9899 23.0861 15.3899C23.0861 15.7799 23.0123 16.1299 22.8554 16.4499C22.6984 16.7699 22.4861 17.0499 22.2 17.2799C21.9138 17.5099 21.5723 17.6899 21.1754 17.8199C20.7784 17.9499 20.3354 18.0099 19.8461 18.0099C19.2923 18.0099 18.8123 17.9299 18.3877 17.7599C17.963 17.5899 17.6123 17.3699 17.3261 17.0999C17.04 16.8199 16.8277 16.5099 16.68 16.1699C16.5323 15.8299 16.4584 15.4799 16.4584 15.1199H18.203C18.2123 15.3799 18.2677 15.6099 18.3692 15.7899C18.4707 15.9699 18.5907 16.1199 18.7477 16.2299C18.8954 16.3399 19.0707 16.4199 19.2646 16.4699C19.4584 16.5299 19.6523 16.5499 19.8554 16.5499C20.3261 16.5499 20.6861 16.4599 20.9354 16.2599C21.1846 16.0599 21.3046 15.8099 21.3046 15.4899C21.3046 15.3499 21.2861 15.2199 21.24 15.0999C21.1938 14.9799 21.1107 14.8599 20.9907 14.7599C20.8615 14.6599 20.6861 14.5599 20.4646 14.4699C20.243 14.3799 19.9477 14.2899 19.5877 14.2099C19.163 14.1099 18.7661 13.9899 18.4154 13.8499C18.0646 13.6999 17.76 13.5299 17.5107 13.3199C17.2523 13.1099 17.0584 12.8699 16.92 12.5899C16.7815 12.3199 16.7077 11.9899 16.7077 11.6299C16.7077 11.2699 16.7723 10.9399 16.92 10.6199C17.0677 10.2999 17.2707 10.0199 17.5384 9.7799C17.8061 9.5399 18.1384 9.3499 18.5169 9.2099C18.8954 9.0699 19.3292 8.9999 19.8 8.9999C20.2984 8.9999 20.7507 9.0699 21.1477 9.2199C21.5446 9.3699 21.8769 9.5599 22.1538 9.8099C22.4307 10.0599 22.643 10.3499 22.7907 10.6899C22.9384 11.0299 23.0123 11.3899 23.0123 11.7799H21.2123C21.2123 11.6099 21.1754 11.4499 21.12 11.2899C21.0554 11.1299 20.9723 10.9899 20.8523 10.8699C20.7323 10.7499 20.5846 10.6499 20.4092 10.5799C20.2338 10.5099 20.0307 10.4699 19.8 10.4699C19.5784 10.4699 19.3754 10.4999 19.2092 10.5599C19.043 10.6199 18.9046 10.6999 18.7938 10.7999C18.6831 10.8899 18.6 11.0099 18.5446 11.1399C18.4892 11.2699 18.4615 11.4099 18.4615 11.5499C18.4615 11.6999 18.4892 11.8299 18.5354 11.9399C18.5815 12.0499 18.6646 12.1499 18.7938 12.2399C18.923 12.3299 19.0892 12.4099 19.3015 12.4899C19.5138 12.5699 19.7815 12.6499 20.1046 12.7199C20.5661 12.8299 20.9815 12.9599 21.3507 13.0999C21.72 13.2399 22.0246 13.4199 22.2831 13.6299ZM12.7107 14.7499C12.7846 14.3299 12.8215 13.8199 12.8215 13.2199H12.8307V10.7099C12.8307 10.1099 12.7846 9.5999 12.7107 9.1899C12.6369 8.7799 12.5169 8.4499 12.3692 8.1999C12.2215 7.9399 12.0369 7.7599 11.8154 7.6499C11.603 7.5399 11.3538 7.4799 11.0677 7.4799C10.7907 7.4799 10.5415 7.5399 10.32 7.6499C10.0984 7.7699 9.91382 7.9499 9.76613 8.1999C9.6092 8.4599 9.49843 8.7899 9.41536 9.1999C9.33228 9.6099 9.29536 10.1199 9.29536 10.7199V13.2199C9.29536 13.8199 9.33228 14.3299 9.41536 14.7499C9.49843 15.1699 9.61843 15.5099 9.76613 15.7699C9.91382 16.0299 10.0984 16.2199 10.32 16.3399C10.5415 16.4599 10.8 16.5199 11.0769 16.5199C11.363 16.5199 11.6215 16.4599 11.8338 16.3399C12.0461 16.2199 12.2307 16.0299 12.3784 15.7699C12.5261 15.5099 12.6369 15.1699 12.7107 14.7499Z" fill="black"/>
</svg>
