<svg width="24" height="24" viewBox="0 0 24 24" fill="none" xmlns="http://www.w3.org/2000/svg">
<path fill-rule="evenodd" clip-rule="evenodd" d="M10.99 12.3199C11.25 12.5099 11.45 12.7299 11.61 12.9699C11.77 13.2199 11.88 13.4799 11.96 13.7299C12.03 14.0099 12.07 14.2999 12.07 14.5899C12.07 15.1399 11.97 15.6399 11.77 16.0699C11.57 16.5099 11.29 16.8699 10.93 17.1699C10.58 17.4699 10.16 17.6999 9.67 17.8499C9.18 17.9999 8.66 18.0799 8.09 18.0799C7.57 18.0799 7.08 18.0099 6.61 17.8699C6.14 17.7299 5.73 17.5199 5.37 17.2399C5.01 16.9599 4.72 16.6099 4.51 16.1899C4.3 15.7699 4.19 15.2899 4.19 14.7399H6.18C6.18 14.9999 6.23 15.2399 6.32 15.4599C6.41 15.6799 6.54 15.8599 6.71 16.0199C6.88 16.1799 7.08 16.2999 7.32 16.3799C7.56 16.4699 7.83 16.5099 8.12 16.5099C8.73 16.5099 9.22 16.3499 9.57 16.0199C9.92 15.6899 10.1 15.2199 10.1 14.5999C10.1 14.2699 10.04 13.9699 9.94 13.7299C9.84 13.4799 9.69 13.2799 9.5 13.1199C9.31 12.9599 9.08 12.8499 8.81 12.7699C8.54 12.6999 8.24 12.6599 7.9 12.6599H6.72V11.0899H7.89C8.23 11.0899 8.53 11.0499 8.78 10.9599C9.03 10.8699 9.24 10.7499 9.41 10.5899C9.58 10.4299 9.71 10.2399 9.79 10.0199C9.87 9.7999 9.91 9.5499 9.91 9.2799C9.91 8.7099 9.77 8.2699 9.47 7.9599C9.17 7.6499 8.72 7.4899 8.11 7.4899C7.84 7.4899 7.6 7.5299 7.38 7.6099C7.16 7.6899 6.97 7.7999 6.8 7.9399C6.64 8.0799 6.51 8.2599 6.42 8.4599C6.33 8.6599 6.28 8.8899 6.28 9.1499H4.3C4.3 8.6899 4.39 8.2499 4.59 7.8599C4.77 7.4599 5.04 7.1199 5.37 6.8299C5.7 6.5399 6.1 6.3099 6.57 6.1399C7.03 5.9799 7.54 5.8999 8.09 5.8999C8.65 5.8999 9.17 5.9699 9.62 6.0999C10.09 6.2399 10.49 6.4599 10.82 6.7399C11.16 7.0299 11.42 7.3799 11.6 7.7999C11.79 8.2199 11.88 8.7099 11.88 9.2599C11.88 9.4999 11.85 9.7499 11.77 9.9899C11.7 10.2399 11.58 10.4699 11.43 10.6999C11.28 10.9299 11.09 11.1399 10.86 11.3399C10.63 11.5399 10.36 11.6999 10.06 11.8399C10.43 11.9699 10.74 12.1299 10.99 12.3199ZM20.24 13.6299C20.52 13.8399 20.73 14.0899 20.87 14.3699C21.02 14.6499 21.09 14.9899 21.11 15.3899C21.11 15.7799 21.03 16.1299 20.86 16.4499C20.69 16.7699 20.46 17.0499 20.15 17.2799C19.84 17.5099 19.47 17.6899 19.04 17.8199C18.61 17.9499 18.13 18.0099 17.6 18.0099C17 18.0099 16.48 17.9299 16.02 17.7599C15.56 17.5899 15.18 17.3699 14.87 17.0999C14.56 16.8199 14.33 16.5099 14.17 16.1699C14.01 15.8299 13.93 15.4799 13.93 15.1199H15.82C15.83 15.3799 15.89 15.6099 16 15.7899C16.11 15.9699 16.24 16.1199 16.41 16.2299C16.57 16.3399 16.76 16.4199 16.97 16.4699C17.18 16.5299 17.39 16.5499 17.61 16.5499C18.12 16.5499 18.51 16.4599 18.78 16.2599C19.05 16.0599 19.18 15.8099 19.18 15.4899C19.18 15.3499 19.16 15.2199 19.11 15.0999C19.06 14.9799 18.97 14.8599 18.84 14.7599C18.7 14.6599 18.51 14.5599 18.27 14.4699C18.03 14.3799 17.71 14.2899 17.32 14.2099C16.86 14.1099 16.43 13.9899 16.05 13.8499C15.67 13.6999 15.34 13.5299 15.07 13.3199C14.8 13.1099 14.58 12.8699 14.43 12.5899C14.28 12.3099 14.2 11.9899 14.2 11.6299C14.2 11.2699 14.27 10.9399 14.43 10.6199C14.59 10.2999 14.81 10.0199 15.1 9.7799C15.39 9.5399 15.75 9.3499 16.16 9.2099C16.57 9.0699 17.04 8.9999 17.55 8.9999C18.09 8.9999 18.58 9.0699 19.01 9.2199C19.44 9.3699 19.8 9.5599 20.1 9.8099C20.4 10.0599 20.63 10.3499 20.79 10.6899C20.95 11.0299 21.03 11.3899 21.03 11.7799H19.08C19.08 11.6099 19.04 11.4499 18.98 11.2899C18.91 11.1299 18.82 10.9899 18.69 10.8699C18.56 10.7499 18.4 10.6499 18.21 10.5799C18.02 10.5099 17.8 10.4699 17.55 10.4699C17.31 10.4699 17.09 10.4999 16.91 10.5599C16.73 10.6199 16.58 10.6999 16.46 10.7999C16.34 10.8899 16.25 11.0099 16.19 11.1399C16.13 11.2699 16.1 11.3999 16.1 11.5499C16.1 11.6999 16.13 11.8299 16.18 11.9399C16.23 12.0499 16.32 12.1499 16.46 12.2399C16.6 12.3299 16.78 12.4099 17.01 12.4899C17.24 12.5699 17.53 12.6499 17.88 12.7199C18.38 12.8299 18.83 12.9599 19.23 13.0999C19.63 13.2399 19.96 13.4199 20.24 13.6299Z" fill="black"/>
</svg>
