<svg width="24" height="24" viewBox="0 0 24 24" fill="none" xmlns="http://www.w3.org/2000/svg">
<path fill-rule="evenodd" clip-rule="evenodd" d="M19.95 4.45991C19.2 4.07991 18.37 3.65991 17 3.65991C15.63 3.65991 14.8 4.07991 14.05 4.45991L13.9703 4.49921C13.3558 4.80249 12.8342 5.05991 12 5.05991C11.1 5.05991 10.6 4.80991 9.95 4.45991L9.87173 4.42124C9.14248 4.06062 8.33216 3.65991 7 3.65991C5.62883 3.65991 4.81051 4.07456 4.0644 4.45262L4.05 4.45991C3.62 4.67991 3.24 4.86991 2.78 4.97991C2.33 5.07991 2 5.43991 2 5.88991V5.95991C2 6.55991 2.54 6.99991 3.12 6.87991C3.80872 6.74217 4.33722 6.48637 4.82165 6.2519L4.95 6.18991L4.9755 6.17696C5.6137 5.85288 6.13154 5.58991 7 5.58991C7.88 5.58991 8.4 5.83991 9.05 6.18991L9.0644 6.19721C9.81051 6.57527 10.6288 6.98991 12 6.98991C13.3322 6.98991 14.1425 6.58921 14.8717 6.22858L14.95 6.18991L15.0297 6.15062C15.6442 5.84734 16.1658 5.58991 17 5.58991C17.9 5.58991 18.4 5.83991 19.05 6.18991L19.1137 6.22177C19.6159 6.47327 20.1605 6.74601 20.88 6.88991C21.46 6.99991 22 6.55991 22 5.96991V5.87991C22 5.41991 21.66 5.05991 21.21 4.95991C20.75 4.85991 20.38 4.67991 19.95 4.45991ZM14.0849 13.3227C14.8264 12.9567 15.6709 12.5399 17 12.5399C18.35 12.5399 19.2 12.9599 19.95 13.3399C20.38 13.5699 20.75 13.7599 21.21 13.8599C21.66 13.9599 22 14.3199 22 14.7799V14.8699C22 15.4599 21.46 15.8999 20.88 15.7899C20.1605 15.646 19.6159 15.3733 19.1137 15.1218L19.05 15.0899C18.4 14.7399 17.9 14.4899 17 14.4899C16.1 14.4899 15.6 14.7399 14.95 15.0899L14.8717 15.1286C14.1425 15.4892 13.3322 15.8899 12 15.8899C10.6288 15.8899 9.81051 15.4753 9.0644 15.0972L9.05 15.0899C8.4 14.7399 7.9 14.4899 7 14.4899C6.1 14.4899 5.6 14.7399 4.95 15.0899L4.82165 15.1519C4.33722 15.3864 3.80872 15.6422 3.12 15.7799C2.54 15.8999 2 15.4599 2 14.8699V14.7699C2 14.3199 2.33 13.9599 2.77 13.8599C3.19394 13.7607 3.54466 13.5882 3.9249 13.4013L4.05 13.3399L4.12827 13.3012C4.85752 12.9406 5.66784 12.5399 7 12.5399C8.37117 12.5399 9.18949 12.9546 9.9356 13.3326L9.95 13.3399C10.6 13.6899 11.1 13.9399 12 13.9399C12.8342 13.9399 13.3558 13.6825 13.9703 13.3792L14.05 13.3399L14.0849 13.3227ZM14.05 17.7899C14.8 17.4099 15.65 16.9899 17 16.9899C18.35 16.9899 19.2 17.4099 19.95 17.7999C20.38 18.0299 20.75 18.2199 21.21 18.3199C21.66 18.4199 22 18.7799 22 19.2399V19.3299C22 19.9099 21.46 20.3499 20.88 20.2399C20.1605 20.096 19.6159 19.8233 19.1137 19.5718L19.05 19.5399C18.4 19.1899 17.9 18.9399 17 18.9399C16.1318 18.9399 15.6022 19.2088 14.9541 19.5379L14.95 19.5399L14.9356 19.5472C14.1895 19.9253 13.3712 20.3399 12 20.3399C10.6288 20.3399 9.81051 19.9253 9.0644 19.5472L9.05 19.5399C8.4 19.1899 7.88 18.9399 7 18.9399C6.13154 18.9399 5.6137 19.2029 4.9755 19.527L4.95 19.5399C4.44 19.7999 3.88 20.0799 3.14 20.2299C2.56 20.3499 2 19.9199 2 19.3199V19.2199C2 18.7699 2.33 18.4099 2.78 18.3099C3.24 18.1999 3.62 18.0099 4.05 17.7899L4.0644 17.7826C4.81051 17.4046 5.62883 16.9899 7 16.9899C8.37117 16.9899 9.18949 17.4046 9.9356 17.7826L9.95 17.7899C10.6 18.1399 11.1 18.3899 12 18.3899C12.8682 18.3899 13.3978 18.121 14.0459 17.792L14.05 17.7899ZM14.0849 8.87268C14.8264 8.5067 15.6709 8.08991 17 8.08991C18.35 8.08991 19.2 8.50991 19.95 8.89991C20.38 9.12991 20.75 9.31991 21.21 9.41991C21.66 9.51991 22 9.87991 22 10.3399V10.4299C22 11.0099 21.46 11.4499 20.88 11.3399C20.1605 11.196 19.6159 10.9233 19.1137 10.6718C19.0924 10.6611 19.0711 10.6505 19.05 10.6399C18.4 10.2899 17.9 10.0399 17 10.0399C16.1658 10.0399 15.6442 10.2973 15.0297 10.6006C15.0033 10.6136 14.9768 10.6267 14.95 10.6399C14.924 10.6527 14.8979 10.6656 14.8717 10.6786C14.1425 11.0392 13.3322 11.4399 12 11.4399C10.6288 11.4399 9.81051 11.0253 9.0644 10.6472L9.05 10.6399C8.4 10.2899 7.87 10.0399 7 10.0399C6.16581 10.0399 5.64421 10.2973 5.02969 10.6006C5.00331 10.6136 4.97675 10.6267 4.95 10.6399C4.90751 10.6603 4.86476 10.681 4.82165 10.7019C4.33722 10.9364 3.80872 11.1922 3.12 11.3299C2.54 11.4499 2 11.0099 2 10.4199V10.3299C2 9.86991 2.34 9.50991 2.79 9.40991C3.25 9.30991 3.62 9.11991 4.05 8.88991C4.076 8.87709 4.10208 8.86419 4.12826 8.85124C4.85752 8.49062 5.66783 8.08991 7 8.08991C8.37117 8.08991 9.18949 8.50456 9.9356 8.88262L9.95 8.88991C10.6 9.23991 11.1 9.48991 12 9.48991C12.9 9.48991 13.4 9.23991 14.05 8.88991L14.0849 8.87268Z" fill="black"/>
</svg>
