<svg xmlns="http://www.w3.org/2000/svg" viewBox="0 0 24 24"><g xmlns="http://www.w3.org/2000/svg" id="3d-rotation" fill-rule="nonzero">
            <path d="M8.27 14.962c-.19 0-.37-.03-.52-.08a1.07 1.07 0 01-.4-.24c-.11-.1-.2-.22-.26-.37-.06-.14-.09-.3-.09-.47H5.7c0 .36.07.68.21.95.14.27.33.5.56.69.24.18.51.32.82.41.3.1.62.15.96.15.37 0 .72-.05 1.03-.15.32-.1.6-.25.83-.44.23-.19.42-.43.55-.72.13-.29.2-.61.2-.97 0-.19-.02-.38-.07-.56a1.67 1.67 0 00-.23-.51c-.1-.16-.24-.3-.4-.43-.17-.13-.37-.23-.61-.31a2.098 2.098 0 00.89-.75c.1-.15.17-.3.22-.46.05-.16.07-.32.07-.48 0-.36-.06-.68-.18-.96a1.78 1.78 0 00-.51-.69c-.2-.19-.47-.33-.77-.43-.31-.09-.65-.14-1.02-.14-.36 0-.69.05-1 .16-.3.11-.57.26-.79.45-.21.19-.38.41-.51.67-.12.26-.18.54-.18.85h1.3c0-.17.03-.32.09-.45a.94.94 0 01.25-.34c.11-.09.23-.17.38-.22.15-.05.3-.08.48-.08.4 0 .7.1.89.31.19.2.29.49.29.86 0 .18-.03.34-.08.49a.87.87 0 01-.25.37c-.11.1-.25.18-.41.24-.16.06-.36.09-.58.09h-.77v1.03h.77c.22 0 .42.02.6.07s.33.13.45.23c.12.11.22.24.29.4.07.16.1.35.1.57 0 .41-.12.72-.35.93-.23.23-.55.33-.95.33zm9.3-4.72c-.18-.47-.43-.87-.75-1.2-.32-.33-.7-.59-1.14-.77-.43-.18-.92-.27-1.46-.27h-2.36v8h2.3c.55 0 1.06-.09 1.51-.27.45-.18.84-.43 1.16-.76.32-.33.57-.73.74-1.19.17-.47.26-.99.26-1.57v-.4c0-.58-.09-1.1-.26-1.57zm-1.13 1.96c0 .42-.05.79-.14 1.13-.1.33-.24.62-.43.85-.19.23-.43.41-.71.53-.29.12-.62.18-.99.18h-.91v-5.78h.97c.72 0 1.27.23 1.64.69.38.46.57 1.12.57 1.99v.41zm-1.43-8.36l1.33-1.33c3.09 1.46 5.34 4.37 5.89 7.86.06.41.44.69.86.62.41-.06.69-.45.62-.86-.6-3.81-2.96-7.01-6.24-8.75A11.81 11.81 0 0011.2.022l3.81 3.82zm-6.3 16.31l-1.33 1.33a10.504 10.504 0 01-5.89-7.86.737.737 0 00-.86-.62c-.41.06-.69.45-.62.86.6 3.81 2.96 7.01 6.24 8.75 1.67.89 3.83 1.51 6.27 1.36l-3.81-3.82z"/>
        </g></svg>