<svg xmlns="http://www.w3.org/2000/svg" viewBox="0 0 24 24"><g xmlns="http://www.w3.org/2000/svg" id="accessible-forward" fill-rule="nonzero">
            <path d="M18 6.54a2 2 0 110-4 2 2 0 010 4zM15 17c0 2.76-2.24 5-5 5s-5-2.24-5-5 2.24-5 5-5v2c-1.65 0-3 1.35-3 3s1.35 3 3 3 3-1.35 3-3h2zm3-3.5c1.1 0 2 .9 2 2V20c0 .55-.45 1-1 1s-1-.45-1-1v-4h-4.98c-1.46 0-2.45-1.57-1.85-2.9L13 9h-2.21l-.3.71c-.2.47-.71.72-1.2.58-.57-.16-.89-.77-.68-1.33l.28-.76C9.22 7.47 9.95 7 10.76 7h5.2c1.48 0 2.46 1.5 1.85 2.83l-1.67 3.67H18z"/>
        </g></svg>