<svg xmlns="http://www.w3.org/2000/svg" viewBox="0 0 24 24"><g xmlns="http://www.w3.org/2000/svg" id="add-a-photo" fill-rule="nonzero">
            <path d="M3 8V6H1c-.55 0-1-.45-1-1s.45-1 1-1h2V2c0-.55.45-1 1-1s1 .45 1 1v2h2c.55 0 1 .45 1 1s-.45 1-1 1H5v2c0 .55-.45 1-1 1s-1-.45-1-1zm10 9a3 3 0 110-6 3 3 0 010 6zm8-11c1.1 0 2 .9 2 2v12c0 1.1-.9 2-2 2H5c-1.1 0-2-.9-2-2V9.72c.3.17.63.28 1 .28 1.1 0 2-.9 2-2V7h1c1.1 0 2-.9 2-2 0-.37-.11-.7-.28-1h6.4c.56 0 1.1.24 1.47.65L17.83 6H21zm-8 13c2.76 0 5-2.24 5-5s-2.24-5-5-5-5 2.24-5 5 2.24 5 5 5z"/>
        </g></svg>