<svg xmlns="http://www.w3.org/2000/svg" viewBox="0 0 24 24"><g xmlns="http://www.w3.org/2000/svg" id="antenna-receive">
            <path d="M5.531 17.839l1.058.988 2.336-.225.906 1.824a1 1 0 01-.779 1.438l-.117.007h-4.73a1 1 0 01-.83-1.56l.078-.099L5.53 17.84zm1.567-7.795a1 1 0 01.625.29l2.319 2.319L12 12l-.653 1.958 1.868 1.867a1 1 0 01-.626 1.704l-5.285.433a1 1 0 01-.788-.29l-.64-.64a1 1 0 01-.29-.788l.433-5.285a1 1 0 011.079-.915zM14 9a1 1 0 110 2 1 1 0 010-2zm2-2a1 1 0 110 2 1 1 0 010-2zm2.5-3a1.5 1.5 0 110 3 1.5 1.5 0 010-3z"/>
        </g></svg>