<svg xmlns="http://www.w3.org/2000/svg" viewBox="0 0 24 24"><g xmlns="http://www.w3.org/2000/svg" id="antenna-transmit">
            <path d="M5.531 17.839l1.058.988 2.336-.225.906 1.824a1 1 0 01-.779 1.438l-.117.007h-4.73a1 1 0 01-.83-1.56l.078-.099L5.53 17.84zm1.567-7.795a1 1 0 01.625.29l2.319 2.319L12 12l-.653 1.958 1.868 1.867a1 1 0 01-.626 1.704l-5.285.433a1 1 0 01-.788-.29l-.64-.64a1 1 0 01-.29-.788l.433-5.285a1 1 0 011.079-.915zm4.942-4.043l.113.012a7.076 7.076 0 015.836 5.834c.091.607-.394 1.153-1.011 1.153-.458 0-.846-.31-.967-.748l-.025-.111a5.075 5.075 0 00-4.126-4.126 1.01 1.01 0 01-.86-.99c0-.54.418-.987.93-1.023h.11zm-.042-4l.118.004a11.03 11.03 0 019.879 9.89A1.009 1.009 0 0120.99 13a.993.993 0 01-.995-.884 9.042 9.042 0 00-8.12-8.12C11.371 3.944 11 3.502 11 3c0-.514.393-.93.883-.992L11.998 2z"/>
        </g></svg>