<svg width="24" height="24" viewBox="0 0 24 24" fill="none" xmlns="http://www.w3.org/2000/svg">
<path fill-rule="evenodd" clip-rule="evenodd" d="M3 9H6C6.55 9 7 9.45 7 10V14.25C7 14.66 6.66 15 6.25 15C5.84 15 5.5 14.66 5.5 14.25V13.5H3.5V14.25C3.5 14.66 3.16 15 2.75 15C2.34 15 2 14.66 2 14.25V10C2 9.45 2.45 9 3 9ZM8.75 10.5C8.34 10.5 8 10.16 8 9.75C8 9.34 8.34 9 8.75 9H13.25C13.66 9 14 9.34 14 9.75C14 10.16 13.66 10.5 13.25 10.5H11.75V14.25C11.75 14.66 11.41 15 11 15C10.59 15 10.25 14.66 10.25 14.25V10.5H8.75ZM5.5 12H3.5V10.5H5.5V12ZM16.5 9H21C21.55 9 22 9.45 22 10V14.25C22 14.66 21.66 15 21.25 15C20.84 15 20.5 14.66 20.5 14.25V10.49H19.5V13.25C19.5 13.66 19.16 14 18.75 14C18.34 14 18 13.66 18 13.25V10.5H17V14.25C17 14.66 16.66 15 16.25 15C15.84 15 15.5 14.66 15.5 14.25V10C15.5 9.45 15.95 9 16.5 9Z" fill="black"/>
</svg>
