<svg xmlns="http://www.w3.org/2000/svg" viewBox="0 0 24 24"><g xmlns="http://www.w3.org/2000/svg" id="av-timer" fill-rule="nonzero">
            <path d="M12 17a1 1 0 110-2 1 1 0 010 2zm-5-5a1 1 0 110-2 1 1 0 010 2zm10 0a1 1 0 110-2 1 1 0 010 2zM12 2c5.07 0 9.16 4.19 8.99 9.29-.15 4.7-4.08 8.6-8.78 8.71C7.14 20.12 3 16.04 3 11c0-2.6 1.1-4.93 2.86-6.56.4-.37 1.02-.36 1.4.02l5.44 5.43a.996.996 0 11-1.41 1.41L6.58 6.58A6.917 6.917 0 005 11c0 3.91 3.19 7.06 7.12 7 3.85-.06 7.02-3.41 6.88-7.26-.13-3.41-2.69-6.18-6-6.66V5c0 .55-.45 1-1 1s-1-.45-1-1V3c0-.55.45-1 1-1z"/>
        </g></svg>