<svg xmlns="http://www.w3.org/2000/svg" viewBox="0 0 24 24"><g xmlns="http://www.w3.org/2000/svg" id="battery-charging-50" fill-rule="nonzero">
            <path d="M13 2c.51 0 .935.388.993.884L14 3v1h1.67c.687 0 1.259.531 1.324 1.203L17 5.33v15.34c0 .687-.531 1.259-1.211 1.324L15.66 22H8.33a1.337 1.337 0 01-1.324-1.203L7 20.67V5.33c0-.687.531-1.259 1.203-1.324L8.33 4H10V3c0-.51.388-.935.884-.993L11 2h2zm0 1h-2v2H8.33a.337.337 0 00-.323.265L8 5.33l-.001 7.669h.087c.2.566.732 1 1.415 1h.169l.001 2.5c0 1.56 2.091 2.082 2.822.711L14.742 13H16V5.33a.337.337 0 00-.265-.323L15.67 5H13V3zm-.329 4.5V11h1.17c.37 0 .62.4.44.74l-2.67 5c-.24.45-.94.28-.94-.24V13h-1.17a.5.5 0 01-.44-.74l2.67-5c.24-.45.94-.28.94.24z"/>
        </g></svg>