<svg xmlns="http://www.w3.org/2000/svg" viewBox="0 0 24 24"><g xmlns="http://www.w3.org/2000/svg" id="battery-20" fill-rule="nonzero">
            <path d="M8.33 22a1.337 1.337 0 01-1.324-1.203L7 20.67V5.33c0-.687.531-1.259 1.203-1.324L8.33 4H10V3c0-.51.388-.935.884-.993L11 2h2c.51 0 .935.388.993.884L14 3v1h1.67c.687 0 1.259.531 1.324 1.203L17 5.33v15.34l-.005.11-.02.148-.023.094-.04.12-.06.136-.069.115-.073.101-.12.133-.078.068-.077.06-.129.08-.14.066-.119.042-.068.019a1.338 1.338 0 01-.19.032L15.66 22H8.33zM13 3h-2v2H8.33a.337.337 0 00-.323.265L8 5.33 7.999 17H16V5.33a.337.337 0 00-.265-.323L15.67 5H13V3z"/>
        </g></svg>