<svg xmlns="http://www.w3.org/2000/svg" viewBox="0 0 24 24"><g xmlns="http://www.w3.org/2000/svg" id="blur-off" fill-rule="nonzero">
            <path d="M14 7a1 1 0 110-2 1 1 0 010 2zm-.2 4.48c-.67-.09-1.19-.61-1.28-1.28l-.02-.2c0-.83.67-1.5 1.5-1.5s1.5.67 1.5 1.5-.67 1.5-1.5 1.5l-.2-.02zM14 3.5c-.28 0-.5-.22-.5-.5s.22-.5.5-.5.5.22.5.5-.22.5-.5.5zm-4 0c-.28 0-.5-.22-.5-.5s.22-.5.5-.5.5.22.5.5-.22.5-.5.5zm8 7.5a1 1 0 110-2 1 1 0 010 2zm0-4a1 1 0 110-2 1 1 0 010 2zm3 3.5c-.28 0-.5-.22-.5-.5s.22-.5.5-.5.5.22.5.5-.22.5-.5.5zM10 7a1 1 0 110-2 1 1 0 010 2zm8 8a1 1 0 110-2 1 1 0 010 2zM6 19a1 1 0 110-2 1 1 0 010 2zm8 1.5c.28 0 .5.22.5.5s-.22.5-.5.5-.5-.22-.5-.5.22-.5.5-.5zm7-7c.28 0 .5.22.5.5s-.22.5-.5.5-.5-.22-.5-.5.22-.5.5-.5zm-18 0c.28 0 .5.22.5.5s-.22.5-.5.5-.5-.22-.5-.5.22-.5.5-.5zm7 5.5a1 1 0 110-2 1 1 0 010 2zM3 9.5c.28 0 .5.22.5.5s-.22.5-.5.5-.5-.22-.5-.5.22-.5.5-.5zm7 11c.28 0 .5.22.5.5s-.22.5-.5.5-.5-.22-.5-.5.22-.5.5-.5zM6 15a1 1 0 110-2 1 1 0 010 2zM3.21 4.56a.996.996 0 011.41 0l14.81 14.81c.39.4.39 1.03 0 1.42a.996.996 0 01-1.41 0l-3.08-3.07c.03.09.06.18.06.28 0 .55-.45 1-1 1s-1-.45-1-1 .45-1 1-1c.1 0 .19.03.28.06l-2.81-2.81c-.11.71-.73 1.25-1.47 1.25-.83 0-1.5-.67-1.5-1.5 0-.74.54-1.36 1.25-1.47L6.94 9.72c.03.09.06.18.06.28 0 .55-.45 1-1 1s-1-.45-1-1 .45-1 1-1l.28.04-3.07-3.07a.996.996 0 010-1.41z"/>
        </g></svg>