<svg width="24" height="24" viewBox="0 0 24 24" fill="none" xmlns="http://www.w3.org/2000/svg">
<path fill-rule="evenodd" clip-rule="evenodd" d="M4.5 4H8.79C9.24 4 9.46 4.54 9.15 4.84L7.71 6.28L12.71 11.29C12.89 11.48 13 11.74 13 12V19C13 19.55 12.55 20 12 20C11.45 20 11 19.55 11 19V12.4L6.29 7.7L4.85 9.14C4.54 9.46 4 9.24 4 8.79V4.5C4 4.22 4.22 4 4.5 4ZM16.29 6.29L14.85 4.85C14.54 4.54 14.76 4 15.21 4H19.5C19.78 4 20 4.22 20 4.5V8.79C20 9.24 19.46 9.46 19.15 9.15L17.71 7.71L14.83 10.59L13.41 9.17L16.29 6.29Z" fill="black"/>
</svg>
