<svg width="24" height="24" viewBox="0 0 24 24" fill="none" xmlns="http://www.w3.org/2000/svg">
<path fill-rule="evenodd" clip-rule="evenodd" d="M17 0H7C5.9 0 5 0.9 5 2V16C5 17.1 5.9 18 7 18H17C18.1 18 19 17.1 19 16V2C19 0.9 18.1 0 17 0ZM17 12.5C17 10.83 13.67 10 12 10C10.33 10 7 10.83 7 12.5V3C7 2.45 7.45 2 8 2H16C16.55 2 17 2.45 17 3V12.5ZM10 19.21C10 18.76 10.54 18.54 10.85 18.85L12.64 20.64C12.84 20.84 12.84 21.15 12.64 21.35L10.85 23.14C10.54 23.46 10 23.24 10 22.79V22H6C5.45 22 5 21.55 5 21C5 20.45 5.45 20 6 20H10V19.21ZM18 20H15C14.45 20 14 20.45 14 21C14 21.55 14.45 22 15 22H18C18.55 22 19 21.55 19 21C19 20.45 18.55 20 18 20ZM14 6C14 7.1 13.1 8 12 8C10.9 8 10.01 7.1 10.01 6C10.01 4.9 10.9 4 12 4C13.1 4 14 4.9 14 6Z" fill="black"/>
</svg>
