<svg width="24" height="24" viewBox="0 0 24 24" fill="none" xmlns="http://www.w3.org/2000/svg">
<path fill-rule="evenodd" clip-rule="evenodd" d="M17 6H20C21.11 6 22 6.89 22 8V19C22 20.11 21.11 21 20 21H4C2.89 21 2 20.11 2 19V8C2 6.89 2.89 6 4 6H7V4C7 2.89 7.89 2 9 2H15C16.11 2 17 2.89 17 4V6ZM15 4H9V6H15V4ZM20 19H4V17H20V19ZM4 14H20V9C20 8.45 19.55 8 19 8H17V9C17 9.55 16.55 10 16 10C15.45 10 15 9.55 15 9V8H9V9C9 9.55 8.55 10 8 10C7.45 10 7 9.55 7 9V8H5C4.45 8 4 8.45 4 9V14Z" fill="black"/>
</svg>
