<svg xmlns="http://www.w3.org/2000/svg" viewBox="0 0 24 24"><g xmlns="http://www.w3.org/2000/svg" id="cell-wifi" fill-rule="nonzero">
            <path d="M8.41 22c-.851 0-1.3-.988-.786-1.625l.076-.085L20.29 7.68c.603-.603 1.617-.217 1.704.596L22 8.39V20c0 1.05-.82 1.918-1.851 1.994L20 22H8.41zM21 8.39l-3 3.002v9.606L20 21c.509 0 .935-.39.993-.884L21 20V8.39zM9.07 11.07a2.74 2.74 0 013.86 0L11 13zM7.3 7.82a6.402 6.402 0 017.4 0c.45.32.49.99.1 1.38-.31.32-.8.36-1.16.1a4.553 4.553 0 00-5.27 0 .9.9 0 01-1.17-.1.908.908 0 01.1-1.38zM4.69 5.24c3.68-3.01 9.03-2.99 12.7.06.39.32.43.89.08 1.24l-.12.12c-.31.31-.8.31-1.14.03-3.01-2.48-7.4-2.48-10.41 0a.88.88 0 01-1.19-.08c-.39-.38-.35-1.02.08-1.37z"/>
        </g></svg>