<svg xmlns="http://www.w3.org/2000/svg" viewBox="0 0 24 24"><g xmlns="http://www.w3.org/2000/svg" id="child-care" fill-rule="nonzero">
            <path d="M14.5 11.75a1.25 1.25 0 110-2.5 1.25 1.25 0 010 2.5zm-5 0a1.25 1.25 0 110-2.5 1.25 1.25 0 010 2.5zM16.1 14c.18 0 .31.2.23.37C15.5 15.94 13.87 17 12 17s-3.5-1.06-4.33-2.63c-.09-.17.04-.37.23-.37h8.2zm6.84-2.66c.04.21.06.43.06.66 0 .23-.02.45-.06.66a3.998 3.998 0 01-2.8 3.17 9.086 9.086 0 01-2.17 2.89A8.93 8.93 0 0112 21c-2.29 0-4.38-.86-5.96-2.28-.9-.8-1.65-1.78-2.17-2.89a4.008 4.008 0 01-2.81-3.17C1.02 12.45 1 12.23 1 12c0-.23.02-.45.06-.66a3.994 3.994 0 012.81-3.17c.52-1.11 1.27-2.1 2.19-2.91A8.885 8.885 0 0112 3c2.28 0 4.36.85 5.94 2.26.91.81 1.66 1.79 2.19 2.91 1.45.43 2.56 1.66 2.81 3.17zM19 14c1.1 0 2-.9 2-2s-.9-2-2-2c-.1 0-.19.02-.29.03-.2-.67-.49-1.29-.86-1.86A6.976 6.976 0 0012 5C9.55 5 7.4 6.26 6.15 8.17c-.37.57-.66 1.19-.86 1.86-.1-.01-.19-.03-.29-.03-1.1 0-2 .9-2 2s.9 2 2 2c.1 0 .19-.02.29-.03.2.67.49 1.29.86 1.86A6.976 6.976 0 0012 19c2.45 0 4.6-1.26 5.85-3.17.37-.57.66-1.19.86-1.86.1.01.19.03.29.03z"/>
        </g></svg>