<svg width="24" height="24" viewBox="0 0 24 24" fill="none" xmlns="http://www.w3.org/2000/svg">
<path fill-rule="evenodd" clip-rule="evenodd" d="M22 6V8.54C22 9.23 21.66 9.91 21.06 10.24C20.43 10.58 20 11.24 20 12C20 12.76 20.43 13.42 21.06 13.76C21.66 14.09 22 14.77 22 15.46V18C22 19.1 21.1 20 20 20H4C2.9 20 2 19.1 2 18V15.46C2 14.77 2.34 14.09 2.94 13.76C3.57 13.43 4 12.76 4 12C4 11.24 3.58 10.58 2.95 10.23C2.34 9.91 2.01 9.23 2.01 8.54V6C2.01 4.89 2.9 4 4 4H20C21.1 4 22 4.9 22 6ZM11 17.5H13V15.5H11V17.5ZM13 13H11V11H13V13ZM11 8.5H13V6.5H11V8.5Z" fill="black"/>
</svg>
