<svg xmlns="http://www.w3.org/2000/svg" viewBox="0 0 24 24"><g xmlns="http://www.w3.org/2000/svg" id="control-camera" fill-rule="nonzero">
            <path d="M4.65 9.35L2.7 11.3a.996.996 0 000 1.41l1.95 1.95c.49.49 1.28.49 1.77 0 .48-.49.48-1.27 0-1.76l-.88-.9.88-.89c.48-.49.48-1.27 0-1.76a1.25 1.25 0 00-1.77 0zm12.93 0c-.48.49-.48 1.27 0 1.76l.88.89-.88.89c-.48.49-.48 1.27 0 1.76.49.49 1.28.49 1.77 0l1.95-1.95a.996.996 0 000-1.41l-1.95-1.95c-.49-.48-1.29-.48-1.77.01zM12 18.46l-.89-.88c-.49-.48-1.27-.48-1.76 0a1.25 1.25 0 000 1.77l1.95 1.95c.39.39 1.02.39 1.41 0l1.95-1.95c.49-.49.49-1.28 0-1.77-.49-.48-1.27-.48-1.76 0l-.9.88zM9.35 6.42a1.25 1.25 0 010-1.77l1.94-1.95a.996.996 0 011.41 0l1.95 1.95c.49.49.49 1.28 0 1.77-.49.48-1.27.48-1.76 0L12 5.54l-.89.88c-.49.48-1.27.48-1.76 0zM12 15a3 3 0 110-6 3 3 0 010 6z"/>
        </g></svg>