<svg xmlns="http://www.w3.org/2000/svg" viewBox="0 0 24 24"><g xmlns="http://www.w3.org/2000/svg" id="crop-rotate" fill-rule="nonzero">
            <path d="M16 8.64v4.8h2V7.68c0-1.056-.9-1.92-2-1.92h-6v1.92h5c.55 0 1 .432 1 .96zm3 6.72H9c-.55 0-1-.432-1-.96V4.8c0-.528-.45-.96-1-.96s-1 .432-1 .96v.96H5c-.55 0-1 .432-1 .96s.45.96 1 .96h1v7.68c0 1.056.9 1.92 2 1.92h8v.96c0 .528.45.96 1 .96s1-.432 1-.96v-.96h1c.55 0 1-.432 1-.96s-.45-.96-1-.96zM17.66 1.344A12.217 12.217 0 0011.39.038l3.81 3.658 1.33-1.277c3.09 1.402 5.34 4.195 5.89 7.546.06.393.44.662.86.595a.717.717 0 00.62-.826c-.6-3.648-2.96-6.72-6.24-8.39zM7.47 20.63c-3.09-1.401-5.34-4.195-5.89-7.545-.06-.394-.44-.663-.86-.595a.717.717 0 00-.62.825c.6 3.658 2.96 6.73 6.24 8.4 1.67.855 3.83 1.45 6.27 1.306L8.8 19.354 7.47 20.63z"/>
        </g></svg>