<svg width="24" height="24" viewBox="0 0 24 24" fill="none" xmlns="http://www.w3.org/2000/svg">
<path fill-rule="evenodd" clip-rule="evenodd" d="M3 3H21C22.1 3 23 3.9 23 5V17C23 18.1 22.1 19 21 19H16V20C16 20.55 15.55 21 15 21H9C8.45 21 8 20.55 8 20V19H3C1.9 19 1 18.1 1 17V5C1 3.9 1.9 3 3 3ZM4 17H20C20.55 17 21 16.55 21 16V6C21 5.45 20.55 5 20 5H4C3.45 5 3 5.45 3 6V16C3 16.55 3.45 17 4 17ZM18 8H9C8.45 8 8 8.45 8 9C8 9.55 8.45 10 9 10H18C18.55 10 19 9.55 19 9C19 8.45 18.55 8 18 8ZM9 12H18C18.55 12 19 12.45 19 13C19 13.55 18.55 14 18 14H9C8.45 14 8 13.55 8 13C8 12.45 8.45 12 9 12ZM7 8H5V10H7V8ZM5 12H7V14H5V12Z" fill="black"/>
</svg>
