<svg width="24" height="24" viewBox="0 0 24 24" fill="none" xmlns="http://www.w3.org/2000/svg">
<path fill-rule="evenodd" clip-rule="evenodd" d="M22 5C22 3.89543 21.1046 3 20 3H4C2.89543 3 2 3.89543 2 5V9C2 10.1046 2.89543 11 4 11H20C21.1046 11 22 10.1046 22 9V5ZM22 15C22 13.8954 21.1046 13 20 13H4C2.89543 13 2 13.8954 2 15V19C2 20.1046 2.89543 21 4 21H20C21.1046 21 22 20.1046 22 19V15ZM4 15H20V19H4V15ZM7 16V18H5V16H7ZM10 18V16H8V18H10ZM13 16V18H11V16H13ZM20 5H4V9H20V5ZM7 8V6H5V8H7ZM10 6V8H8V6H10ZM13 8V6H11V8H13Z" fill="black"/>
</svg>
