<svg xmlns="http://www.w3.org/2000/svg" viewBox="0 0 24 24"><g xmlns="http://www.w3.org/2000/svg" id="filter-center-focus" fill-rule="nonzero">
            <path d="M4 15c.51 0 .935.388.993.884L5 16v2c0 .51.388.935.884.993L6 19h2c.55 0 1 .45 1 1 0 .51-.388.935-.884.993L8 21H5c-1.05 0-1.918-.82-1.994-1.851L3 19v-3c0-.55.45-1 1-1zm16 0c.51 0 .935.388.993.884L21 16v3c0 1.05-.82 1.918-1.851 1.994L19 21h-3c-.55 0-1-.45-1-1 0-.51.388-.935.884-.993L16 19h2c.51 0 .935-.388.993-.884L19 18v-2c0-.55.45-1 1-1zm-8-6c1.66 0 3 1.34 3 3s-1.34 3-3 3-3-1.34-3-3 1.34-3 3-3zM8 3c.55 0 1 .45 1 1 0 .51-.388.935-.884.993L8 5H6c-.51 0-.935.388-.993.884L5 6v2c0 .55-.45 1-1 1-.51 0-.935-.388-.993-.884L3 8V5c0-1.05.82-1.918 1.851-1.994L5 3h3zm11 0c1.05 0 1.918.82 1.994 1.851L21 5v3c0 .55-.45 1-1 1-.51 0-.935-.388-.993-.884L19 8V6c0-.51-.388-.935-.884-.993L18 5h-2c-.55 0-1-.45-1-1 0-.51.388-.935.884-.993L16 3h3z"/>
        </g></svg>