<svg width="24" height="24" viewBox="0 0 24 24" fill="none" xmlns="http://www.w3.org/2000/svg">
<path fill-rule="evenodd" clip-rule="evenodd" d="M17.81 4.47C17.73 4.47 17.65 4.45 17.58 4.41C15.66 3.42 14 3 12.01 3C10.03 3 8.14998 3.47 6.43998 4.41C6.19999 4.54 5.89998 4.45 5.75998 4.21C5.62998 3.97 5.71999 3.66 5.95999 3.53C7.81998 2.52 9.85998 2 12.01 2C14.14 2 16 2.47 18.04 3.52C18.29 3.65 18.38 3.95 18.25 4.19C18.16 4.37 17.99 4.47 17.81 4.47ZM3.49998 9.72C3.39998 9.72 3.29998 9.69 3.20998 9.63C2.97998 9.47 2.92998 9.16 3.08998 8.93C4.07998 7.53 5.33998 6.43 6.83998 5.66C9.97999 4.04 14 4.03 17.15 5.65C18.65 6.42 19.91 7.51 20.9 8.9C21.06 9.12 21.01 9.44 20.78 9.6C20.55 9.76 20.24 9.71 20.08 9.48C19.18 8.22 18.04 7.23 16.69 6.54C13.82 5.07 10.15 5.07 7.28999 6.55C5.92999 7.25 4.78998 8.25 3.88998 9.51C3.80998 9.65 3.65998 9.72 3.49998 9.72ZM9.39998 21.64C9.48998 21.74 9.61999 21.79 9.74998 21.79C9.87998 21.79 10.01 21.74 10.12 21.64C10.31 21.44 10.31 21.13 10.12 20.93C9.34999 20.15 8.90999 19.66 8.26999 18.51C7.65999 17.43 7.33998 16.1 7.33998 14.66C7.33998 12.24 9.42999 10.27 12 10.27C14.57 10.27 16.66 12.24 16.66 14.66C16.66 14.94 16.88 15.16 17.16 15.16C17.44 15.16 17.66 14.94 17.66 14.66C17.66 11.69 15.12 9.27 12 9.27C8.87998 9.27 6.33998 11.69 6.33998 14.66C6.33998 16.27 6.69998 17.77 7.38999 19C8.05998 20.21 8.52998 20.77 9.39998 21.64ZM16.92 19.94C15.73 19.94 14.68 19.64 13.82 19.05C12.33 18.04 11.44 16.4 11.44 14.66C11.44 14.38 11.66 14.16 11.94 14.16C12.22 14.16 12.44 14.38 12.44 14.66C12.44 16.07 13.16 17.4 14.38 18.22C15.09 18.7 15.92 18.93 16.92 18.93C17.16 18.93 17.56 18.9 17.96 18.83C18.23 18.78 18.49 18.96 18.54 19.24C18.59 19.51 18.41 19.77 18.13 19.82C17.56 19.93 17.06 19.94 16.92 19.94ZM14.78 21.98C14.82 21.99 14.87 22 14.91 22C15.12 22 15.33 21.85 15.38 21.62C15.45 21.36 15.3 21.08 15.03 21.01C13.62 20.62 12.71 20.1 11.76 19.16C10.55 17.96 9.88999 16.36 9.88999 14.65C9.88999 13.58 10.82 12.71 11.97 12.71C13.12 12.71 14.05 13.58 14.05 14.65C14.05 16.27 15.43 17.59 17.13 17.59C18.83 17.59 20.21 16.27 20.21 14.65C20.21 10.33 16.51 6.82 11.96 6.82C8.72998 6.82 5.77998 8.63 4.44999 11.42C3.99998 12.37 3.76998 13.46 3.76998 14.66C3.76998 16.01 4.00998 17.31 4.49998 18.62C4.58999 18.87 4.87998 19.01 5.13999 18.91C5.39998 18.82 5.52998 18.53 5.42999 18.27C4.82998 16.67 4.75998 15.44 4.75998 14.66C4.75998 13.62 4.95999 12.67 5.34999 11.86C6.51998 9.41 9.11998 7.83 11.96 7.83C15.96 7.83 19.21 10.89 19.21 14.66C19.21 15.73 18.28 16.6 17.13 16.6C15.98 16.6 15.05 15.73 15.05 14.66C15.05 13.04 13.67 11.72 11.97 11.72C10.27 11.72 8.88999 13.04 8.88999 14.66C8.88999 16.64 9.65999 18.49 11.06 19.88C12.15 20.95 13.19 21.54 14.78 21.98Z" fill="black"/>
</svg>
