<svg xmlns="http://www.w3.org/2000/svg" viewBox="0 0 24 24"><g xmlns="http://www.w3.org/2000/svg" id="format-color-fill" fill-rule="nonzero">
            <path d="M16.56 8.94L8.32.7a.996.996 0 10-1.41 1.41l1.68 1.68-5.15 5.15a1.49 1.49 0 000 2.12l5.5 5.5c.29.29.68.44 1.06.44s.77-.15 1.06-.44l5.5-5.5c.59-.58.59-1.53 0-2.12zM5.21 10L10 5.21 14.79 10H5.21zM22 20c1.1 0 2 .9 2 2s-.9 2-2 2H2c-1.1 0-2-.9-2-2s.9-2 2-2h20zm-3-8.5s2 2.17 2 3.5c0 1.1-.9 2-2 2s-2-.9-2-2c0-1.33 2-3.5 2-3.5z"/>
        </g></svg>