<svg xmlns="http://www.w3.org/2000/svg" viewBox="0 0 24 24"><g xmlns="http://www.w3.org/2000/svg" id="forward-5" fill-rule="nonzero">
            <path d="M19.87 14c-.5 0-.91.37-.98.86a6.006 6.006 0 01-7.42 4.96c-2.25-.54-3.91-2.27-4.39-4.53A6.014 6.014 0 0112.95 8v2.79c0 .45.54.67.85.35l3.79-3.79c.2-.2.2-.51 0-.71L13.8 2.85a.5.5 0 00-.85.35V6c-4.94 0-8.84 4.48-7.84 9.6.6 3.11 2.9 5.5 5.99 6.19 4.83 1.08 9.15-2.2 9.77-6.67.09-.59-.4-1.12-1-1.12zm-6.44 2.15c-.05.07-.11.13-.18.17-.07.04-.17.06-.27.06a.6.6 0 01-.42-.15.633.633 0 01-.19-.41h-.84c.01.2.05.37.13.53.08.16.19.28.32.39.13.11.29.19.46.24.17.05.35.08.53.08.24 0 .46-.04.64-.12.18-.08.33-.18.45-.31s.21-.28.27-.45c.06-.17.09-.35.09-.54 0-.22-.03-.43-.09-.6a1.31 1.31 0 00-.25-.45c-.11-.12-.25-.22-.41-.28-.16-.06-.34-.1-.55-.1-.07 0-.14.01-.2.02s-.13.02-.18.04c-.05.02-.1.03-.15.05-.05.02-.08.04-.11.05l.11-.92h1.7v-.71H11.9l-.25 2.17.67.17c.03-.03.06-.06.1-.09.04-.03.07-.05.12-.07.05-.02.1-.04.15-.05.05-.01.13-.02.2-.02.12 0 .22.02.3.05.08.03.16.09.21.15.05.06.1.14.13.24.03.1.04.19.04.31s-.01.22-.03.31c-.02.09-.06.17-.11.24z"/>
        </g></svg>