<svg xmlns="http://www.w3.org/2000/svg" viewBox="0 0 24 24"><g xmlns="http://www.w3.org/2000/svg" id="hot-tub" fill-rule="nonzero">
            <path d="M7 8a2 2 0 110-4 2 2 0 010 4zm14 4c.55 0 1 .45 1 1v7c0 1.1-.9 2-2 2H4c-1.1 0-2-.9-2-2v-7c0-.55.45-1 1-1h2v-.75C5 10.01 6.01 9 7.25 9h.03c.34 0 .67.09.96.23.26.12.5.29.69.5l1.4 1.55c.23.26.51.5.82.72H21zM7 19v-4c0-.55-.45-1-1-1s-1 .45-1 1v4c0 .55.45 1 1 1s1-.45 1-1zm4 0v-4c0-.55-.45-1-1-1s-1 .45-1 1v4c0 .55.45 1 1 1s1-.45 1-1zm4 0v-4c0-.55-.45-1-1-1s-1 .45-1 1v4c0 .55.45 1 1 1s1-.45 1-1zm4 0v-4c0-.55-.45-1-1-1s-1 .45-1 1v4c0 .55.45 1 1 1s1-.45 1-1zm-3.94-9c-.53 0-.94-.44-.93-.96 0-.62-.17-1.3-.78-1.89A4.342 4.342 0 0112 3.9c.01-.5.44-.9.94-.9.53 0 .96.43.94.95-.03.64.12 1.19.77 1.91.77.77 1.39 1.85 1.35 3.25-.01.5-.44.89-.94.89zm4 0c-.53 0-.94-.44-.93-.96 0-.62-.17-1.3-.78-1.89A4.342 4.342 0 0116 3.9c.01-.5.44-.9.94-.9.53 0 .96.43.94.95-.03.64.12 1.19.77 1.91.77.77 1.39 1.85 1.35 3.25-.01.5-.44.89-.94.89z"/>
        </g></svg>