<svg xmlns="http://www.w3.org/2000/svg" viewBox="0 0 24 24"><g xmlns="http://www.w3.org/2000/svg" id="keyboard-hide" fill-rule="nonzero">
            <path d="M20 2H4c-1.1 0-1.99.9-1.99 2L2 14c0 1.1.9 2 2 2h16c1.1 0 2-.9 2-2V4c0-1.1-.9-2-2-2zm-9 3h2v2h-2V5zm0 3h2v2h-2V8zM8 5h2v2H8V5zm0 3h2v2H8V8zm-1 2H5V8h2v2zm0-3H5V5h2v2zm8 7H9c-.55 0-1-.45-1-1s.45-1 1-1h6c.55 0 1 .45 1 1s-.45 1-1 1zm1-4h-2V8h2v2zm0-3h-2V5h2v2zm3 3h-2V8h2v2zm0-3h-2V5h2v2zm-6.65 14.65l2.79-2.79a.5.5 0 00-.35-.85H9.21c-.45 0-.67.54-.35.85l2.79 2.79c.19.19.51.19.7 0z"/>
        </g></svg>