<svg xmlns="http://www.w3.org/2000/svg" viewBox="0 0 24 24"><g xmlns="http://www.w3.org/2000/svg" id="linked-camera" fill-rule="nonzero">
            <path d="M12 17a3 3 0 110-6 3 3 0 010 6zm4.6-13.63a.67.67 0 01-.6-.66c0-.39.34-.71.73-.66 2.72.33 4.89 2.5 5.22 5.22.05.39-.27.73-.66.73a.67.67 0 01-.66-.6c-.26-2.1-1.93-3.76-4.03-4.03zm2.63 3.82c.1.41-.22.81-.65.81-.3 0-.57-.19-.64-.48-.17-.72-.74-1.28-1.46-1.46-.29-.07-.48-.35-.48-.64 0-.43.4-.75.81-.65 1.19.3 2.12 1.23 2.42 2.42zM17 9h3c1.1 0 2 .9 2 2v9c0 1.1-.9 2-2 2H4c-1.1 0-2-.9-2-2V8c0-1.1.9-2 2-2h3.17L8.4 4.65c.38-.41.92-.65 1.48-.65H14c.55 0 1 .45 1 1v2c1.1 0 2 .9 2 2zm-5 10c2.76 0 5-2.24 5-5s-2.24-5-5-5-5 2.24-5 5 2.24 5 5 5z"/>
        </g></svg>