<svg width="24" height="24" viewBox="0 0 24 24" fill="none" xmlns="http://www.w3.org/2000/svg">
<path fill-rule="evenodd" clip-rule="evenodd" d="M17.5 5C18.16 5 18.72 5.42 18.92 6.01L20.89 11.68C20.96 11.89 21 12.12 21 12.34V19.5C21 20.33 20.32 21 19.5 21C18.67 21 18 20.32 18 19.5V19H6V19.5C6 20.33 5.33 21 4.5 21C3.67 21 3 20.33 3 19.5V12.34C3 12.11 3.04 11.89 3.11 11.68L5.08 6.01C5.29 5.42 5.84 5 6.5 5H9V4C9 3.45 9.45 3 10 3H14C14.55 3 15 3.45 15 4V5H17.5ZM5 14.5C5 15.33 5.67 16 6.5 16C7.33 16 8 15.33 8 14.5C8 13.67 7.33 13 6.5 13C5.67 13 5 13.67 5 14.5ZM17.5 16C16.67 16 16 15.33 16 14.5C16 13.67 16.67 13 17.5 13C18.33 13 19 13.67 19 14.5C19 15.33 18.33 16 17.5 16ZM6.5 6.5L5 11H19L17.5 6.5H6.5Z" fill="black"/>
</svg>
