<svg width="24" height="24" viewBox="0 0 24 24" fill="none" xmlns="http://www.w3.org/2000/svg">
<path fill-rule="evenodd" clip-rule="evenodd" d="M12 2C9.00999 2 6.27999 3.08 4.16999 4.88C3.45999 5.49 3.30999 6.53 3.76999 7.34L11.13 20.45C11.51 21.13 12.49 21.13 12.87 20.45L20.23 7.34C20.69 6.53 20.54 5.48 19.83 4.88C17.73 3.09 14.99 2 12 2ZM6.99999 7C6.99999 5.9 7.89999 5 8.99999 5C10.1 5 11 5.9 11 7C11 8.1 10.1 9 8.99999 9C7.89999 9 6.99999 8.1 6.99999 7ZM9.99999 13C9.99999 14.1 10.9 15 12 15C13.1 15 14 14.1 14 13C14 11.9 13.1 11 12 11C10.9 11 9.99999 11.9 9.99999 13Z" fill="black"/>
</svg>
