<svg xmlns="http://www.w3.org/2000/svg" viewBox="0 0 24 24"><g xmlns="http://www.w3.org/2000/svg" id="netcom">
            <path d="M16 2a3 3 0 11-.51 5.957l-.687 1.19c.51.501.887 1.139 1.071 1.853h2.394a2 2 0 110 2.001h-2.394a4 4 0 01-1.225 1.996l.564 1.107A3.004 3.004 0 0119 19a3 3 0 11-5.443-1.741l-.69-1.353a4.014 4.014 0 01-2.899-.46l-2.21 2.21-.164-.165a3 3 0 11-1.085-1.085l-.166-.163 2.21-2.211a4 4 0 014.516-5.887l.676-1.167A3 3 0 0116 2zm-4 8a2 2 0 100 4 2 2 0 000-4z"/>
        </g></svg>