<svg width="24" height="24" viewBox="0 0 24 24" fill="none" xmlns="http://www.w3.org/2000/svg">
<path fill-rule="evenodd" clip-rule="evenodd" d="M19 17L20.29 18.29C20.92 18.92 20.48 20 19.58 20H4.40999C3.51999 20 3.07999 18.92 3.70999 18.29L4.99999 17V11C4.99999 7.65 7.35999 4.85 10.5 4.17V3C10.5 2.17 11.17 1.5 12 1.5C12.83 1.5 13.5 2.17 13.5 3V4.17C16.64 4.85 19 7.65 19 11V17ZM13.99 21.01C13.99 22.11 13.1 23 12 23C10.9 23 10.01 22.11 10.01 21.01H13.99ZM11 16V14H13V16H11ZM12 12C12.55 12 13 11.55 13 11V9C13 8.45 12.55 8 12 8C11.45 8 11 8.45 11 9V11C11 11.55 11.45 12 12 12Z" fill="black"/>
</svg>
