<svg xmlns="http://www.w3.org/2000/svg" viewBox="0 0 24 24"><g xmlns="http://www.w3.org/2000/svg" id="payload" fill-rule="nonzero">
            <path d="M12.68 2.245l.162.071 8 4c.588.295.977.873 1.033 1.52l.007.164v8c0 .658-.343 1.264-.897 1.604l-.143.08-8 4a1.882 1.882 0 01-1.522.071l-.162-.071-8-4a1.882 1.882 0 01-1.033-1.52L2.118 16V8c0-.658.343-1.264.897-1.604l.143-.08.27-.136a1 1 0 01.259-.13l7.471-3.734a1.882 1.882 0 011.356-.127l.166.056zM4 8.179V16l7 3.5v-6.946L4 8.179zm16 .939l-7 3.5V19.5l7-3.5V9.118zM18.5 15a.5.5 0 110 1 .5.5 0 010-1zm-13 0a.5.5 0 110 1 .5.5 0 010-1zm11-1a.5.5 0 110 1 .5.5 0 010-1zm-9 0a.5.5 0 110 1 .5.5 0 010-1zm2-1a.5.5 0 110 1 .5.5 0 010-1zm5 0a.5.5 0 110 1 .5.5 0 010-1zM12 4L5.937 7.03l6.116 3.824 6.828-3.413L12 4zm0 5a.5.5 0 110 1 .5.5 0 010-1zm0-2a.5.5 0 110 1 .5.5 0 010-1zm0-2a.5.5 0 110 1 .5.5 0 010-1z"/>
        </g></svg>