<svg width="24" height="24" viewBox="0 0 24 24" fill="none" xmlns="http://www.w3.org/2000/svg">
<path fill-rule="evenodd" clip-rule="evenodd" d="M12.5 8.5C12.5 10.43 10.93 12 9 12C7.07 12 5.5 10.43 5.5 8.5C5.5 6.57 7.07 5 9 5C10.93 5 12.5 6.57 12.5 8.5ZM10.5 8.5C10.5 7.67 9.83 7 9 7C8.17 7 7.5 7.67 7.5 8.5C7.5 9.33 8.17 10 9 10C9.83 10 10.5 9.33 10.5 8.5ZM9 13.75C6.66 13.75 2 14.92 2 17.25V18C2 18.55 2.45 19 3 19H15C15.55 19 16 18.55 16 18V17.25C16 14.92 11.34 13.75 9 13.75ZM9 15.75C7.21 15.75 5.18 16.42 4.34 17H13.66C12.82 16.42 10.79 15.75 9 15.75ZM16.04 13.81C17.2 14.65 18 15.77 18 17.25V19H21C21.55 19 22 18.55 22 18V17.25C22 15.23 18.5 14.08 16.04 13.81ZM18.5 8.5C18.5 10.43 16.93 12 15 12C14.46 12 13.96 11.87 13.5 11.65C14.13 10.76 14.5 9.67 14.5 8.5C14.5 7.33 14.13 6.24 13.5 5.35C13.96 5.13 14.46 5 15 5C16.93 5 18.5 6.57 18.5 8.5Z" fill="black"/>
</svg>
