<svg xmlns="http://www.w3.org/2000/svg" viewBox="0 0 24 24"><g xmlns="http://www.w3.org/2000/svg" id="pets" fill-rule="nonzero">
            <path d="M4.5 12a2.5 2.5 0 110-5 2.5 2.5 0 010 5zM9 8a2.5 2.5 0 110-5 2.5 2.5 0 010 5zm6 0a2.5 2.5 0 110-5 2.5 2.5 0 010 5zm4.5 4a2.5 2.5 0 110-5 2.5 2.5 0 010 5zm-2.16 2.86c1.31 1.31 2.92 2.76 2.61 4.8-.29 1.01-1.02 2.03-2.33 2.32-.73.14-3.06-.44-5.54-.44h-.18c-2.48 0-4.81.59-5.54.44-1.31-.29-2.04-1.3-2.33-2.32-.3-2.03 1.31-3.48 2.62-4.79.88-1.02 1.61-1.89 2.48-2.91.47-.54 1.05-1.08 1.75-1.32.11-.04.22-.07.33-.09.26-.05.53-.05.79-.05s.53 0 .78.04c.11.02.22.05.33.09.7.24 1.29.78 1.75 1.32.88 1.02 1.61 1.89 2.48 2.91z"/>
        </g></svg>