<svg xmlns="http://www.w3.org/2000/svg" viewBox="0 0 24 24"><g xmlns="http://www.w3.org/2000/svg" id="phonelink-erase" fill-rule="nonzero">
            <path d="M12.5 7.7a.7.7 0 00-1 0L8 11.2 4.5 7.7a.7.7 0 00-1 0 .7.7 0 000 1L7 12.2l-3.5 3.5a.7.7 0 000 1 .7.7 0 001 0L8 13.2l3.5 3.5a.7.7 0 001 0 .7.7 0 000-1L9 12.2l3.5-3.5a.7.7 0 000-1zM19 1H9c-1.1 0-2 .9-2 2v2c0 .55.45 1 1 1s1-.45 1-1V4h10v16H9v-1c0-.55-.45-1-1-1s-1 .45-1 1v2c0 1.1.9 2 2 2h10c1.1 0 2-.9 2-2V3c0-1.1-.9-2-2-2z"/>
        </g></svg>