<svg width="24" height="24" viewBox="0 0 24 24" fill="none" xmlns="http://www.w3.org/2000/svg">
<path fill-rule="evenodd" clip-rule="evenodd" d="M20 4V3.5C20 2.12 18.88 1 17.5 1C16.12 1 15 2.12 15 3.5V4C14.45 4 14 4.45 14 5V9C14 9.55 14.45 10 15 10H20C20.55 10 21 9.55 21 9V5C21 4.45 20.55 4 20 4ZM19.23 15.26L16.69 14.97C16.08 14.9 15.48 15.11 15.05 15.54L13.21 17.38C10.38 15.94 8.05998 13.63 6.61998 10.79L8.46998 8.94C8.89998 8.51 9.10998 7.91 9.03998 7.3L8.74998 4.78C8.62998 3.77 7.77998 3.01 6.75998 3.01H5.02998C3.89998 3.01 2.95998 3.95 3.02998 5.08C3.55998 13.62 10.39 20.44 18.92 20.97C20.05 21.04 20.99 20.1 20.99 18.97V17.24C21 16.23 20.24 15.38 19.23 15.26ZM16 4H19V3.5C19 2.67 18.33 2 17.5 2C16.67 2 16 2.67 16 3.5V4Z" fill="black"/>
</svg>
