<svg xmlns="http://www.w3.org/2000/svg" viewBox="0 0 24 24"><g xmlns="http://www.w3.org/2000/svg" id="pool" fill-rule="nonzero">
            <path d="M6.11 5.56C5.49 5.48 5 4.98 5 4.35v-.09c0-.7.6-1.27 1.3-1.21 1.74.15 2.92.69 4.18 1.95l6.42 6.41c-.15.08-.29.16-.41.23-.37.23-.6.36-1.15.36-.55 0-.78-.14-1.15-.36-.45-.27-1.07-.64-2.18-.64s-1.73.37-2.19.64c-.37.23-.59.36-1.15.36-.56 0-.78-.13-1.15-.36-.21-.12-.46-.27-.77-.39L10 8 9 7c-.86-.86-1.7-1.3-2.89-1.44zm15.24 13.35c.38.13.65.45.65.86v.12c0 .67-.67 1.13-1.3.91-.37-.13-.65-.3-.88-.44-.37-.22-.6-.36-1.15-.36-.56 0-.78.13-1.15.36-.46.27-1.07.64-2.18.64s-1.73-.37-2.18-.64c-.37-.22-.6-.36-1.15-.36-.56 0-.78.13-1.15.36-.46.27-1.08.64-2.19.64-1.11 0-1.73-.37-2.18-.64-.37-.23-.6-.36-1.15-.36-.55 0-.78.13-1.15.35-.24.14-.52.31-.89.44a.971.971 0 01-1.3-.91v-.12c0-.4.27-.72.65-.85.17-.07.32-.16.5-.27.46-.27 1.08-.64 2.19-.64 1.11 0 1.73.37 2.18.64.37.23.59.36 1.15.36.56 0 .78-.13 1.15-.36.46-.27 1.08-.64 2.19-.64 1.11 0 1.73.37 2.18.64.37.22.6.36 1.15.36.55 0 .78-.13 1.15-.36.45-.27 1.07-.64 2.18-.64s1.73.37 2.18.64c.18.12.33.21.5.27zM3.11 16.35c-.56.16-1.11-.28-1.11-.86v-.23c0-.4.27-.72.65-.85.17-.07.32-.16.5-.27.45-.27 1.07-.64 2.18-.64s1.73.37 2.18.64c.37.22.6.36 1.15.36.56 0 .78-.13 1.15-.36.45-.27 1.07-.64 2.18-.64s1.73.37 2.18.64c.37.22.6.36 1.15.36.55 0 .78-.13 1.15-.36.45-.27 1.07-.64 2.18-.64s1.73.37 2.18.64c.19.11.34.2.51.26.37.14.64.46.64.86v.12c0 .67-.68 1.14-1.31.91-.35-.13-.62-.29-.85-.43-.37-.22-.6-.36-1.15-.36-.56 0-.78.13-1.15.36-.45.27-1.07.64-2.18.64s-1.73-.37-2.18-.64c-.37-.22-.6-.36-1.15-.36-.56 0-.78.13-1.15.36-.45.27-1.07.64-2.18.64s-1.73-.37-2.18-.64c-.37-.22-.6-.36-1.15-.36-.55 0-.78.13-1.15.36-.28.16-.62.36-1.09.49zM16.5 8a2.5 2.5 0 110-5 2.5 2.5 0 010 5z"/>
        </g></svg>