<svg xmlns="http://www.w3.org/2000/svg" viewBox="0 0 24 24"><g xmlns="http://www.w3.org/2000/svg" id="queue-play-next" fill-rule="nonzero">
            <path d="M20 2H2C.9 2 0 2.9 0 4v12c0 1.1.9 2 2 2h5v1c0 .55.45 1 1 1h6c.55 0 1-.45 1-1v-1h1c.55 0 1-.45 1-1s-.45-1-1-1H3c-.55 0-1-.45-1-1V5c0-.55.45-1 1-1h16c.55 0 1 .45 1 1v6c0 .55.45 1 1 1s1-.45 1-1V4c0-1.1-.9-2-2-2zm-8 7V7c0-.55-.45-1-1-1s-1 .45-1 1v2H8c-.55 0-1 .45-1 1s.45 1 1 1h2v2c0 .55.45 1 1 1s1-.45 1-1v-2h2c.55 0 1-.45 1-1s-.45-1-1-1h-2zm10.29 8.71l-3.04 3.04c-.41.41-1.09.41-1.5 0-.41-.41-.41-1.09 0-1.5L20 17l-2.25-2.25c-.41-.41-.41-1.09 0-1.5.41-.41 1.09-.41 1.5 0l3.04 3.04c.39.39.39 1.03 0 1.42z"/>
        </g></svg>