<svg xmlns="http://www.w3.org/2000/svg" viewBox="0 0 24 24"><g xmlns="http://www.w3.org/2000/svg" id="queue-music" fill-rule="nonzero">
            <path d="M13 5H3c-.55 0-1 .45-1 1s.45 1 1 1h10c.55 0 1-.45 1-1s-.45-1-1-1zm0 4H3c-.55 0-1 .45-1 1s.45 1 1 1h10c.55 0 1-.45 1-1s-.45-1-1-1zM3 15h6c.55 0 1-.45 1-1s-.45-1-1-1H3c-.55 0-1 .45-1 1s.45 1 1 1zM18 5c-1.1 0-2 .9-2 2v6.18c-.31-.11-.65-.18-1-.18-1.84 0-3.28 1.64-2.95 3.54.21 1.21 1.2 2.2 2.41 2.41 1.9.33 3.54-1.11 3.54-2.95V7h2c.55 0 1-.45 1-1s-.45-1-1-1h-2z"/>
        </g></svg>