<svg xmlns="http://www.w3.org/2000/svg" viewBox="0 0 24 24"><g xmlns="http://www.w3.org/2000/svg" id="rss-feed" fill-rule="nonzero">
            <path d="M6.18 20a2.18 2.18 0 110-4.36 2.18 2.18 0 010 4.36zm-.59-9.77c4.2.67 7.51 3.98 8.19 8.18.13.84-.56 1.59-1.41 1.59-.71 0-1.28-.53-1.4-1.23-.52-2.92-2.82-5.23-5.74-5.74-.7-.12-1.23-.69-1.23-1.4 0-.85.75-1.54 1.59-1.4zm-.03-5.71c7.35.73 13.19 6.58 13.92 13.92.08.83-.58 1.56-1.42 1.56-.73 0-1.33-.55-1.4-1.28-.6-6.01-5.38-10.79-11.39-11.39C4.55 7.26 4 6.66 4 5.93c0-.83.73-1.5 1.56-1.41z"/>
        </g></svg>