<svg xmlns="http://www.w3.org/2000/svg" viewBox="0 0 24 24"><g xmlns="http://www.w3.org/2000/svg" id="satellite-receive">
            <path d="M19.5 18a1.5 1.5 0 110 3 1.5 1.5 0 010-3zM8.172 12.414l1.414 1.414-2.85 3.99a1 1 0 01-1.52.125l-1.16-1.159a1 1 0 01.126-1.52l3.99-2.85zM17 16a1 1 0 110 2 1 1 0 010-2zm-2-2a1 1 0 110 2 1 1 0 010-2zm-3.293-5.121l1.414 1.414a2 2 0 11-2.828 2.828l-1.414-1.414a2 2 0 112.828-2.828zm4.983-4.906l.094.084 1.16 1.159a1 1 0 01-.029 1.441l-.097.08-3.99 2.849-1.414-1.414 2.85-3.99a1 1 0 011.325-.278l.101.07z"/>
        </g></svg>