<svg xmlns="http://www.w3.org/2000/svg" viewBox="0 0 24 24"><g xmlns="http://www.w3.org/2000/svg" id="satellite-transmit">
            <path d="M8.879 8.879a2 2 0 012.828 0l1.414 1.414a2 2 0 11-2.828 2.828l-1.414-1.414a2 2 0 010-2.828zM4.057 15.37a1 1 0 01.125-.106l3.99-2.85 1.414 1.414-2.85 3.99a1 1 0 01-1.52.125l-1.16-1.159a1 1 0 010-1.414zM20.99 11c.593 0 1.065.513 1.005 1.106a11.03 11.03 0 01-9.88 9.889A1.01 1.01 0 0111 21c0-.503.372-.945.874-.995a9.042 9.042 0 008.12-8.12.993.993 0 01.996-.885zm-4.012 0c.617 0 1.102.546 1.011 1.153a7.076 7.076 0 01-5.836 5.834c-.607.101-1.153-.394-1.153-1.011 0-.496.364-.91.86-.991a5.076 5.076 0 004.082-3.902l.044-.224c.081-.495.496-.859.992-.859zm-.288-7.027l.094.084 1.16 1.159a1 1 0 01-.029 1.441l-.097.08-3.99 2.849-1.414-1.414 2.85-3.99a1 1 0 011.426-.209z"/>
        </g></svg>