<svg xmlns="http://www.w3.org/2000/svg" viewBox="0 0 24 24"><g xmlns="http://www.w3.org/2000/svg" id="sentiment-dissatisfied" fill-rule="nonzero">
            <path d="M15.5 11a1.5 1.5 0 110-3 1.5 1.5 0 010 3zm-7 0a1.5 1.5 0 110-3 1.5 1.5 0 010 3zm3.49-9C17.52 2 22 6.48 22 12s-4.48 10-10.01 10C6.47 22 2 17.52 2 12S6.47 2 11.99 2zM12 20c4.42 0 8-3.58 8-8s-3.58-8-8-8-8 3.58-8 8 3.58 8 8 8zm0-6c1.9 0 3.63.96 4.66 2.58.22.35.11.81-.24 1.03a.83.83 0 01-.4.11c-.25 0-.5-.12-.64-.35-.74-1.18-2-1.88-3.38-1.88s-2.64.7-3.38 1.88a.747.747 0 11-1.27-.79C8.37 14.97 10.1 14 12 14z"/>
        </g></svg>