<svg xmlns="http://www.w3.org/2000/svg" viewBox="0 0 24 24"><g xmlns="http://www.w3.org/2000/svg" id="sentiment-satisfied" fill-rule="nonzero">
            <path d="M15.5 11a1.5 1.5 0 110-3 1.5 1.5 0 010 3zm-7 0a1.5 1.5 0 110-3 1.5 1.5 0 010 3zm3.49-9C17.52 2 22 6.48 22 12s-4.48 10-10.01 10C6.47 22 2 17.52 2 12S6.47 2 11.99 2zM12 20c4.42 0 8-3.58 8-8s-3.58-8-8-8-8 3.58-8 8 3.58 8 8 8zm4.41-6.11c.35.22.46.68.24 1.03-1.02 1.61-2.75 2.58-4.65 2.58-1.9 0-3.63-.96-4.65-2.59a.747.747 0 111.27-.79C9.36 15.3 10.62 16 12 16s2.64-.7 3.38-1.87c.21-.35.68-.46 1.03-.24z"/>
        </g></svg>