<svg xmlns="http://www.w3.org/2000/svg" viewBox="0 0 24 24"><g xmlns="http://www.w3.org/2000/svg" id="signal-wifi-2-bar-lock" fill-rule="nonzero">
            <path d="M20.5 12a2.473 2.473 0 012.495 2.333L23 14.5V16c.464 0 .929.431.993.893L24 17v4c0 .464-.431.929-.893.993L23 22h-5c-.464 0-.929-.431-.993-.893L17 21v-4c0-.464.431-.929.893-.993L18 16v-1.5c0-1.4 1.1-2.5 2.5-2.5zM12 3c3.355 0 6.152.915 8.168 1.872l.45.222.423.22.394.217.534.315.466.294.272.18.446.313.487.367-2.09 2.61c-.34-.07-.69-.11-1.05-.11a4.979 4.979 0 00-3.67 1.575l.01.005a4.959 4.959 0 00-1.226 2.343l-.051.273-.032.239-.008.068a5.227 5.227 0 00-.017.253l-.006.244v2.64l-1.94 2.42a1.998 1.998 0 01-3.012.125l-.108-.125L.36 7l.487-.367.321-.228.256-.173.286-.187.318-.2.44-.26.488-.27.422-.221.45-.222C5.843 3.915 8.64 3 12 3zm8.5 10c-.753 0-1.417.62-1.493 1.36L19 14.5V16h3v-1.5c0-.8-.7-1.5-1.5-1.5zM12 4c-2.917 0-5.604.714-8.016 1.909-.618.306-1.186.628-1.705.959l-.38.25-.106.071 3.804 4.741.297-.187.337-.2C7.484 10.834 9.477 10 12 10c1.488 0 2.784.288 3.854.673a5.956 5.956 0 014.419-2.169L20.5 8.5l.313.008.317.025 1.076-1.344-.105-.071a17.978 17.978 0 00-1.634-.977l-.454-.232C17.599 4.714 14.913 4 12 4z"/>
        </g></svg>