<svg xmlns="http://www.w3.org/2000/svg" viewBox="0 0 24 24"><g xmlns="http://www.w3.org/2000/svg" id="signal-wifi-2-bar" fill-rule="nonzero">
            <path d="M12 3c3.355 0 6.152.915 8.168 1.872l.45.222.423.22.394.217.534.315.466.294.272.18.446.313.487.367-10.08 12.56c-.348.435-.832.68-1.333.737l-.151.012h-.152a1.985 1.985 0 01-1.376-.624l-.108-.125L.36 7l.487-.367.321-.228.256-.173.286-.187.318-.2.44-.26.488-.27.422-.221.45-.222C5.843 3.915 8.64 3 12 3zm0 1c-2.917 0-5.604.714-8.016 1.909-.618.306-1.186.628-1.705.959l-.38.25-.106.071 3.808 4.747.299-.189C7.123 11 9.26 10 12 10c2.621 0 4.69.916 5.937 1.647l.319.194c.05.03.098.062.144.092l3.806-4.744-.105-.071a17.978 17.978 0 00-1.634-.977l-.454-.232C17.599 4.714 14.913 4 12 4z"/>
        </g></svg>