<svg xmlns="http://www.w3.org/2000/svg" viewBox="0 0 24 24"><g xmlns="http://www.w3.org/2000/svg" id="signal-wifi-0-bar" fill-rule="nonzero">
            <path d="M12 3c3.355 0 6.152.915 8.168 1.872l.45.222.423.22.394.217.534.315.466.294.272.18.446.313.487.367-10.08 12.56a1.998 1.998 0 01-3.012.125l-.108-.125L.36 7l.487-.367.321-.228.256-.173.286-.187.318-.2.349-.207.186-.107.393-.217.422-.22.45-.222C5.843 3.915 8.64 3 12 3zm0 1c-2.917 0-5.604.714-8.016 1.909-.618.306-1.186.628-1.705.959l-.38.25-.106.071 9.428 11.746a.998.998 0 001.474.093l.085-.094L22.206 7.19l-.105-.071a17.978 17.978 0 00-1.634-.977l-.454-.232C17.599 4.714 14.913 4 12 4z"/>
        </g></svg>