<svg xmlns="http://www.w3.org/2000/svg" viewBox="0 0 24 24"><g xmlns="http://www.w3.org/2000/svg" id="signal-wifi-1-bar-lock" fill-rule="nonzero">
            <path d="M20.5 12a2.473 2.473 0 012.495 2.333L23 14.5V16c.464 0 .929.431.993.893L24 17v4c0 .464-.431.929-.893.993L23 22h-5c-.464 0-.929-.431-.993-.893L17 21v-4c0-.464.431-.929.893-.993L18 16v-1.5c0-1.4 1.1-2.5 2.5-2.5zM12 3c3.355 0 6.152.915 8.168 1.872l.45.222.423.22.394.217.534.315.466.294.272.18.446.313.487.367-2.09 2.61c-.34-.07-.69-.11-1.05-.11-2.565 0-4.627 1.846-4.954 4.309l.024.011c-.02.147-.044.298-.059.45l-.011.23v2.64l-1.94 2.42c-.348.435-.832.68-1.333.737l-.151.012h-.152a1.985 1.985 0 01-1.376-.624l-.108-.125L.36 7l.487-.367.321-.228.256-.173.286-.187.318-.2.44-.26.488-.27.422-.221.45-.222C5.843 3.915 8.64 3 12 3zm8.5 10c-.753 0-1.417.62-1.493 1.36L19 14.5V16h3v-1.5c0-.8-.7-1.5-1.5-1.5zM12 4c-2.917 0-5.604.714-8.016 1.909-.618.306-1.186.628-1.705.959l-.38.25-.106.071 5.715 7.122C8.414 13.75 10.008 13 12 13c.97 0 1.844.18 2.593.43.481-2.757 2.798-4.822 5.68-4.926L20.5 8.5l.313.008.317.025 1.076-1.344-.105-.071a17.978 17.978 0 00-1.634-.977l-.454-.232C17.599 4.714 14.913 4 12 4z"/>
        </g></svg>