<svg xmlns="http://www.w3.org/2000/svg" viewBox="0 0 24 24"><g xmlns="http://www.w3.org/2000/svg" id="signal-cellular-connected-no-internet-3-bar" fill-rule="nonzero">
            <path d="M21.994 4.296L22 4.41V8h-1a2.996 2.996 0 00-2.995 2.823L18 11v11H4.41c-.851 0-1.29-.988-.776-1.625l.076-.085L20.29 3.7c.603-.603 1.617-.217 1.704.596zM22 20v2h-2v-2h2zm-1-10c.51 0 .935.388.993.884L22 11v6c0 .55-.45 1-1 1-.51 0-.935-.388-.993-.884L20 17v-6c0-.55.45-1 1-1zm-.003-5.593L18 7.405v.948a3.988 3.988 0 012.8-1.348L21 7V4.41l-.003-.003z"/>
        </g></svg>