<svg xmlns="http://www.w3.org/2000/svg" viewBox="0 0 24 24"><g xmlns="http://www.w3.org/2000/svg" id="signal-cellular-1-bar" fill-rule="nonzero">
            <path d="M4.019 22a.997.997 0 01-.642-.225l-.112-.108-.02-.023A.997.997 0 013 20.97c0-.22.071-.443.228-.636l.075-.082L20.252 3.3c.617-.617 1.657-.22 1.742.615l.006.11v15.931a2.05 2.05 0 01-1.892 2.038l-.152.006H4.019zM20.975 4.002l-.016.005L12 12.97v8.03l7.957.001c.534 0 .98-.411 1.038-.93l.006-.114V4.026c0-.013-.012-.023-.025-.024z"/>
        </g></svg>