<svg xmlns="http://www.w3.org/2000/svg" viewBox="0 0 24 24"><g xmlns="http://www.w3.org/2000/svg" id="signal-cellular-connected-no-internet-0-bar" fill-rule="nonzero">
            <path d="M21.994 4.296L22 4.41V8h-1a2.996 2.996 0 00-2.995 2.823L18 11v11H4.41c-.851 0-1.29-.988-.776-1.625l.076-.085L20.29 3.7c.603-.603 1.617-.217 1.704.596zM22 20v2h-2v-2h2zM20.997 4.407L4.414 21H17V11a3.996 3.996 0 013.8-3.995L21 7V4.41l-.003-.003zM21 10c.51 0 .935.388.993.884L22 11v6c0 .55-.45 1-1 1-.51 0-.935-.388-.993-.884L20 17v-6c0-.55.45-1 1-1z"/>
        </g></svg>