<svg xmlns="http://www.w3.org/2000/svg" viewBox="0 0 24 24"><g xmlns="http://www.w3.org/2000/svg" id="speaker-group" fill-rule="nonzero">
            <path d="M18.2 1c.99 0 1.8.81 1.8 1.8v14.4c0 .99-.81 1.8-1.8 1.8l-8.4-.01c-.99 0-1.8-.8-1.8-1.79V2.8C8 1.81 8.81 1 9.8 1h8.4zM14 3a2 2 0 10-.001 3.999A2 2 0 0014 3zm0 13.5c2.21 0 4-1.79 4-4s-1.79-4-4-4-4 1.79-4 4 1.79 4 4 4zm0-1.5a2.5 2.5 0 110-5 2.5 2.5 0 010 5zM5 5c.55 0 1 .45 1 1v14c0 .55.45 1 1 1h8c.55 0 1 .45 1 1s-.45 1-1 1H6a2 2 0 01-2-2V6c0-.55.45-1 1-1z"/>
        </g></svg>