<svg xmlns="http://www.w3.org/2000/svg" viewBox="0 0 24 24"><g xmlns="http://www.w3.org/2000/svg" id="subway" fill-rule="nonzero">
            <path d="M8.5 17a1 1 0 110-2 1 1 0 010 2zm7 0a1 1 0 110-2 1 1 0 010 2zM7.01 9h10v5h-10V9zM17.8 2.8C20.47 3.84 22 6.05 22 8.86V22H2V8.86C2 6.05 3.53 3.84 6.2 2.8 8 2.09 10.14 2 12 2c1.86 0 4 .09 5.8.8zm.2 12.7V9c0-2.63-3-3-6-3s-6 .37-6 3v6.5c0 1.54 1.16 2.79 2.65 2.96L7.5 19.62V20h1.67l1.5-1.5h2.66l1.5 1.5h1.67v-.38l-1.15-1.16A2.979 2.979 0 0018 15.5z"/>
        </g></svg>