<svg width="24" height="24" viewBox="0 0 24 24" fill="none" xmlns="http://www.w3.org/2000/svg">
<path fill-rule="evenodd" clip-rule="evenodd" d="M17.87 5.86L20.65 8.65C20.84 8.84 20.84 9.16 20.64 9.35L17.86 12.14C17.55 12.46 17.01 12.24 17.01 11.79V10H11C10.45 10 10 9.55 10 9C10 8.45 10.45 8 11 8H17.02V6.21C17.02 5.77 17.56 5.54 17.87 5.86ZM3.36003 14.65L6.14003 11.86C6.45003 11.54 6.99003 11.76 6.99003 12.21V14H13C13.55 14 14 14.45 14 15C14 15.55 13.55 16 13 16H6.99003V17.8C6.99003 18.24 6.45003 18.47 6.14003 18.15L3.36003 15.36C3.17003 15.16 3.17003 14.85 3.36003 14.65Z" fill="black"/>
</svg>
