<svg xmlns="http://www.w3.org/2000/svg" viewBox="0 0 24 24"><g xmlns="http://www.w3.org/2000/svg" id="sync" fill-rule="nonzero">
            <path d="M11.52 4V2.21c0-.45-.518-.67-.816-.35L8.016 4.65a.51.51 0 000 .71l2.678 2.79c.308.31.826.09.826-.36V6c3.178 0 5.76 2.69 5.76 6 0 .79-.144 1.56-.422 2.25a.99.99 0 00.22 1.04c.49.51 1.316.33 1.575-.34.355-.91.547-1.91.547-2.95 0-4.42-3.437-8-7.68-8zm0 14c-3.178 0-5.76-2.69-5.76-6 0-.79.144-1.56.422-2.25a.99.99 0 00-.22-1.04c-.49-.51-1.316-.33-1.575.34A8.114 8.114 0 003.84 12c0 4.42 3.437 8 7.68 8v1.79c0 .45.518.67.816.35l2.678-2.79a.51.51 0 000-.71l-2.678-2.79c-.298-.31-.816-.09-.816.36V18z"/>
        </g></svg>