<svg xmlns="http://www.w3.org/2000/svg" viewBox="0 0 24 24"><g xmlns="http://www.w3.org/2000/svg" id="thermal" fill-rule="nonzero">
            <path d="M10.5 2A3.5 3.5 0 0114 5.5v6.758a5.5 5.5 0 11-7 0V5.499A3.5 3.5 0 0110.5 2zm0 2a1.5 1.5 0 00-1.493 1.355L9 5.5v7.699l-.726.6a3.5 3.5 0 104.609.137l-.156-.136-.726-.6L12 5.5a1.5 1.5 0 00-1.356-1.493L10.5 4zm0 1a.5.5 0 01.5.5v8.55a2.5 2.5 0 11-1 0V5.5a.5.5 0 01.5-.5zm9.5 6a1 1 0 010 2h-3a1 1 0 010-2h3zm-2-3a1 1 0 010 2h-1a1 1 0 010-2h1zm2-3a1 1 0 010 2h-3a1 1 0 010-2h3zm-2-3a1 1 0 010 2h-1a1 1 0 010-2h1z"/>
        </g></svg>