<svg xmlns="http://www.w3.org/2000/svg" viewBox="0 0 24 24"><g xmlns="http://www.w3.org/2000/svg" id="timer-10" fill-rule="nonzero">
            <path d="M.914 7.72V9.4l2.77-1V18h1.845V6H5.3L.913 7.72zm21.95 6.65c-.129-.28-.322-.53-.58-.74a3.332 3.332 0 00-.933-.53c-.37-.14-.785-.27-1.246-.38-.323-.07-.591-.15-.803-.23a2.326 2.326 0 01-.508-.25.698.698 0 01-.259-.3 1.047 1.047 0 01.01-.8.88.88 0 01.249-.34c.11-.1.25-.18.415-.24.166-.06.37-.09.591-.09.23 0 .434.04.61.11a1.225 1.225 0 01.71.71c.055.16.092.32.092.49h1.8c0-.39-.074-.75-.221-1.09-.148-.34-.36-.63-.637-.88a3.11 3.11 0 00-1.006-.59C20.75 9.07 20.298 9 19.8 9c-.47 0-.905.07-1.283.21-.379.14-.71.33-.979.57-.267.24-.47.52-.618.84-.148.32-.212.65-.212 1.01s.074.69.212.96c.138.28.332.52.59.73.25.21.555.38.905.53.351.14.748.26 1.173.36.36.08.655.17.877.26.221.09.397.19.526.29.12.1.203.22.249.34.046.12.065.25.065.39 0 .32-.12.57-.37.77-.249.2-.609.29-1.08.29-.203 0-.397-.02-.59-.08a1.48 1.48 0 01-.517-.24 1.297 1.297 0 01-.379-.44 1.474 1.474 0 01-.166-.67h-1.745c0 .36.074.71.222 1.05.148.34.36.65.646.93.286.27.637.49 1.062.66.424.17.904.25 1.458.25.49 0 .932-.06 1.33-.19.396-.13.738-.31 1.024-.54.286-.23.498-.51.655-.83.157-.32.231-.67.231-1.06-.018-.4-.083-.74-.221-1.02zm-9.193-7.32c-.314-.4-.693-.7-1.136-.88a3.831 3.831 0 00-1.467-.27c-.536 0-1.025.09-1.468.27-.443.18-.822.47-1.135.88-.314.41-.554.93-.73 1.59-.166.65-.258 1.45-.258 2.39v1.92c0 .94.083 1.74.258 2.39.176.66.416 1.19.739 1.6.314.41.692.71 1.135.89.443.18.933.28 1.468.28.545 0 1.034-.09 1.468-.28.443-.18.812-.48 1.126-.89.314-.41.554-.94.72-1.6.166-.65.258-1.45.258-2.39v-1.92c0-.94-.083-1.74-.258-2.39-.166-.66-.406-1.19-.72-1.59zm-.85 6.17c0 .6-.036 1.11-.11 1.53-.074.42-.185.76-.333 1.02-.147.26-.332.45-.544.57-.212.12-.47.18-.757.18a1.58 1.58 0 01-.757-.18 1.424 1.424 0 01-.554-.57c-.148-.26-.268-.6-.35-1.02-.084-.42-.12-.93-.12-1.53v-2.5c0-.6.036-1.11.12-1.52.082-.41.193-.74.35-1 .148-.25.332-.43.554-.55.222-.11.47-.17.748-.17.286 0 .535.06.747.17.222.11.407.29.554.55.148.25.268.58.342.99.074.41.12.92.12 1.52v2.51h-.01z"/>
        </g></svg>