<svg width="24" height="24" viewBox="0 0 24 24" fill="none" xmlns="http://www.w3.org/2000/svg">
<path fill-rule="evenodd" clip-rule="evenodd" d="M16 9H4C3.45 9 3 8.55 3 8C3 7.45 3.45 7 4 7H16C16.55 7 17 7.45 17 8C17 8.55 16.55 9 16 9ZM16 13H4C3.45 13 3 12.55 3 12C3 11.45 3.45 11 4 11H16C16.55 11 17 11.45 17 12C17 12.55 16.55 13 16 13ZM4 17H16C16.55 17 17 16.55 17 16C17 15.45 16.55 15 16 15H4C3.45 15 3 15.45 3 16C3 16.55 3.45 17 4 17ZM21 17H19V15H21V17ZM19 7V9H21V7H19ZM21 13H19V11H21V13Z" fill="black"/>
</svg>
