<svg xmlns="http://www.w3.org/2000/svg" viewBox="0 0 24 24"><g xmlns="http://www.w3.org/2000/svg" id="wc" fill-rule="nonzero">
            <path d="M5.28 21v-6.5H4.8c-.528 0-.96-.45-.96-1V9c0-1.1.864-2 1.92-2h2.88c1.056 0 1.92.9 1.92 2v4.5c0 .55-.432 1-.96 1h-.48V21c0 .55-.432 1-.96 1H6.24c-.528 0-.96-.45-.96-1zm12 0v-5h1.546c.652 0 1.113-.67.912-1.32l-2.016-6.31c-.27-.82-.999-1.37-1.824-1.37h-.116c-.825 0-1.564.55-1.824 1.37l-2.016 6.31c-.21.65.25 1.32.912 1.32H14.4v5c0 .55.432 1 .96 1h.96c.528 0 .96-.45.96-1zM7.2 6c1.066 0 1.92-.89 1.92-2 0-1.11-.854-2-1.92-2-1.066 0-1.92.89-1.92 2 0 1.11.854 2 1.92 2zm8.64 0c1.066 0 1.92-.89 1.92-2 0-1.11-.854-2-1.92-2-1.066 0-1.92.89-1.92 2 0 1.11.854 2 1.92 2z"/>
        </g></svg>