<svg xmlns="http://www.w3.org/2000/svg" viewBox="0 0 24 24"><g xmlns="http://www.w3.org/2000/svg" id="zoom-in-map" fill-rule="nonzero">
            <path d="M19.977 8.322l-1.45-1.45 2.18-2.16c.39-.39.39-1.03 0-1.42-.39-.39-1.03-.39-1.42 0l-2.16 2.18-1.45-1.45a.5.5 0 00-.85.36v4.29c0 .28.22.5.5.5h4.29a.5.5 0 00.36-.85zm-11.655-4.3l-1.45 1.45-2.16-2.18c-.39-.39-1.03-.39-1.42 0-.39.39-.39 1.03 0 1.42l2.18 2.16-1.45 1.45a.5.5 0 00.36.85h4.29c.28 0 .5-.22.5-.5v-4.29a.5.5 0 00-.85-.36zm-4.3 11.655l1.45 1.45-2.18 2.16c-.39.39-.39 1.03 0 1.42.39.39 1.03.39 1.42 0l2.16-2.18 1.45 1.45a.5.5 0 00.85-.36v-4.29c0-.28-.22-.5-.5-.5h-4.29a.5.5 0 00-.36.85zm11.655 4.3l1.45-1.45 2.16 2.18c.39.39 1.03.39 1.42 0 .39-.39.39-1.03 0-1.42l-2.18-2.16 1.45-1.45a.5.5 0 00-.36-.85h-4.29c-.28 0-.5.22-.5.5v4.29c0 .45.54.67.85.36z"/>
        </g></svg>